<svg width="192" height="80" viewBox="0 0 192 80" fill="none" xmlns="http://www.w3.org/2000/svg">
  <path
    d="M4.22754 61.0352C4.6184 61.0352 4.93503 61.1557 5.17773 61.3984C5.42039 61.6411 5.54096 61.9574 5.54102 62.3496C5.54102 62.7518 5.42261 63.0737 5.18555 63.3164C4.9499 63.559 4.62963 63.6807 4.22754 63.6807C3.83676 63.6806 3.51903 63.5591 3.27637 63.3164C3.03378 63.0737 2.91309 62.7517 2.91309 62.3496C2.91314 61.9574 3.03371 61.6411 3.27637 61.3984C3.51903 61.1558 3.83678 61.0352 4.22754 61.0352ZM7.19434 61.0352C7.5849 61.0353 7.90096 61.1559 8.14355 61.3984C8.38621 61.6411 8.50776 61.9574 8.50781 62.3496C8.50781 62.7517 8.38927 63.0737 8.15234 63.3164C7.91537 63.559 7.59628 63.6806 7.19434 63.6807C6.80354 63.6807 6.48586 63.559 6.24316 63.3164C6.00045 63.0737 5.87988 62.7518 5.87988 62.3496C5.87994 61.9574 6.00051 61.6411 6.24316 61.3984C6.48583 61.156 6.80366 61.0352 7.19434 61.0352ZM52.2529 52.6514C52.2529 53.8592 51.8864 54.8186 51.1514 55.5283C50.477 56.1914 49.5824 56.5233 48.4707 56.5234H44.0996C43.2956 56.5234 42.627 56.3344 42.0938 55.9551C41.4785 56.5703 40.6551 56.8789 39.625 56.8789C38.6064 56.8788 37.789 56.5765 37.1738 55.9727C36.6165 56.3395 35.9477 56.5234 35.166 56.5234H11.3145C11.148 57.6367 10.4975 58.4947 9.36035 59.0986C8.37822 59.632 7.15115 59.8975 5.68359 59.8975C3.65891 59.8974 2.14376 59.3229 1.1377 58.1758C0.379996 57.3221 6.68768e-05 56.2753 0 55.0322C0 54.1321 0.207343 53.3332 0.62207 52.6348L3.07324 52.1191C2.63439 52.8995 2.41602 53.7282 2.41602 54.6045C2.41607 56.57 3.50514 57.5536 5.68359 57.5537C7.22311 57.5537 8.20037 57.2092 8.61523 56.5234H6.94434L8.22363 54.0371H34.918C35.2974 54.0371 35.5639 53.9594 35.7178 53.8057C35.8702 53.6533 35.9482 53.385 35.9482 53.0068V52.5088C35.9482 51.1006 36.3147 50.0112 37.0498 49.2422C37.7002 48.5551 38.5598 48.211 39.625 48.2109C40.8442 48.2109 41.786 48.6564 42.4492 49.5439C43.0179 50.3017 43.3066 51.2896 43.3193 52.5088V53.0068C43.3193 53.3976 43.3929 53.6658 43.541 53.8154C43.6891 53.9621 43.9517 54.0371 44.3311 54.0371H48.3457C48.8423 54.0371 49.1886 53.9343 49.3848 53.7256C49.5795 53.5196 49.6777 53.1553 49.6777 52.6348V46.4336L52.2529 45.0684V52.6514ZM96.3262 52.6514C96.3262 53.8592 95.9597 54.8186 95.2246 55.5283C94.5501 56.1915 93.6563 56.5234 92.543 56.5234H78.9209C78.3184 56.5234 77.7308 56.4293 77.1621 56.2402C76.5936 56.4292 76.0081 56.5234 75.4043 56.5234H59.0469C57.9575 56.5234 57.1045 56.1751 56.4893 55.4766C55.9559 54.8599 55.6895 54.0723 55.6895 53.1143V46.4336L58.2666 45.0684V53.0068C58.2666 53.385 58.3423 53.6533 58.4961 53.8057C58.6499 53.9594 58.9165 54.0371 59.2959 54.0371H74.0371C73.5277 53.4685 73.0289 52.7773 72.5449 51.959V51.0176C73.0882 50.178 73.7852 49.4984 74.6318 48.9834C75.477 48.4684 76.3212 48.211 77.1621 48.2109C77.9791 48.2109 78.8178 48.4756 79.6758 49.002C80.5337 49.5283 81.2419 50.2117 81.7979 51.0527V51.959C81.3013 52.7772 80.8032 53.4685 80.3066 54.0371H92.4189C92.9156 54.0371 93.2633 53.9344 93.458 53.7256C93.6541 53.5196 93.7509 53.1553 93.751 52.6348V46.4336L96.3262 45.0684V52.6514ZM102.34 56.5234H99.7646V46.4336L102.34 45.0684V56.5234ZM39.625 50.626C38.8915 50.6262 38.5234 51.238 38.5234 52.457C38.5235 53.7463 38.8916 54.3924 39.625 54.3926C40.37 54.3926 40.7441 53.7465 40.7441 52.457C40.7441 51.2378 40.3701 50.626 39.625 50.626ZM77.1621 50.6084C76.4285 50.6085 75.7654 50.9045 75.1729 51.4971C75.8487 52.5271 76.5116 53.2147 77.1621 53.5576C77.8253 53.202 78.4891 52.5217 79.1523 51.5156C78.4891 50.9103 77.8253 50.6084 77.1621 50.6084ZM59.9346 29.8662C60.8827 29.8663 61.8 30.2108 62.6875 30.8965C63.5764 31.5837 64.3568 32.5489 65.0312 33.792V34.7334C64.9015 34.9704 64.7417 35.2001 64.5527 35.4258C64.9676 35.6036 65.5945 35.6924 66.4355 35.6924H68.4766C68.8561 35.6924 69.1235 35.6147 69.2773 35.4609C69.431 35.3071 69.5068 35.0401 69.5068 34.6621V33.2236C69.5068 32.1343 69.846 31.2813 70.5205 30.666C71.1131 30.1328 71.8824 29.8662 72.8291 29.8662C74.0256 29.8663 74.954 30.3054 75.6172 31.1816C76.1857 31.9266 76.4697 32.8745 76.4697 34.0215C76.4697 35.3366 76.1092 36.378 75.3867 37.1484C74.7588 37.8356 73.9479 38.1787 72.9531 38.1787C72.0176 38.1787 71.2597 38.0011 70.6797 37.6455C70.1463 38.0011 69.4956 38.1787 68.7266 38.1787H66.417C65.4815 38.1787 64.7235 38.0693 64.1436 37.8506C63.5636 37.6319 63.0241 37.2561 62.5273 36.7227C62.2084 36.8412 61.7157 36.9771 61.0527 37.1309C59.8565 37.4158 59.0633 37.7285 58.6738 38.0713C58.1757 38.5341 57.9277 39.1616 57.9277 39.9561C57.9279 41.5531 58.7634 42.3535 60.4326 42.3535C61.5571 42.3534 62.67 42.0268 63.7705 41.375V43.8281C62.7053 44.5024 61.5088 44.8408 60.1826 44.8408C58.7391 44.8408 57.578 44.3833 56.7031 43.4717C55.8607 42.6067 55.4415 41.4289 55.4414 39.9375C55.4414 38.374 55.8858 37.1784 56.7734 36.3486C57.4126 35.7335 58.5611 35.2244 60.2188 34.8223C61.236 34.5612 61.929 34.3234 62.2959 34.1104C61.5509 32.8675 60.6565 32.2471 59.6152 32.2471C58.715 32.2471 57.6668 32.762 56.4717 33.792V31.5537C57.4776 30.4294 58.6202 29.8663 59.8984 29.8662H59.9346ZM10.2559 39.7061C10.6467 39.7061 10.9612 39.8245 11.1982 40.0615C11.4339 40.2986 11.5527 40.6121 11.5527 41.0029C11.5527 41.4177 11.4338 41.7466 11.1982 41.9893C10.9612 42.2318 10.6466 42.3535 10.2559 42.3535C9.85376 42.3535 9.53034 42.2292 9.28906 41.9795C9.04641 41.7312 8.92389 41.405 8.92383 41.0029C8.92383 40.6121 9.04647 40.2986 9.28906 40.0615C9.53035 39.8245 9.85372 39.7061 10.2559 39.7061ZM13.2051 39.7061C13.5959 39.7061 13.9116 39.8246 14.1543 40.0615C14.397 40.2986 14.5186 40.6121 14.5186 41.0029C14.5185 41.4176 14.4006 41.7466 14.165 41.9893C13.928 42.232 13.6072 42.3535 13.2051 42.3535C12.8143 42.3535 12.4966 42.2291 12.2539 41.9795C12.0113 41.7312 11.8897 41.405 11.8896 41.0029C11.8896 40.6121 12.0113 40.2986 12.2539 40.0615C12.4966 39.8245 12.8142 39.7061 13.2051 39.7061ZM99.9316 39.7061C100.323 39.7061 100.636 39.8245 100.873 40.0615C101.11 40.2986 101.229 40.6174 101.229 41.0195C101.229 41.4231 101.11 41.7465 100.873 41.9893C100.636 42.2318 100.322 42.3535 99.9316 42.3535C99.5297 42.3535 99.2065 42.2318 98.9639 41.9893C98.7212 41.7465 98.5996 41.4231 98.5996 41.0195C98.5996 40.6174 98.7212 40.2986 98.9639 40.0615C99.2065 39.8245 99.5296 39.7061 99.9316 39.7061ZM101.976 34.7686C101.976 35.8705 101.631 36.7344 100.945 37.3623C100.341 37.907 99.565 38.1787 98.6182 38.1787H95.5986C95.3263 38.1787 95.0424 38.1491 94.7461 38.0898C94.4737 39.6407 93.7086 40.7062 92.4541 41.2861C91.9575 41.5245 91.4187 41.6435 90.8389 41.6436C90.0571 41.6436 89.2934 41.4344 88.5469 41.0195V38.7832C89.1635 39.1261 89.7609 39.2979 90.3408 39.2979C90.637 39.2978 90.909 39.2497 91.1572 39.1553C91.8797 38.9069 92.2412 38.2437 92.2412 37.167V31.5537L94.8164 30.1865V30.2031L94.835 30.1865V34.9629C94.8942 35.4497 95.2315 35.6924 95.8467 35.6924H98.3682C98.7477 35.6924 99.0151 35.6147 99.1689 35.4609C99.3225 35.3071 99.3984 35.04 99.3984 34.6621V31.5537L101.976 30.1865V34.7686ZM60.5029 38.7295C60.8345 38.7295 61.1014 38.8295 61.3018 39.0312C61.5035 39.2316 61.6035 39.4985 61.6035 39.8301C61.6035 40.1743 61.5035 40.4498 61.3018 40.6572C61.1014 40.8632 60.8345 40.9677 60.5029 40.9678C60.1714 40.9678 59.9017 40.8631 59.6943 40.6572C59.4869 40.4498 59.3838 40.1743 59.3838 39.8301C59.3838 39.4985 59.4869 39.2316 59.6943 39.0312C59.9018 38.8295 60.1714 38.7295 60.5029 38.7295ZM7.52148 34.6621C7.52148 35.0403 7.59912 35.3071 7.75293 35.4609C7.90674 35.6147 8.17358 35.6924 8.55176 35.6924H11.0732C11.4527 35.6924 11.7193 35.6147 11.873 35.4609C12.0254 35.3071 12.1035 35.0402 12.1035 34.6621V31.5537L14.6787 30.1865V34.7686C14.6787 35.8705 14.3356 36.7344 13.6484 37.3623C13.0558 37.9069 12.2808 38.1787 11.3213 38.1787H8.30273C7.24876 38.1787 6.41304 37.853 5.79785 37.2012C5.32383 37.51 4.74414 37.664 4.05859 37.6641C2.94534 37.6641 2.05773 37.2491 1.39453 36.4209C0.837143 35.7337 0.558594 34.9219 0.558594 33.9863C0.55865 32.8027 0.955312 31.8377 1.74805 31.0928C2.38726 30.4761 3.13406 30.168 3.98633 30.168C4.30665 30.168 4.62597 30.216 4.94629 30.3105V29.9551L7.52148 28.6064V34.6621ZM30.8945 29.8662C32.1857 29.8662 33.2333 30.4291 34.0391 31.5537V33.792C33.1516 32.786 32.2032 32.2824 31.1973 32.2822H31.126C30.1186 32.3063 29.6162 32.8396 29.6162 33.8809C29.6162 34.4495 29.8001 34.8926 30.167 35.2129C30.5339 35.5317 31.0488 35.6924 31.7119 35.6924H34.8916V38.1787H24.3936C23.5301 38.1787 22.8016 37.9661 22.209 37.54C21.7716 37.9659 21.1618 38.1787 20.3789 38.1787H15.958L17.2549 35.6924H19.9014C20.3752 35.6922 20.6103 35.4258 20.6104 34.8926C20.6104 33.7215 20.0308 32.8101 18.8711 32.1582L20.1318 29.9922C21.9548 31.0448 22.9612 32.4765 23.1504 34.2881C23.2223 34.8565 23.344 35.232 23.5146 35.417C23.6868 35.6004 24.0214 35.6924 24.5195 35.6924H27.4141C27.1657 35.1111 27.041 34.4791 27.041 33.792C27.041 32.5376 27.4856 31.5302 28.373 30.7725C29.0955 30.1686 29.9351 29.8663 30.8945 29.8662ZM46.4189 34.3066C46.4189 35.5019 46.0516 36.4621 45.3164 37.1846C44.6293 37.8476 43.7361 38.1786 42.6357 38.1787H35.6377L36.9326 35.6924H39.1709V30.3994L41.748 29.0322V35.6924H42.5107C42.9962 35.6924 43.3371 35.5883 43.5332 35.3809C43.7279 35.1748 43.8252 34.8101 43.8252 34.2881V28.0898L46.4189 26.7227V34.3066ZM51.6934 38.1787H49.1182V28.0898L51.6934 26.7227V38.1787ZM81.4785 34.6621C81.4785 35.0402 81.5552 35.3071 81.709 35.4609C81.8628 35.6147 82.1293 35.6924 82.5088 35.6924H85.0303C85.4084 35.6924 85.6753 35.6147 85.8291 35.4609C85.9829 35.3071 86.0605 35.0403 86.0605 34.6621V31.5537L88.6357 30.1865V34.7686C88.6357 35.8705 88.2912 36.7344 87.6055 37.3623C87.0016 37.9067 86.2258 38.1786 85.2793 38.1787H82.2588C81.1697 38.1786 80.3173 37.8292 79.7021 37.1309C79.1702 36.5157 78.9034 35.728 78.9033 34.7686V28.0898L81.4785 26.7227V34.6621ZM72.8291 32.2822C72.3325 32.2822 72.0841 32.5726 72.084 33.1523V35C72.0841 35.4613 72.3325 35.6924 72.8291 35.6924C73.5627 35.6923 73.9306 35.1055 73.9307 33.9346C73.9307 32.8326 73.5627 32.2823 72.8291 32.2822ZM4.18262 32.6025C3.85105 32.6025 3.5873 32.7322 3.39258 32.9932C3.19646 33.2528 3.09866 33.6027 3.09863 34.04C3.09863 34.9996 3.47134 35.4795 4.21777 35.4795C4.5493 35.4795 4.79736 35.3833 4.96387 35.1943C4.95119 35.0998 4.94629 34.9588 4.94629 34.7686V32.8154C4.72194 32.6729 4.46623 32.6025 4.18262 32.6025ZM20.168 25.9404C20.5571 25.9405 20.8714 26.0591 21.1084 26.2959C21.3441 26.533 21.4629 26.8537 21.4629 27.2559C21.4628 27.6579 21.344 27.981 21.1084 28.2236C20.8714 28.4661 20.5571 28.5878 20.168 28.5879C19.7644 28.5879 19.4405 28.4663 19.1992 28.2236C18.9567 27.981 18.836 27.6578 18.8359 27.2559C18.8359 26.8537 18.9566 26.533 19.1992 26.2959C19.4405 26.0588 19.7644 25.9404 20.168 25.9404ZM30.8945 25.9404C31.2853 25.9404 31.5989 26.0589 31.8359 26.2959C32.073 26.533 32.1914 26.8537 32.1914 27.2559C32.1914 27.6579 32.0729 27.981 31.8359 28.2236C31.5989 28.4663 31.2854 28.5879 30.8945 28.5879C30.4925 28.5878 30.1694 28.4663 29.9268 28.2236C29.6841 27.981 29.5626 27.6579 29.5625 27.2559C29.5625 26.8537 29.684 26.533 29.9268 26.2959C30.1694 26.0589 30.4925 25.9405 30.8945 25.9404ZM87.4463 25.9404C87.8371 25.9404 88.1506 26.0589 88.3877 26.2959C88.6248 26.533 88.7432 26.8537 88.7432 27.2559C88.7431 27.6579 88.6247 27.981 88.3877 28.2236C88.1506 28.4663 87.8371 28.5879 87.4463 28.5879C87.0443 28.5878 86.7212 28.4663 86.4785 28.2236C86.2359 27.981 86.1143 27.6579 86.1143 27.2559C86.1143 26.8537 86.2358 26.533 86.4785 26.2959C86.7212 26.0589 87.0443 25.9405 87.4463 25.9404ZM2.72656 25.4971C3.11735 25.4971 3.43094 25.6159 3.66797 25.8516C3.90485 26.0886 4.0234 26.4033 4.02344 26.7939C4.02344 27.2074 3.90498 27.5366 3.66797 27.7793C3.43094 28.0234 3.11735 28.1435 2.72656 28.1436C2.32449 28.1436 2.00148 28.0188 1.75879 27.7705C1.51608 27.5222 1.39453 27.1961 1.39453 26.7939C1.39457 26.4032 1.51612 26.0886 1.75879 25.8516C2.00148 25.616 2.3245 25.4971 2.72656 25.4971ZM5.67383 25.4971C6.06471 25.4971 6.38131 25.6159 6.62402 25.8516C6.86659 26.0886 6.98922 26.4032 6.98926 26.7939C6.98926 27.2074 6.87086 27.5366 6.63379 27.7793C6.39673 28.0234 6.07597 28.1436 5.67383 28.1436C5.2831 28.1435 4.96726 28.0188 4.72461 27.7705C4.4819 27.5222 4.36035 27.1961 4.36035 26.7939C4.36039 26.4032 4.48194 26.0886 4.72461 25.8516C4.96726 25.616 5.28311 25.4971 5.67383 25.4971ZM40.9658 24.6621C41.3678 24.6621 41.729 24.8045 42.0479 25.0879V26.2256C41.7405 25.9535 41.446 25.8175 41.1611 25.8174C40.7703 25.8174 40.5753 25.9771 40.5752 26.2959C40.5752 26.4736 40.6515 26.664 40.8066 26.8643H42.6172L41.9961 28.0186H38.5146L39.1357 26.8643H39.6875C39.5564 26.6161 39.4913 26.361 39.4912 26.1016C39.4912 25.7107 39.6365 25.3729 39.9258 25.0879C40.2164 24.8043 40.5623 24.6621 40.9658 24.6621Z"
    fill="#007DBC" />
  <path
    d="M161.464 5.21405H162.237C162.96 5.21405 163.5 5.07153 163.86 4.78648C164.217 4.50144 164.398 4.08516 164.398 3.53906C164.398 2.98873 164.247 2.58233 163.946 2.31986C163.646 2.0574 163.174 1.92475 162.534 1.92475H161.464V5.21405ZM166.77 3.45581C166.77 4.64819 166.397 5.56118 165.652 6.19195C164.906 6.82412 163.847 7.14021 162.473 7.14021H161.464V11.0814H159.115V0H162.654C163.998 0 165.02 0.289277 165.72 0.867832C166.42 1.4478 166.77 2.30857 166.77 3.45581ZM153.313 11.0814H151.002V0H157.353V1.92475H153.313V4.78366H157.073V6.69994H153.313V11.0814ZM146.928 11.0814H144.253L142.753 5.2592C142.696 5.05318 142.602 4.6242 142.468 3.97509C142.334 3.32598 142.256 2.88995 142.236 2.66841C142.205 2.94216 142.13 3.37961 142.009 3.98356C141.888 4.5861 141.793 5.0179 141.728 5.27473L140.235 11.0814H137.568L134.74 0H137.052L138.47 6.04801C138.717 7.1642 138.896 8.13222 139.008 8.95066C139.037 8.6628 139.108 8.21689 139.216 7.61434C139.324 7.00898 139.427 6.54049 139.523 6.20747L141.137 0H143.358L144.972 6.20747C145.043 6.48546 145.132 6.9102 145.238 7.48029C145.343 8.05179 145.425 8.54144 145.48 8.95066C145.53 8.55697 145.612 8.06449 145.723 7.47606C145.835 6.88903 145.935 6.41208 146.026 6.04801L147.435 0H149.748L146.928 11.0814ZM141.181 49.6216C136.875 49.6216 134.111 50.6447 133.357 50.9608C133.312 50.9805 133.277 50.917 133.311 50.8832C138.042 45.9641 143.581 46.2364 144.913 46.2364H160.664C161.457 46.2364 162.1 46.9942 162.1 47.9297C162.1 48.8639 161.457 49.6216 160.664 49.6216H141.181ZM144.728 53.9749C140.09 53.9749 138.738 51.339 131.716 53.0789C131.668 53.0916 131.636 53.0252 131.675 52.9984C135.59 50.3117 139.847 50.5558 141.57 50.5558H160.664C161.457 50.5558 162.1 51.3136 162.1 52.2491C162.1 53.1833 161.457 53.941 160.664 53.941C160.664 53.941 148.401 53.9749 144.728 53.9749ZM145.058 58.2605C140.296 58.2605 139.915 54.7468 132.856 53.9552C132.807 53.9509 132.801 53.8775 132.849 53.8648C138.649 52.4156 140.807 54.8752 144.192 54.8752H160.664C161.457 54.8752 162.1 55.633 162.1 56.5671C162.1 57.5027 161.457 58.2605 160.664 58.2605H145.058ZM144.024 45.3037C140.191 45.3037 137.014 46.9744 136.27 47.3963C136.229 47.4203 136.187 47.3695 136.214 47.3314C136.836 46.417 140.194 41.917 145.966 41.917H160.664C161.457 41.917 162.1 42.6748 162.1 43.6103C162.1 44.5459 161.457 45.3037 160.664 45.3037H144.024ZM165.108 35.9551C164.959 35.8041 164.738 35.6954 164.482 35.6658C164.293 35.639 164.123 35.6686 163.972 35.7265C164.038 35.5868 164.093 35.4372 164.116 35.2608C164.152 34.987 164.1 34.7316 163.997 34.5369C163.523 33.4983 164.879 31.4212 164.708 31.3266C164.545 31.2377 163.774 33.528 163.026 34.4551C162.882 34.623 162.778 34.8671 162.745 35.1437C162.719 35.4174 162.764 35.6771 162.867 35.8676C162.971 36.0552 163.131 36.1865 163.315 36.1978C163.368 36.2048 163.42 36.202 163.468 36.1907C163.457 36.2161 163.445 36.2472 163.441 36.2726C163.411 36.4758 163.489 36.6663 163.641 36.8201C163.79 36.9781 164.008 37.0825 164.264 37.1122C164.526 37.146 164.772 37.0938 164.959 36.9823C165.975 36.4264 168.078 35.8789 168.034 35.6841C167.993 35.4894 165.942 36.6931 165.108 35.9551ZM166.66 34.4395C166.519 34.2857 166.32 34.1813 166.085 34.1587C165.951 34.1502 165.83 34.1728 165.709 34.218C165.727 34.1545 165.752 34.098 165.759 34.0345C165.786 33.7876 165.727 33.5576 165.616 33.3812C165.1 32.4259 166.445 30.6225 166.272 30.5322C166.097 30.4419 165.36 32.464 164.612 33.2612C164.464 33.4052 164.36 33.614 164.334 33.8624C164.312 34.1093 164.367 34.3422 164.475 34.5185C164.594 34.6907 164.756 34.8149 164.952 34.8403C165.038 34.8473 165.127 34.8332 165.205 34.8106C165.201 34.8219 165.189 34.8375 165.194 34.8473C165.175 35.0576 165.253 35.2608 165.39 35.4104C165.531 35.5599 165.734 35.6658 165.96 35.6841C166.193 35.7067 166.409 35.6432 166.571 35.519C167.446 34.8897 169.445 34.5143 169.393 34.3125C169.345 34.1164 167.43 35.1747 166.66 34.4395ZM168.019 33.0369C167.875 32.9282 167.679 32.869 167.471 32.8915C167.371 32.8944 167.278 32.9254 167.193 32.9621C167.207 32.9212 167.234 32.8873 167.248 32.8464C167.303 32.6319 167.285 32.4146 167.214 32.2382C166.89 31.3012 168.333 29.9141 168.192 29.8012C168.053 29.6968 167.116 31.376 166.345 31.9687C166.197 32.0773 166.078 32.2495 166.019 32.4668C165.956 32.6771 165.975 32.8986 166.049 33.0707C166.126 33.2471 166.252 33.3784 166.423 33.4306C166.553 33.4715 166.682 33.4461 166.804 33.3939C166.778 33.4644 166.764 33.5477 166.771 33.6338C166.79 33.8243 166.883 33.9866 167.034 34.098C167.178 34.2109 167.374 34.2674 167.578 34.2519C167.789 34.2293 167.971 34.1404 168.096 34.0049C168.789 33.3036 170.515 32.6474 170.444 32.4781C170.371 32.3102 168.819 33.5576 168.019 33.0369ZM170.693 30.0256C170.549 29.8125 169.341 31.1361 168.449 31.2631C168.281 31.2857 168.096 31.3689 167.941 31.5143C167.775 31.6653 167.667 31.8487 167.629 32.0237C167.59 32.1973 167.615 32.3666 167.708 32.4823C167.807 32.6023 167.959 32.6545 168.13 32.6361C168.301 32.6164 168.479 32.5345 168.645 32.3807C168.8 32.234 168.908 32.0519 168.949 31.8784C169.218 30.971 170.8 30.1653 170.693 30.0256ZM145.724 31.8177C145.688 31.9503 145.428 32.9692 145.428 32.9692C145.355 33.0115 145.043 32.9437 144.961 32.9353C144.366 32.8788 143.834 32.3624 144.062 31.7429C144.248 31.2377 144.632 31.1841 145.118 31.1629C145.318 31.1531 145.682 31.201 145.863 31.3266C145.863 31.3266 145.791 31.5595 145.724 31.8177ZM145.04 34.8967C145.02 35.0138 145.002 35.1296 144.984 35.2453C144.614 35.0138 144.395 34.4804 144.573 34.0599C144.71 33.7424 145.049 33.6578 145.298 33.6437C145.209 34.0599 145.12 34.4762 145.04 34.8967ZM144.507 38.7025C144.46 38.9635 144.107 38.9988 143.866 39.0708C143.166 39.2796 142.503 39.1907 142.288 38.3539C142.054 37.4579 142.733 37.0825 143.458 36.9061C143.855 36.813 144.222 36.892 144.491 37.2251C144.56 37.3083 144.639 37.3831 144.658 37.4621C144.658 37.4621 144.55 38.457 144.507 38.7025ZM142.302 34.297C142.843 34.1658 143.402 33.964 143.817 34.496C144.254 35.0534 144.11 35.9508 143.406 36.1865C142.943 36.3445 142.384 36.4786 141.988 36.1004C141.47 35.6051 141.507 34.4804 142.302 34.297ZM141.773 31.3944C142.343 31.2561 142.932 31.0458 143.369 31.6046C143.825 32.1902 143.673 33.1343 142.936 33.3812C142.448 33.5435 141.858 33.686 141.443 33.2881C140.9 32.7702 140.939 31.5891 141.773 31.3944ZM141.244 37.6681C141.096 38.1888 140.666 38.2679 140.214 38.3765C139.918 38.0125 139.122 37.0938 139.109 36.9852C139.105 36.9485 139.109 36.9076 139.125 36.8582C139.163 36.7495 139.288 36.6437 139.38 36.5844C139.651 36.408 140.228 36.2768 140.54 36.3403C141.099 36.4602 141.392 37.1432 141.244 37.6681ZM138.415 34.987C138.007 33.5435 140.429 32.9127 140.802 34.3309C141.188 35.7857 138.744 36.4038 138.415 34.987ZM138.059 32.1041C137.644 30.6676 140.077 30.0369 140.451 31.4466C140.836 32.9057 138.388 33.5237 138.059 32.1041ZM137.718 29.2692C137.321 27.9301 139.607 27.3374 139.956 28.6582C140.314 30.0157 138.03 30.5999 137.718 29.2692ZM137.485 34.7246C137.372 34.7909 137.33 34.8262 137.293 34.8262L136.205 33.6437C136.219 33.6112 136.555 33.3671 136.666 33.3036C137.57 32.8012 138.315 34.2363 137.485 34.7246ZM135.422 32.0618C134.884 30.8765 136.84 29.591 137.433 30.8694C137.977 32.0477 136.022 33.3558 135.422 32.0618ZM137.066 28.3097C137.685 29.4075 135.821 30.6338 135.288 29.4527C134.815 28.4324 136.47 27.2443 137.066 28.3097ZM135.504 25.7485C135.777 25.5058 136.096 25.3732 136.422 25.5298C136.944 25.7824 136.959 26.5655 136.503 26.8774C136.295 27.0199 135.944 27.1949 135.689 27.1314C135.13 26.9889 135.023 26.1732 135.504 25.7485ZM135.574 23.3934C135.8 23.241 136.101 23.1041 136.359 23.2099C136.83 23.4018 136.815 24.0862 136.434 24.36C136.259 24.4842 135.944 24.638 135.732 24.5815C135.255 24.4616 135.138 23.6883 135.574 23.3934ZM136.826 20.0377C137.107 19.8853 137.51 19.8233 137.763 20.1055C138.058 20.4371 137.963 20.9409 137.574 21.1398C137.273 21.2908 136.87 21.3458 136.633 21.0679C136.374 20.7687 136.427 20.2536 136.826 20.0377ZM136.603 22.5862C136.377 21.7466 137.793 21.3501 138.021 22.2038C138.278 23.0335 136.829 23.4456 136.603 22.5862ZM138.885 24.0538C139.215 24.9611 137.677 25.4747 137.378 24.5787C137.07 23.6714 138.614 23.1535 138.885 24.0538ZM139.078 19.6328C139.37 19.5142 139.747 19.3886 140.073 19.6328C140.481 19.9376 140.392 20.6219 139.925 20.8364C139.617 20.9747 139.226 21.0679 138.951 20.8251C138.604 20.5133 138.584 19.8303 139.078 19.6328ZM138.807 27.2259C138.392 27.3219 137.959 27.4884 137.615 27.1314C137.173 26.677 137.3 25.8826 137.896 25.6652C138.281 25.5199 138.769 25.4367 139.084 25.7598C139.489 26.1718 139.444 27.0721 138.807 27.2259ZM138.814 22.5904C138.547 21.6916 140.014 21.2301 140.296 22.1036C140.584 22.9997 139.067 23.4752 138.814 22.5904ZM141.27 24.24C141.614 25.2673 139.877 25.8162 139.558 24.8031C139.236 23.7687 140.985 23.2212 141.27 24.24ZM141.363 21.4884C141.667 21.4065 141.992 21.4362 142.225 21.6873C142.58 22.0697 142.459 22.7217 141.933 22.8205C141.684 22.8642 141.303 22.8459 141.11 22.6765C140.762 22.3703 140.778 21.645 141.363 21.4884ZM142.843 23.6445C143.402 23.6445 143.684 24.4658 143.358 24.875C143.162 25.122 142.74 25.1375 142.451 25.0923C141.917 25.0091 141.577 24.3233 141.936 23.8576C142.154 23.5768 142.528 23.6445 142.843 23.6445ZM140.159 27.027C139.815 25.8459 141.821 25.3167 142.129 26.4907C142.439 27.6831 140.421 28.2081 140.159 27.027ZM141.388 28.5383C141.936 28.4818 142.507 28.3534 142.843 28.9277C143.196 29.5345 142.932 30.3784 142.222 30.5209C141.755 30.6182 141.188 30.6634 140.855 30.2514C140.417 29.7038 140.592 28.6131 141.388 28.5383ZM144.175 25.9065C144.851 26.1859 145.08 26.986 144.603 27.432C144.347 27.6648 143.88 27.6182 143.565 27.5547C142.936 27.432 142.524 26.4851 143.077 26.0364C143.359 25.8064 143.867 25.7795 144.175 25.9065ZM145.239 28.7556C145.665 29.2763 145.506 30.1991 144.762 30.2443C144.373 30.2655 143.866 30.2217 143.604 29.9028C143.18 29.392 143.34 28.4367 144.083 28.4099C144.473 28.3957 144.977 28.4367 145.239 28.7556ZM148.116 19.3519C148.075 19.2913 148.002 19.2574 147.929 19.28C147.84 19.3096 147.78 19.4084 147.813 19.4945C149.513 24.0608 147.343 26.3101 146.436 29.5091C145.346 26.9098 148.954 24.4658 147.095 19.7301C147.069 19.6709 147.021 19.6215 146.955 19.6102C146.862 19.5989 146.773 19.637 146.757 19.7598C146.709 20.0942 146.491 22.7189 144.361 24.2556C144.143 23.7532 143.821 23.2283 143.369 22.8162C143.173 21.9315 142.596 20.7165 141.381 20.3567C141.199 19.8995 140.832 19.2419 140.129 18.8905C139.466 18.5603 138.698 18.5899 137.848 18.9766C136.817 19.0965 136.11 19.4973 135.737 20.169C135.385 20.8026 135.447 21.4926 135.566 21.9611C134.699 22.8868 134.658 24.2598 134.681 24.796C134.167 26.0321 134.455 27.4771 134.618 28.0768C134.004 29.7561 134.603 31.3873 134.845 31.9278C134.845 32.0731 134.852 32.2128 134.859 32.3511C132.845 30.1455 128.26 27.4164 126.508 26.375C126.426 26.3256 126.323 26.3369 126.252 26.4047C126.164 26.4865 126.159 26.622 126.241 26.7109C130.149 30.5209 133.634 35.2227 136.981 44.9791C138.652 43.2434 141.669 40.9603 145.966 40.9603H150.991C147.799 29.066 152.447 24.8101 148.116 19.3519ZM171.874 25.5002C170.955 25.2603 165.089 24.2217 158.516 36.3149C159.476 31.8106 162.39 26.3623 163.19 24.7805V24.7692C163.238 24.6789 163.212 24.5632 163.131 24.4997C163.049 24.439 162.926 24.4588 162.864 24.5477C158.519 31.7923 156.994 35.9649 156.095 40.9603H158.815C159.278 36.1456 165.36 24.8031 171.84 25.6469H171.848C171.885 25.654 171.918 25.6243 171.922 25.5905C171.937 25.5495 171.911 25.5086 171.874 25.5002ZM158.806 65.34L157.335 59.1932H154.832C155.227 60.7539 155.794 62.34 156.528 63.7299C156.575 63.8132 156.663 63.8626 156.752 63.847C156.871 63.8315 156.964 63.7087 156.943 63.5803C156.772 62.2793 156.569 61.0234 156.376 59.7718C156.905 61.7388 157.62 63.6622 158.583 65.4331C158.608 65.4882 158.664 65.515 158.717 65.4966C158.786 65.4811 158.824 65.4077 158.806 65.34ZM161.334 62.5488C161.079 61.5229 160.812 60.2614 160.582 59.1932H159.631C160.001 60.3334 160.502 61.6048 160.946 62.6928C160.99 62.7972 161.09 62.8494 161.186 62.824C161.302 62.7887 161.364 62.6659 161.334 62.5488ZM161.653 66.1641L161.646 66.1486C161.337 65.2906 160.912 64.5215 160.575 63.6975C160.217 62.872 159.868 62.062 159.579 61.2153C159.337 60.5817 159.082 59.8536 158.886 59.1932H157.967C158.227 59.9622 158.564 60.7906 158.879 61.5342C159.572 63.2092 160.372 64.8517 161.391 66.3207C161.426 66.3743 161.498 66.3969 161.564 66.3701C161.646 66.3405 161.683 66.2459 161.653 66.1641ZM163.026 36.6705C162.956 36.5661 162.786 36.5435 162.704 36.6296C161.035 38.392 160.023 40.266 159.675 40.9603H160.668C161.163 39.7933 162.282 37.7345 163.001 36.9922L163.009 36.9852C163.083 36.9033 163.097 36.7636 163.026 36.6705ZM155.472 28.1403C156.391 26.6333 157.753 25.4776 158.909 24.0834C158.949 24.0298 158.945 23.9479 158.897 23.9028C158.853 23.8548 158.779 23.8548 158.731 23.9C158.468 24.1808 158.193 24.4432 157.912 24.7057C157.789 24.645 157.479 24.765 157.164 25.0133C156.916 25.208 156.738 25.4254 156.676 25.5834C156.515 25.5453 156.216 25.733 155.947 26.0787C155.724 26.3666 155.594 26.6714 155.598 26.8576C155.427 26.8732 155.179 27.0905 154.969 27.4362C154.832 27.6648 154.743 27.8849 154.713 28.0684C154.575 28.1629 154.42 28.3393 154.276 28.5679C154.087 28.8826 153.991 29.2015 154.02 29.3849C153.975 29.464 153.932 29.5387 153.895 29.6178C153.902 29.5543 153.909 29.4936 153.916 29.4301C154.187 27.2965 154.579 25.1812 155.176 23.1422C155.776 21.1102 156.494 19.0584 157.727 17.4131L157.734 17.406C157.798 17.3157 157.789 17.1915 157.712 17.1097C157.634 17.0236 157.506 17.0194 157.424 17.1055C156.998 17.5598 156.638 18.065 156.316 18.5871C156.175 18.5109 155.879 18.7889 155.653 19.2235C155.446 19.6172 155.372 19.9813 155.45 20.1196C155.45 20.1196 155.446 20.1309 155.439 20.1281C155.29 20.0631 155.017 20.3933 154.85 20.8364C154.686 21.2527 154.657 21.6351 154.768 21.7621C154.761 21.7692 154.761 21.7734 154.757 21.7805C154.59 21.7212 154.32 22.0994 154.153 22.6356C154.016 23.09 154.002 23.4837 154.102 23.6417C154.109 23.6474 154.102 23.6671 154.094 23.6629C153.924 23.6036 153.665 23.9931 153.514 24.5265C153.361 25.0387 153.371 25.4931 153.517 25.5834C153.35 25.5637 153.116 25.9545 152.995 26.4823C152.883 26.9395 152.894 27.3346 153.002 27.4912C152.838 27.5406 152.657 27.923 152.566 28.4169C152.477 28.9009 152.52 29.3031 152.639 29.4301C152.487 29.5091 152.331 29.9028 152.276 30.3896C152.221 30.8737 152.29 31.2716 152.417 31.3986C152.29 31.5411 152.169 31.8784 152.117 32.2834C152.065 32.67 152.098 33.003 152.172 33.1907C152.035 33.3078 151.931 33.6973 151.928 34.1658C151.916 34.5411 151.973 34.8586 152.069 35.0435C151.994 35.2297 151.943 35.5049 151.943 35.8083C151.935 36.202 151.998 36.5393 152.098 36.7156C152.069 38.0985 152.087 39.5731 152.162 40.9603H155.149C155.172 39.8793 155.242 38.7025 155.35 37.6343C155.561 35.7293 155.876 33.7946 156.827 32.1676L156.836 32.1564C156.865 32.0957 156.861 32.0279 156.816 31.9757C156.761 31.9278 156.683 31.9278 156.631 31.987C155.338 33.487 154.773 35.5233 154.438 37.4762C154.379 37.8586 154.331 38.2453 154.287 38.6277C154.368 37.06 154.513 35.5007 154.871 34.0162C155.283 32.2086 156.105 30.487 157.671 29.5246C157.719 29.4936 157.746 29.4301 157.727 29.3666C157.709 29.2946 157.634 29.2537 157.571 29.272C157.472 29.3031 157.379 29.3553 157.283 29.3962C157.18 29.2692 156.797 29.3624 156.405 29.6135C156.031 29.8577 155.783 30.1568 155.808 30.3219C155.808 30.3304 155.79 30.3417 155.79 30.3261C155.787 30.3078 155.783 30.288 155.772 30.2782C155.63 30.161 155.254 30.4235 154.935 30.8694C154.613 31.3167 154.486 31.781 154.624 31.9009C154.631 31.9052 154.627 31.9165 154.62 31.9165C154.454 31.8487 154.176 32.2269 154.002 32.7561C153.875 33.1272 153.845 33.4687 153.891 33.6634C153.891 33.6705 153.884 33.6775 153.884 33.6775C153.754 34.1065 153.646 34.5369 153.546 34.9757C153.583 34.3563 153.638 33.734 153.727 33.1201C153.991 31.3492 154.524 29.6178 155.472 28.1403ZM164.875 23.2057C164.686 23.1154 164.437 23.0928 164.189 23.1535C164.004 23.1986 163.856 23.2889 163.73 23.3934C163.749 23.2353 163.749 23.0787 163.705 22.9065C163.646 22.6356 163.512 22.4141 163.349 22.2715C162.541 21.4658 163.097 19.0401 162.908 19.0105C162.723 18.9836 162.789 21.4023 162.408 22.534C162.33 22.7443 162.315 23.011 162.383 23.2805C162.449 23.5472 162.582 23.7715 162.748 23.9183C162.908 24.0566 163.101 24.1201 163.282 24.0636C163.331 24.0566 163.379 24.034 163.42 24.0044C163.42 24.034 163.42 24.0636 163.423 24.0947C163.464 24.2922 163.605 24.4475 163.797 24.5364C163.993 24.6309 164.234 24.6535 164.485 24.5886C164.742 24.5293 164.952 24.391 165.089 24.2217C165.848 23.3412 167.633 22.0853 167.526 21.9159C167.419 21.7508 165.912 23.6036 164.875 23.2057ZM168.326 20.1492C168.212 19.9855 166.781 21.6535 165.807 21.2372C165.623 21.1441 165.397 21.1172 165.171 21.1765C165.045 21.2146 164.938 21.2823 164.838 21.3642C164.834 21.2965 164.838 21.2372 164.823 21.1765C164.763 20.9338 164.631 20.7419 164.464 20.6149C163.648 19.9023 164.289 17.7362 164.097 17.7122C163.901 17.6897 163.904 19.8458 163.482 20.859C163.393 21.0467 163.368 21.2781 163.43 21.518C163.489 21.7593 163.623 21.9569 163.79 22.0853C163.956 22.2038 164.152 22.2617 164.346 22.2165C164.43 22.1939 164.505 22.1488 164.571 22.0994C164.571 22.1107 164.567 22.1262 164.571 22.1375C164.631 22.3435 164.772 22.5044 164.952 22.5989C165.137 22.685 165.363 22.7146 165.582 22.6511C165.807 22.5904 165.985 22.4522 166.097 22.2842C166.701 21.3797 168.441 20.3228 168.326 20.1492ZM168.678 18.0608C168.552 17.931 167.526 19.6469 166.596 19.4408C166.423 19.3929 166.218 19.4042 166.035 19.4973C165.942 19.5354 165.863 19.5989 165.798 19.6624C165.798 19.6215 165.807 19.5805 165.807 19.5354C165.786 19.3181 165.697 19.1149 165.568 18.9794C164.941 18.2146 165.812 16.4041 165.645 16.3477C165.474 16.2983 165.178 18.2047 164.66 19.033C164.556 19.1897 164.505 19.3929 164.526 19.6144C164.542 19.8345 164.633 20.0335 164.763 20.1732C164.897 20.3115 165.06 20.3863 165.237 20.375C165.371 20.3708 165.486 20.3002 165.582 20.2057C165.582 20.2819 165.597 20.3637 165.634 20.4427C165.714 20.6149 165.86 20.7348 166.037 20.7842C166.212 20.8407 166.42 20.8251 166.603 20.7348C166.792 20.6417 166.929 20.4907 167.004 20.3228C167.412 19.4183 168.8 18.1934 168.678 18.0608ZM168.064 15.6774C167.852 15.5264 167.182 17.1958 166.386 17.6304C166.238 17.7094 166.097 17.8519 165.997 18.0467C165.896 18.2456 165.86 18.4545 165.886 18.6309C165.905 18.8073 165.985 18.9583 166.115 19.033C166.248 19.1121 166.409 19.1078 166.56 19.0288C166.715 18.9498 166.852 18.8073 166.956 18.6097C167.052 18.4136 167.089 18.2047 167.068 18.0283C167.008 17.0829 168.212 15.7706 168.064 15.6774ZM153.446 59.1932H145.058C144.488 59.1932 143.973 59.148 143.499 59.0634C143.502 59.0634 143.502 59.0662 143.502 59.0662C144.881 61.1137 147.04 62.6659 149.228 63.7088C149.566 65.5756 149.987 67.3028 150.138 67.4383C150.295 67.5738 152.443 66.9543 152.509 66.7567C152.573 66.5578 151.631 63.3602 151.631 63.3602C152.76 61.4213 153.109 60.2769 153.446 59.1932ZM174.548 73.5428C172.43 74.3795 169.667 74.4501 167.412 73.8504C162.246 72.2417 156.51 69.1937 151.002 71.7239C145.494 69.1937 139.758 72.2417 134.592 73.8504C132.337 74.4501 129.574 74.3795 127.456 73.5428C127.397 73.5216 127.352 73.595 127.404 73.6373C130.452 75.9953 134.722 77.079 138.566 75.6919C142.257 74.5404 145.38 70.6302 149.753 72.2982C146.292 73.6514 143.055 76.1491 140.554 78.507L142.373 80C144.644 77.3556 147.199 74.7126 150.09 73.1053C150.487 72.8725 150.724 72.7779 151.002 72.7638C151.28 72.7779 151.516 72.8725 151.909 73.1053C154.805 74.7126 157.361 77.3556 159.631 80L161.45 78.507C158.949 76.1491 155.712 73.6514 152.251 72.2982C156.624 70.6302 159.745 74.5404 163.438 75.6919C167.282 77.079 171.552 75.9953 174.599 73.6373C174.648 73.595 174.607 73.5216 174.548 73.5428ZM140.499 69.9811C135.1 68.6716 133.623 63.61 129.109 61.4143C129.059 61.3875 129.008 61.4439 129.038 61.4877C130.46 63.8287 131.231 67.4129 135.329 69.6213C135.363 69.6396 135.344 69.6933 135.308 69.6806C129.426 68.5489 126.957 70.1222 120.794 67.3381C120.742 67.3141 120.686 67.3706 120.719 67.42C122.746 70.3593 127.552 72.3687 134.138 71.8156C136.507 71.6124 138.226 70.6147 140.499 70.0827C140.554 70.0672 140.554 69.9924 140.499 69.9811ZM129.189 66.8767C127.137 64.1871 127.723 58.4481 123.09 53.1946C123.053 53.1537 122.986 53.1875 122.997 53.2397C123.882 57.109 123.619 61.5032 126.041 64.7233C126.063 64.7586 126.029 64.7911 125.997 64.7699C121.219 61.0093 116.31 59.8762 114.124 56.8324C114.091 56.7901 114.024 56.8127 114.032 56.8649C114.573 60.8061 122.142 66.9472 129.148 66.9585C129.189 66.9585 129.216 66.9106 129.189 66.8767ZM122.016 59.7294C119.816 55.6513 122.445 49.4269 119.949 43.3775C119.924 43.314 119.828 43.3295 119.828 43.3972C119.753 46.7006 117.701 51.6311 118.941 55.355C118.957 55.3874 118.913 55.4072 118.893 55.3762C115.735 50.7618 113.228 49.7966 111.139 45.5718C111.11 45.5083 111.014 45.5266 111.01 45.5943C110.877 48.4659 112.147 50.8056 113.579 52.9801C115.872 55.9237 118.824 58.252 121.946 59.8042C121.994 59.8282 122.037 59.7774 122.016 59.7294ZM120.523 34.8854C120.52 34.8177 120.432 34.7951 120.398 34.8558C118.72 37.9941 115.731 40.4904 115.635 44.6348C115.631 44.6757 115.587 44.6785 115.58 44.6418C115.035 41.4429 112.32 37.8586 112.202 33.2288C112.202 33.1568 112.102 33.1385 112.076 33.2062C109.843 39.2274 113.054 44.9382 116.472 49.6555C116.509 49.7035 116.583 49.6739 116.583 49.6089C116.442 44.6108 120.776 40.8812 120.523 34.8854ZM122.657 27.0933C121.071 29.2946 117.505 30.8511 116.202 34.0261C116.183 34.0726 116.128 34.0599 116.135 34.0077C116.653 30.4503 115.28 26.3186 116.568 21.59C116.588 21.5222 116.502 21.4771 116.461 21.5293C114.513 23.9254 113.854 26.7335 113.746 29.7673C113.613 33.4941 114.924 36.2133 115.572 38.7406C115.587 38.7999 115.665 38.7956 115.679 38.7364C116.613 35.4217 121.297 33.4278 122.764 27.1469C122.782 27.0792 122.698 27.0383 122.657 27.0933ZM126.957 19.692C124.349 21.7353 120.368 23.7038 119.513 25.1262C119.497 25.1558 119.454 25.1333 119.461 25.1036L120.427 20.4653C120.861 18.4968 121.234 16.6102 122.322 14.8477C122.356 14.7955 122.293 14.7362 122.245 14.7729C117.283 18.7028 118.009 24.3868 117.79 29.0406C117.787 29.0886 117.846 29.1112 117.879 29.0773C120.801 25.9094 125.564 24.0636 127.037 19.7569C127.055 19.7047 127 19.6582 126.957 19.692ZM130.648 12.5687C126.264 12.707 123.042 16.3999 121.661 21.1017C121.652 21.1285 121.69 21.1511 121.711 21.1356C127.752 16.7075 127.415 14.811 130.685 12.7042C130.744 12.6661 130.719 12.5687 130.648 12.5687ZM181.207 67.3381C175.047 70.1222 172.574 68.5489 166.692 69.6806C166.656 69.6933 166.637 69.6396 166.671 69.6213C170.77 67.4129 171.541 63.8287 172.963 61.4877C172.993 61.4439 172.941 61.3875 172.893 61.4143C168.381 63.61 166.904 68.6716 161.501 69.9811C161.446 69.9924 161.446 70.0672 161.501 70.0827C163.774 70.6147 165.493 71.6124 167.863 71.8156C174.448 72.3687 179.258 70.3593 181.28 67.42C181.314 67.3706 181.258 67.3141 181.207 67.3381ZM187.876 56.8324C185.692 59.8762 180.781 61.0093 176.004 64.7699C175.975 64.7911 175.936 64.7586 175.963 64.7233C178.381 61.5032 178.118 57.109 179.003 53.2397C179.014 53.1875 178.946 53.1537 178.911 53.1946C174.281 58.4481 174.863 64.1871 172.815 66.8767C172.788 66.9106 172.811 66.9585 172.856 66.9585C179.862 66.9472 187.429 60.8061 187.969 56.8649C187.976 56.8127 187.91 56.7901 187.876 56.8324ZM190.99 45.5943C190.987 45.5266 190.89 45.5083 190.86 45.5718C188.772 49.7966 186.264 50.7618 183.111 55.3762C183.088 55.4072 183.047 55.3874 183.058 55.355C184.299 51.6311 182.251 46.7006 182.174 43.3972C182.174 43.3295 182.076 43.314 182.051 43.3775C179.555 49.4269 182.183 55.6513 179.988 59.7294C179.962 59.7774 180.006 59.8282 180.056 59.8042C183.177 58.252 186.128 55.9237 188.421 52.9801C189.853 50.8056 191.124 48.4659 190.99 45.5943ZM189.923 33.2062C189.898 33.1385 189.798 33.1568 189.798 33.2288C189.679 37.8586 186.966 41.4429 186.421 44.6418C186.413 44.6785 186.369 44.6757 186.369 44.6348C186.273 40.4904 183.28 37.9941 181.602 34.8558C181.57 34.7951 181.481 34.8177 181.481 34.8854C181.228 40.8812 185.559 44.6108 185.416 49.6089C185.416 49.6739 185.495 49.7035 185.532 49.6555C188.946 44.9382 192.157 39.2274 189.923 33.2062ZM188.254 29.7673C188.145 26.7335 187.488 23.9254 185.539 21.5293C185.5 21.4771 185.416 21.5222 185.432 21.59C186.72 26.3186 185.347 30.4503 185.869 34.0077C185.876 34.0599 185.817 34.0726 185.799 34.0261C184.495 30.8511 180.929 29.2946 179.344 27.0933C179.306 27.0383 179.222 27.0792 179.237 27.1469C180.703 33.4278 185.387 35.4217 186.321 38.7364C186.335 38.7956 186.413 38.7999 186.428 38.7406C187.076 36.2133 188.387 33.4941 188.254 29.7673ZM179.755 14.7729C179.707 14.7362 179.643 14.7955 179.677 14.8477C180.765 16.6102 181.139 18.4968 181.572 20.4653L182.539 25.1036C182.548 25.1333 182.502 25.1558 182.488 25.1262C181.632 23.7038 177.655 21.7353 175.045 19.692C175.004 19.6582 174.944 19.7047 174.963 19.7569C176.436 24.0636 181.199 25.9094 184.121 29.0773C184.153 29.1112 184.213 29.0886 184.21 29.0406C183.991 24.3868 184.716 18.7028 179.755 14.7729ZM171.352 12.5687C171.281 12.5687 171.259 12.6661 171.315 12.7042C174.585 14.811 174.247 16.7075 180.288 21.1356C180.314 21.1511 180.348 21.1285 180.339 21.1017C178.959 16.3999 175.737 12.707 171.352 12.5687Z"
    fill="#007DBC" />
</svg>