<svg width="80" height="121" viewBox="0 0 80 121" fill="none" xmlns="http://www.w3.org/2000/svg">
  <g clip-path="url(#clip0_195_1605)">
    <path
      d="M3.88086 117.954C4.18793 117.954 4.43669 118.049 4.62793 118.24C4.81916 118.431 4.91404 118.68 4.91406 118.987C4.91406 119.304 4.82039 119.557 4.63477 119.748C4.44769 119.939 4.19637 120.034 3.88086 120.034C3.57378 120.034 3.32363 119.939 3.13379 119.748C2.94271 119.557 2.84766 119.304 2.84766 118.987C2.84768 118.68 2.94256 118.431 3.13379 118.24C3.32363 118.049 3.57378 117.954 3.88086 117.954ZM6.21289 117.954C6.51825 117.954 6.76786 118.049 6.95898 118.24C7.15022 118.431 7.24509 118.68 7.24512 118.987C7.24512 119.304 7.15225 119.557 6.9668 119.748C6.77981 119.939 6.5282 120.034 6.21289 120.034C5.90576 120.034 5.65568 119.939 5.46582 119.748C5.27456 119.557 5.17773 119.304 5.17773 118.987C5.17776 118.68 5.27459 118.431 5.46582 118.24C5.65565 118.049 5.9059 117.954 6.21289 117.954ZM41.6289 111.365C41.6289 112.316 41.3402 113.069 40.7637 113.627C40.2332 114.148 39.5292 114.41 38.6553 114.41H35.2207C34.5885 114.41 34.0623 114.259 33.6436 113.962C33.1591 114.445 32.5137 114.688 31.7041 114.688C30.9016 114.687 30.2599 114.45 29.7783 113.976C29.34 114.265 28.8134 114.41 28.1992 114.41H9.45117C9.31986 115.284 8.80881 115.958 7.91406 116.433C7.14345 116.853 6.1785 117.061 5.02539 117.061C3.43285 117.06 2.24226 116.61 1.45215 115.707C0.856072 115.037 0.558635 114.213 0.558594 113.237C0.558594 112.528 0.720197 111.901 1.04688 111.351L2.97168 110.946C2.62836 111.56 2.45605 112.213 2.45605 112.902C2.45616 114.445 3.31277 115.22 5.02539 115.22C6.23414 115.22 7.00231 114.95 7.3291 114.41H6.0166L7.02246 112.454H28.0039C28.301 112.454 28.5104 112.393 28.6318 112.273C28.7517 112.152 28.8134 111.942 28.8135 111.645V111.255C28.8135 110.146 29.1008 109.29 29.6787 108.685C30.191 108.146 30.8652 107.875 31.7041 107.875C32.6618 107.875 33.4007 108.224 33.9229 108.922C34.3696 109.518 34.5986 110.296 34.6084 111.255V111.645C34.6084 111.953 34.666 112.162 34.7832 112.279C34.8991 112.396 35.1053 112.454 35.4023 112.454H38.5576C38.9482 112.454 39.2204 112.373 39.374 112.21C39.5276 112.048 39.6045 111.761 39.6045 111.351V106.479L41.6289 105.404V111.365ZM75.7725 111.365C75.7724 112.316 75.4837 113.069 74.9072 113.627C74.3767 114.148 73.6728 114.41 72.7988 114.41H62.0908C61.6163 114.41 61.1556 114.334 60.709 114.187C60.2637 114.334 59.8017 114.41 59.3271 114.41H46.4707C45.6135 114.41 44.9434 114.135 44.459 113.586C44.0402 113.1 43.8321 112.482 43.832 111.729V106.479L45.8545 105.404V111.645C45.8545 111.942 45.9167 112.152 46.0381 112.273C46.1581 112.393 46.3677 112.454 46.665 112.454H58.252C57.8513 112.007 57.4616 111.462 57.0791 110.82V110.081C57.5077 109.421 58.0552 108.889 58.7197 108.482C59.3856 108.079 60.0473 107.875 60.709 107.875C61.3512 107.875 62.0103 108.083 62.6846 108.496C63.3588 108.909 63.9156 109.449 64.3525 110.11V110.82C63.9616 111.462 63.5706 112.007 63.1797 112.454H72.7012C73.0918 112.454 73.364 112.373 73.5176 112.21C73.6711 112.048 73.748 111.761 73.748 111.351V106.479L75.7725 105.404V111.365ZM79.998 114.41H77.9756V106.479L79.998 105.404V114.41ZM31.7041 109.773C31.1251 109.774 30.838 110.254 30.8379 111.211C30.8379 112.224 31.125 112.733 31.7041 112.733C32.2891 112.733 32.583 112.224 32.583 111.211C32.5829 110.254 32.289 109.773 31.7041 109.773ZM60.709 109.761C60.1324 109.761 59.6118 109.993 59.1455 110.459C59.676 111.269 60.1981 111.809 60.709 112.078C61.2296 111.798 61.7518 111.263 62.2725 110.472C61.7517 109.998 61.2297 109.761 60.709 109.761ZM46.873 93.2158C47.6171 93.2159 48.3392 93.4876 49.0371 94.0264C49.7349 94.5666 50.3476 95.3261 50.8779 96.3018V97.041C50.776 97.2281 50.6504 97.4086 50.501 97.5859C50.8277 97.7255 51.3211 97.7949 51.9814 97.7949H53.585C53.8823 97.7949 54.0934 97.7353 54.2148 97.6152C54.3335 97.4938 54.3945 97.2827 54.3945 96.9854V95.8545C54.3946 94.9988 54.6619 94.3291 55.1924 93.8447C55.6573 93.4274 56.2614 93.2158 57.0068 93.2158C57.9448 93.2158 58.6761 93.561 59.1982 94.249C59.6436 94.8354 59.8672 95.5811 59.8672 96.4844C59.8672 97.5161 59.5838 98.3355 59.0156 98.9414C58.5214 99.4803 57.8849 99.751 57.1045 99.751C56.3688 99.751 55.7725 99.6103 55.3174 99.3311C54.8986 99.6102 54.3861 99.751 53.7803 99.751H51.9668C51.2326 99.751 50.6362 99.6629 50.1797 99.4912C49.7247 99.3195 49.3005 99.0232 48.9111 98.6045C48.6584 98.698 48.2727 98.8049 47.752 98.9277C46.8112 99.1497 46.1884 99.3966 45.8799 99.666C45.4905 100.029 45.2939 100.524 45.2939 101.147C45.294 102.402 45.9519 103.03 47.2627 103.03C48.1476 103.03 49.0213 102.775 49.8867 102.263V104.189C49.0491 104.72 48.1078 104.986 47.0664 104.986C45.9316 104.986 45.0196 104.626 44.3301 103.91C43.6698 103.23 43.3398 102.305 43.3398 101.133C43.3399 99.9031 43.6888 98.9626 44.3867 98.3135C44.8893 97.8291 45.7923 97.4282 47.0947 97.1113C47.8947 96.9075 48.4409 96.7217 48.7285 96.5527C48.1422 95.5769 47.4396 95.0879 46.6201 95.0879C45.9123 95.0879 45.0885 95.492 44.1504 96.3018V94.542C44.9405 93.6598 45.8401 93.2158 46.8438 93.2158H46.873ZM7.62109 100.95C7.92816 100.95 8.17525 101.044 8.3623 101.229C8.54794 101.417 8.64156 101.662 8.6416 101.971C8.6416 102.295 8.54793 102.554 8.3623 102.744C8.17525 102.935 7.92819 103.03 7.62109 103.03C7.30558 103.03 7.05119 102.933 6.86133 102.737C6.67015 102.543 6.57422 102.286 6.57422 101.971C6.57426 101.662 6.67016 101.417 6.86133 101.229C7.05119 101.044 7.30558 100.95 7.62109 100.95ZM9.94043 100.95C10.2458 100.95 10.4954 101.044 10.6865 101.229C10.8763 101.417 10.9726 101.662 10.9727 101.971C10.9727 102.294 10.8784 102.554 10.6943 102.744C10.5073 102.935 10.2557 103.03 9.94043 103.03C9.6333 103.03 9.38267 102.933 9.19141 102.737C9.00165 102.543 8.90527 102.286 8.90527 101.971C8.90531 101.662 9.00165 101.417 9.19141 101.229C9.38267 101.044 9.6333 100.95 9.94043 100.95ZM78.3945 100.95C78.7016 100.95 78.9477 101.044 79.1348 101.229C79.3203 101.417 79.414 101.668 79.4141 101.983C79.4141 102.3 79.3203 102.554 79.1348 102.744C78.9477 102.935 78.7016 103.03 78.3945 103.03C78.0776 103.03 77.8251 102.935 77.6338 102.744C77.4425 102.554 77.3477 102.3 77.3477 101.983C77.3477 101.668 77.4425 101.417 77.6338 101.229C77.825 101.044 78.0777 100.95 78.3945 100.95ZM80 97.0703C80 97.9343 79.7305 98.6132 79.1904 99.1074C78.7158 99.536 78.1054 99.751 77.3613 99.751H74.9863C74.7728 99.751 74.5491 99.7257 74.3174 99.6797C74.1038 100.898 73.5022 101.738 72.5166 102.194C72.1258 102.38 71.7011 102.472 71.2461 102.472C70.6306 102.472 70.0315 102.31 69.4453 101.983V100.226C69.9284 100.495 70.3994 100.629 70.8545 100.629C71.0874 100.629 71.3022 100.593 71.4961 100.518C72.0657 100.324 72.3496 99.8014 72.3496 98.9541V94.542L74.374 93.4688V93.4824L74.3877 93.4688V97.2227C74.4338 97.6052 74.6992 97.7949 75.1836 97.7949H77.166C77.4632 97.7949 77.6725 97.7352 77.7939 97.6152C77.914 97.4938 77.9756 97.2827 77.9756 96.9854V94.542L80 93.4688V97.0703ZM47.3184 100.183C47.5793 100.183 47.7886 100.262 47.9463 100.42C48.1053 100.579 48.1836 100.787 48.1836 101.048C48.1836 101.319 48.1054 101.534 47.9463 101.697C47.7886 101.862 47.5793 101.941 47.3184 101.941C47.0587 101.941 46.846 101.862 46.6826 101.697C46.5207 101.534 46.4385 101.319 46.4385 101.048C46.4385 100.787 46.5208 100.579 46.6826 100.42C46.846 100.262 47.0587 100.183 47.3184 100.183ZM5.4707 96.9854C5.4707 97.2826 5.53236 97.4938 5.65234 97.6152C5.7738 97.7353 5.98489 97.7949 6.28223 97.7949H8.26367C8.56066 97.7949 8.77114 97.7351 8.89258 97.6152C9.01264 97.4938 9.07422 97.2827 9.07422 96.9854V94.542L11.0986 93.4688V97.0703C11.0986 97.9344 10.8279 98.6132 10.2891 99.1074C9.82283 99.536 9.21274 99.7509 8.45898 99.751H6.08691C5.25765 99.751 4.6012 99.4938 4.11816 98.9814C3.74546 99.2243 3.28922 99.3447 2.74902 99.3447C1.87509 99.3447 1.17642 99.0197 0.654297 98.3691C0.21882 97.8289 8.43467e-06 97.1907 0 96.4551C0 95.524 0.311018 94.7656 0.933594 94.1807C1.43756 93.6962 2.02425 93.4551 2.69434 93.4551C2.94563 93.4551 3.19737 93.49 3.44727 93.5654V93.2861L5.4707 92.2246V96.9854ZM23.8848 93.2158C24.8982 93.2158 25.724 93.6598 26.3564 94.542V96.3018C25.6584 95.5116 24.9142 95.1153 24.124 95.1152H24.0684C23.2754 95.1348 22.8799 95.5536 22.8799 96.373C22.88 96.8182 23.0255 97.1673 23.3145 97.4199C23.602 97.6711 24.0068 97.7949 24.5273 97.7949H27.0264V99.751H18.7773C18.0975 99.751 17.5245 99.5821 17.0596 99.2471C16.7148 99.582 16.2362 99.751 15.6221 99.751H12.1455L13.165 97.7949H15.2451C15.6178 97.7949 15.8037 97.5858 15.8037 97.167C15.8037 96.2471 15.3483 95.5299 14.4355 95.0176L15.4268 93.3135C16.8605 94.1413 17.65 95.2684 17.8008 96.6924C17.8566 97.139 17.9502 97.4367 18.0869 97.5791C18.2195 97.7243 18.4841 97.7949 18.875 97.7949H21.1494C20.954 97.3399 20.8555 96.8419 20.8555 96.3018C20.8555 95.3149 21.2045 94.5244 21.9023 93.9297C22.4704 93.4551 23.1311 93.2159 23.8848 93.2158ZM36.1289 96.7061C36.1289 97.6469 35.8411 98.401 35.2646 98.9678C34.7258 99.4885 34.0218 99.751 33.1562 99.751H27.6562L28.6748 97.7949H30.4346V93.6348L32.458 92.5605V97.7949H33.0586C33.4411 97.7949 33.7082 97.7141 33.8604 97.5508C34.0152 97.3888 34.0908 97.1026 34.0908 96.6924V91.8203L36.1289 90.7451V96.7061ZM40.3164 99.751H38.2939V91.8203L40.3164 90.7451V99.751ZM63.8457 96.9854C63.8457 97.2827 63.9078 97.4938 64.0293 97.6152C64.1494 97.7352 64.359 97.7949 64.6562 97.7949H66.6396C66.9369 97.7949 67.1461 97.7352 67.2676 97.6152C67.3876 97.4938 67.4492 97.2827 67.4492 96.9854V94.542L69.4736 93.4688V97.0703C69.4736 97.9344 69.2042 98.6132 68.6641 99.1074C68.1894 99.536 67.5791 99.751 66.835 99.751H64.46C63.6045 99.7509 62.9345 99.4762 62.4502 98.9277C62.0314 98.4419 61.8232 97.8228 61.8232 97.0703V91.8203L63.8457 90.7451V96.9854ZM57.0068 95.1152C56.6147 95.1152 56.421 95.3436 56.4209 95.7998V97.251C56.421 97.6152 56.6146 97.7949 57.0068 97.7949C57.5834 97.7949 57.8721 97.3345 57.8721 96.4131C57.8721 95.549 57.5834 95.1153 57.0068 95.1152ZM2.84766 95.3662C2.58675 95.3663 2.38049 95.4697 2.22559 95.6748C2.07345 95.8786 1.99613 96.1533 1.99609 96.498C1.99609 97.2505 2.28963 97.6279 2.87598 97.6279C3.13692 97.6279 3.3307 97.5536 3.46191 97.4043C3.45215 97.3289 3.44727 97.2168 3.44727 97.0703V95.5332C3.27136 95.4215 3.07103 95.3662 2.84766 95.3662ZM15.4541 90.1309C15.7626 90.1309 16.0073 90.2245 16.1943 90.4102C16.38 90.5972 16.4736 90.8486 16.4736 91.1641C16.4736 91.4809 16.3799 91.735 16.1943 91.9248C16.0073 92.1161 15.7626 92.2109 15.4541 92.2109C15.1373 92.2109 14.8846 92.116 14.6934 91.9248C14.5021 91.735 14.4072 91.4809 14.4072 91.1641C14.4072 90.8486 14.5021 90.5972 14.6934 90.4102C14.8846 90.2245 15.1373 90.1309 15.4541 90.1309ZM23.8848 90.1309C24.1933 90.1309 24.4393 90.2245 24.625 90.4102C24.8121 90.5972 24.9043 90.8486 24.9043 91.1641C24.9043 91.4809 24.8121 91.735 24.625 91.9248C24.4393 92.1161 24.1933 92.2109 23.8848 92.2109C23.5681 92.2109 23.3152 92.116 23.124 91.9248C22.9329 91.735 22.8379 91.4808 22.8379 91.1641C22.8379 90.8486 22.9329 90.5972 23.124 90.4102C23.3152 90.2246 23.5681 90.1309 23.8848 90.1309ZM68.5381 90.1309C68.8452 90.1309 69.0926 90.2245 69.2783 90.4102C69.4639 90.5972 69.5576 90.8486 69.5576 91.1641C69.5576 91.4809 69.4639 91.735 69.2783 91.9248C69.0926 92.1161 68.8452 92.2109 68.5381 92.2109C68.2227 92.2109 67.9672 92.116 67.7773 91.9248C67.5875 91.735 67.4912 91.4809 67.4912 91.1641C67.4912 90.8486 67.5875 90.5972 67.7773 90.4102C67.9672 90.2245 68.2227 90.1309 68.5381 90.1309ZM1.70215 89.7822C2.01053 89.7823 2.25775 89.8759 2.44336 90.0615C2.62881 90.2486 2.72266 90.4944 2.72266 90.8027C2.72259 91.1265 2.62897 91.3864 2.44336 91.5762C2.25776 91.7673 2.01048 91.8622 1.70215 91.8623C1.38664 91.8623 1.13267 91.7638 0.941406 91.5684C0.751627 91.3744 0.655347 91.1181 0.655273 90.8027C0.655273 90.4942 0.751549 90.2486 0.941406 90.0615C1.13267 89.8758 1.38664 89.7822 1.70215 89.7822ZM4.01953 89.7822C4.32792 89.7823 4.57638 89.8759 4.76758 90.0615C4.95727 90.2486 5.05371 90.4943 5.05371 90.8027C5.05364 91.1265 4.96044 91.3864 4.77344 91.5762C4.58922 91.7674 4.33628 91.8622 4.01953 91.8623C3.71379 91.8623 3.46372 91.7638 3.27246 91.5684C3.08278 91.3744 2.98738 91.118 2.9873 90.8027C2.9873 90.4943 3.08271 90.2486 3.27246 90.0615C3.46372 89.8758 3.71379 89.7822 4.01953 89.7822ZM31.8438 89.126C32.1607 89.126 32.4444 89.239 32.6943 89.4609V90.3545C32.4542 90.1409 32.2209 90.0332 31.9961 90.0332C31.6904 90.0332 31.5371 90.1589 31.5371 90.4102C31.5371 90.5511 31.5973 90.6973 31.7188 90.8564H33.1426L32.6533 91.7646H29.918L30.4062 90.8564H30.8389C30.7357 90.6626 30.6856 90.4618 30.6855 90.2568C30.6855 89.9497 30.7984 89.6843 31.0273 89.4609C31.2548 89.239 31.5284 89.126 31.8438 89.126Z"
      fill="#007DBC" />
    <path
      d="M50.464 5.21405H51.2373C51.9598 5.21405 52.5003 5.07153 52.8601 4.78648C53.2171 4.50144 53.3978 4.08516 53.3978 3.53906C53.3978 2.98873 53.2468 2.58233 52.9462 2.31986C52.6456 2.0574 52.1743 1.92475 51.5337 1.92475H50.464V5.21405ZM55.7698 3.45581C55.7698 4.64819 55.3973 5.56118 54.6522 6.19195C53.9058 6.82412 52.8474 7.14021 51.473 7.14021H50.464V11.0814H48.1145V0H51.6536C52.9984 0 54.0201 0.289277 54.72 0.867832C55.4199 1.4478 55.7698 2.30857 55.7698 3.45581ZM42.3134 11.0814H40.002V0H46.3535V1.92475H42.3134V4.78366H46.0726V6.69994H42.3134V11.0814ZM35.9281 11.0814H33.2526L31.7526 5.2592C31.6962 5.05318 31.6016 4.6242 31.4676 3.97509C31.3335 3.32598 31.2559 2.88995 31.2362 2.66841C31.2051 2.94216 31.1303 3.37961 31.009 3.98356C30.8876 4.5861 30.7931 5.0179 30.7282 5.27473L29.2352 11.0814H26.5682L23.7403 0H26.0517L27.4699 6.04801C27.7168 7.1642 27.896 8.13222 28.0075 8.95066C28.0372 8.6628 28.1077 8.21689 28.2164 7.61434C28.3236 7.00898 28.4266 6.54049 28.5226 6.20747L30.1369 0H32.358L33.9723 6.20747C34.0429 6.48546 34.1318 6.9102 34.2376 7.48029C34.3434 8.05179 34.4253 8.54144 34.4803 8.95066C34.5297 8.55697 34.6116 8.06449 34.723 7.47606C34.8345 6.88903 34.9347 6.41208 35.0264 6.04801L36.4347 0H38.7475L35.9281 11.0814ZM30.1806 49.6216C25.8753 49.6216 23.1109 50.6447 22.3574 50.9608C22.3123 50.9805 22.277 50.917 22.3108 50.8832C27.0423 45.9641 32.581 46.2364 33.913 46.2364H49.6639C50.457 46.2364 51.1005 46.9942 51.1005 47.9297C51.1005 48.8639 50.457 49.6216 49.6639 49.6216H30.1806ZM33.7282 53.9749C29.0899 53.9749 27.738 51.339 20.7163 53.0789C20.6683 53.0916 20.6358 53.0252 20.6754 52.9984C24.5898 50.3117 28.8471 50.5558 30.5701 50.5558H49.6639C50.457 50.5558 51.1005 51.3136 51.1005 52.2491C51.1005 53.1833 50.457 53.941 49.6639 53.941C49.6639 53.941 37.4013 53.9749 33.7282 53.9749ZM34.0584 58.2605C29.2959 58.2605 28.9149 54.7468 21.8565 53.9552C21.8071 53.9509 21.8014 53.8775 21.8494 53.8648C27.6491 52.4156 29.8067 54.8752 33.192 54.8752H49.6639C50.457 54.8752 51.1005 55.633 51.1005 56.5671C51.1005 57.5027 50.457 58.2605 49.6639 58.2605H34.0584ZM33.024 45.3037C29.1915 45.3037 26.0136 46.9744 25.27 47.3963C25.229 47.4203 25.1867 47.3695 25.2135 47.3314C25.8358 46.417 29.1943 41.917 34.9657 41.917H49.6639C50.457 41.917 51.1005 42.6748 51.1005 43.6103C51.1005 44.5459 50.457 45.3037 49.6639 45.3037H33.024ZM54.1076 35.9551C53.9594 35.8041 53.7378 35.6954 53.4824 35.6658C53.2933 35.639 53.1226 35.6686 52.9716 35.7265C53.0379 35.5868 53.093 35.4372 53.1155 35.2608C53.1522 34.987 53.1 34.7316 52.997 34.5369C52.5229 33.4983 53.8789 31.4212 53.7082 31.3266C53.5445 31.2377 52.774 33.528 52.0262 34.4551C51.8822 34.623 51.7778 34.8671 51.7453 35.1437C51.7185 35.4174 51.7637 35.6771 51.8667 35.8676C51.9711 36.0552 52.1306 36.1865 52.3154 36.1978C52.3676 36.2048 52.4199 36.202 52.4678 36.1907C52.4565 36.2161 52.4453 36.2472 52.441 36.2726C52.4114 36.4758 52.489 36.6663 52.6414 36.8201C52.7896 36.9781 53.0083 37.0825 53.2637 37.1122C53.5262 37.146 53.7717 37.0938 53.9594 36.9823C54.9754 36.4264 57.078 35.8789 57.0342 35.6841C56.9933 35.4894 54.9415 36.6931 54.1076 35.9551ZM55.6598 34.4395C55.5187 34.2857 55.3197 34.1813 55.0855 34.1587C54.9514 34.1502 54.83 34.1728 54.7087 34.218C54.727 34.1545 54.7524 34.098 54.7595 34.0345C54.7863 33.7876 54.727 33.5576 54.6156 33.3812C54.1005 32.4259 55.4453 30.6225 55.2717 30.5322C55.0967 30.4419 54.3601 32.464 53.6123 33.2612C53.4641 33.4052 53.3597 33.614 53.3343 33.8624C53.3117 34.1093 53.3667 34.3422 53.4754 34.5185C53.5939 34.6907 53.7562 34.8149 53.9523 34.8403C54.0384 34.8473 54.1273 34.8332 54.2049 34.8106C54.2007 34.8219 54.1894 34.8375 54.1936 34.8473C54.1753 35.0576 54.2529 35.2608 54.3898 35.4104C54.5309 35.5599 54.7341 35.6658 54.9599 35.6841C55.1927 35.7067 55.4086 35.6432 55.5709 35.519C56.4458 34.8897 58.4453 34.5143 58.3931 34.3125C58.3451 34.1164 56.4303 35.1747 55.6598 34.4395ZM57.0187 33.0369C56.8748 32.9282 56.6786 32.869 56.4712 32.8915C56.371 32.8944 56.2779 32.9254 56.1932 32.9621C56.2073 32.9212 56.2341 32.8873 56.2482 32.8464C56.3033 32.6319 56.2849 32.4146 56.2143 32.2382C55.8898 31.3012 57.3334 29.9141 57.1923 29.8012C57.0526 29.6968 56.1156 31.376 55.3451 31.9687C55.1969 32.0773 55.0784 32.2495 55.0191 32.4668C54.9556 32.6771 54.9754 32.8986 55.0488 33.0707C55.1264 33.2471 55.252 33.3784 55.4227 33.4306C55.5525 33.4715 55.6824 33.4461 55.8037 33.3939C55.7783 33.4644 55.7642 33.5477 55.7713 33.6338C55.7896 33.8243 55.8827 33.9866 56.0337 34.098C56.1777 34.2109 56.3738 34.2674 56.5784 34.2519C56.7887 34.2293 56.9707 34.1404 57.0963 34.0049C57.7892 33.3036 59.515 32.6474 59.4444 32.4781C59.371 32.3102 57.8188 33.5576 57.0187 33.0369ZM59.6928 30.0256C59.5488 29.8125 58.3409 31.1361 57.4491 31.2631C57.2812 31.2857 57.0963 31.3689 56.9411 31.5143C56.7746 31.6653 56.6673 31.8487 56.6292 32.0237C56.5897 32.1973 56.6151 32.3666 56.7082 32.4823C56.807 32.6023 56.9594 32.6545 57.1302 32.6361C57.3009 32.6164 57.4787 32.5345 57.6452 32.3807C57.8004 32.234 57.9077 32.0519 57.9486 31.8784C58.2181 30.971 59.8 30.1653 59.6928 30.0256ZM34.7244 31.8177C34.6878 31.9503 34.4281 32.9692 34.4281 32.9692C34.3547 33.0115 34.0429 32.9437 33.961 32.9353C33.3655 32.8788 32.8335 32.3624 33.0621 31.7429C33.2484 31.2377 33.6322 31.1841 34.1177 31.1629C34.318 31.1531 34.6821 31.201 34.8627 31.3266C34.8627 31.3266 34.7908 31.5595 34.7244 31.8177ZM34.04 34.8967C34.0203 35.0138 34.002 35.1296 33.9836 35.2453C33.6139 35.0138 33.3952 34.4804 33.573 34.0599C33.7099 33.7424 34.0485 33.6578 34.2983 33.6437C34.2094 34.0599 34.1205 34.4762 34.04 34.8967ZM33.5066 38.7025C33.4601 38.9635 33.1073 38.9988 32.866 39.0708C32.1661 39.2796 31.5029 39.1907 31.2884 38.3539C31.0541 37.4579 31.7329 37.0825 32.4582 36.9061C32.8547 36.813 33.2216 36.892 33.4911 37.2251C33.5603 37.3083 33.6393 37.3831 33.6576 37.4621C33.6576 37.4621 33.5504 38.457 33.5066 38.7025ZM31.3025 34.297C31.8429 34.1658 32.4017 33.964 32.8166 34.496C33.2541 35.0534 33.1101 35.9508 32.406 36.1865C31.9431 36.3445 31.3843 36.4786 30.9878 36.1004C30.4699 35.6051 30.5066 34.4804 31.3025 34.297ZM30.7733 31.3944C31.3434 31.2561 31.9318 31.0458 32.3693 31.6046C32.8251 32.1902 32.6727 33.1343 31.9361 33.3812C31.4478 33.5435 30.858 33.686 30.4431 33.2881C29.8998 32.7702 29.9393 31.5891 30.7733 31.3944ZM30.2441 37.6681C30.096 38.1888 29.6656 38.2679 29.214 38.3765C28.9177 38.0125 28.1218 37.0938 28.1091 36.9852C28.1049 36.9485 28.1091 36.9076 28.1246 36.8582C28.1627 36.7495 28.2883 36.6437 28.3801 36.5844C28.651 36.408 29.2281 36.2768 29.54 36.3403C30.0988 36.4602 30.3923 37.1432 30.2441 37.6681ZM27.4149 34.987C27.007 33.5435 29.4285 32.9127 29.8025 34.3309C30.1877 35.7857 27.7436 36.4038 27.4149 34.987ZM27.0593 32.1041C26.6444 30.6676 29.0772 30.0369 29.4511 31.4466C29.8363 32.9057 27.388 33.5237 27.0593 32.1041ZM26.7178 29.2692C26.3212 27.9301 28.6073 27.3374 28.9558 28.6582C29.3142 30.0157 27.0296 30.5999 26.7178 29.2692ZM26.4849 34.7246C26.372 34.7909 26.3297 34.8262 26.293 34.8262L25.205 33.6437C25.2192 33.6112 25.555 33.3671 25.6665 33.3036C26.5696 32.8012 27.3147 34.2363 26.4849 34.7246ZM24.4219 32.0618C23.8842 30.8765 25.84 29.591 26.4327 30.8694C26.9774 32.0477 25.0216 33.3558 24.4219 32.0618ZM26.0658 28.3097C26.6853 29.4075 24.8212 30.6338 24.2878 29.4527C23.8151 28.4324 25.4703 27.2443 26.0658 28.3097ZM24.5037 25.7485C24.7775 25.5058 25.0964 25.3732 25.4224 25.5298C25.9445 25.7824 25.9586 26.5655 25.5028 26.8774C25.2954 27.0199 24.944 27.1949 24.6886 27.1314C24.1298 26.9889 24.0225 26.1732 24.5037 25.7485ZM24.5743 23.3934C24.8001 23.241 25.1006 23.1041 25.3589 23.2099C25.8302 23.4018 25.8146 24.0862 25.4336 24.36C25.2587 24.4842 24.944 24.638 24.7323 24.5815C24.2554 24.4616 24.1382 23.6883 24.5743 23.3934ZM25.8259 20.0377C26.1067 19.8853 26.5103 19.8233 26.7629 20.1055C27.0578 20.4371 26.9633 20.9409 26.5738 21.1398C26.2733 21.2908 25.8697 21.3458 25.6326 21.0679C25.3744 20.7687 25.4266 20.2536 25.8259 20.0377ZM25.603 22.5862C25.3772 21.7466 26.7926 21.3501 27.0212 22.2038C27.278 23.0335 25.8288 23.4456 25.603 22.5862ZM27.8848 24.0538C28.215 24.9611 26.6768 25.4747 26.3777 24.5787C26.0701 23.6714 27.6138 23.1535 27.8848 24.0538ZM28.0781 19.6328C28.3702 19.5142 28.7469 19.3886 29.0729 19.6328C29.4807 19.9376 29.3918 20.6219 28.9247 20.8364C28.6171 20.9747 28.2262 21.0679 27.9511 20.8251C27.6039 20.5133 27.5842 19.8303 28.0781 19.6328ZM27.8071 27.2259C27.3923 27.3219 26.9591 27.4884 26.6148 27.1314C26.1731 26.677 26.3001 25.8826 26.8956 25.6652C27.2808 25.5199 27.769 25.4367 28.0837 25.7598C28.4887 26.1718 28.4436 27.0721 27.8071 27.2259ZM27.8142 22.5904C27.5475 21.6916 29.0136 21.2301 29.2959 22.1036C29.5837 22.9997 28.0668 23.4752 27.8142 22.5904ZM30.2695 24.24C30.6139 25.2673 28.8768 25.8162 28.5579 24.8031C28.2361 23.7687 29.9845 23.2212 30.2695 24.24ZM30.3627 21.4884C30.6675 21.4065 30.992 21.4362 31.2249 21.6873C31.5805 22.0697 31.4591 22.7217 30.9328 22.8205C30.6844 22.8642 30.3034 22.8459 30.1101 22.6765C29.7615 22.3703 29.7785 21.645 30.3627 21.4884ZM31.8429 23.6445C32.4017 23.6445 32.684 24.4658 32.358 24.875C32.1619 25.122 31.7399 25.1375 31.4506 25.0923C30.9172 25.0091 30.5772 24.3233 30.9356 23.8576C31.1543 23.5768 31.5283 23.6445 31.8429 23.6445ZM29.159 27.027C28.8147 25.8459 30.8213 25.3167 31.1289 26.4907C31.4394 27.6831 29.4215 28.2081 29.159 27.027ZM30.3881 28.5383C30.9356 28.4818 31.5071 28.3534 31.8429 28.9277C32.1957 29.5345 31.9318 30.3784 31.222 30.5209C30.755 30.6182 30.1877 30.6634 29.8547 30.2514C29.4172 29.7038 29.5922 28.6131 30.3881 28.5383ZM33.175 25.9065C33.851 26.1859 34.0796 26.986 33.6026 27.432C33.3472 27.6648 32.8801 27.6182 32.5654 27.5547C31.9361 27.432 31.524 26.4851 32.0772 26.0364C32.3594 25.8064 32.8674 25.7795 33.175 25.9065ZM34.239 28.7556C34.6652 29.2763 34.5057 30.1991 33.7621 30.2443C33.3726 30.2655 32.866 30.2217 32.6035 29.9028C32.1802 29.392 32.3397 28.4367 33.0833 28.4099C33.4728 28.3957 33.9766 28.4367 34.239 28.7556ZM37.1163 19.3519C37.0754 19.2913 37.002 19.2574 36.9286 19.28C36.8397 19.3096 36.7804 19.4084 36.8129 19.4945C38.5133 24.0608 36.343 26.3101 35.4356 29.5091C34.3463 26.9098 37.9545 24.4658 36.0946 19.7301C36.0692 19.6709 36.0213 19.6215 35.9549 19.6102C35.8618 19.5989 35.7729 19.637 35.7574 19.7598C35.7094 20.0942 35.4907 22.7189 33.3613 24.2556C33.1426 23.7532 32.8208 23.2283 32.3693 22.8162C32.1731 21.9315 31.596 20.7165 30.381 20.3567C30.199 19.8995 29.8321 19.2419 29.1294 18.8905C28.4661 18.5603 27.6985 18.5899 26.8476 18.9766C25.8175 19.0965 25.1105 19.4973 24.7366 20.169C24.3852 20.8026 24.4473 21.4926 24.5658 21.9611C23.6994 22.8868 23.6585 24.2598 23.681 24.796C23.1674 26.0321 23.4553 27.4771 23.6175 28.0768C23.0037 29.7561 23.6034 31.3873 23.8447 31.9278C23.8447 32.0731 23.8518 32.2128 23.8588 32.3511C21.8452 30.1455 17.2605 27.4164 15.5078 26.375C15.426 26.3256 15.323 26.3369 15.2524 26.4047C15.1635 26.4865 15.1593 26.622 15.2411 26.7109C19.1485 30.5209 22.634 35.2227 25.9812 44.9791C27.6519 43.2434 30.6689 40.9603 34.9657 40.9603H39.9907C36.7988 29.066 41.447 24.8101 37.1163 19.3519ZM60.8739 25.5002C59.9552 25.2603 54.0892 24.2217 47.5162 36.3149C48.4758 31.8106 51.3897 26.3623 52.1898 24.7805V24.7692C52.2378 24.6789 52.2124 24.5632 52.1306 24.4997C52.0487 24.439 51.926 24.4588 51.8639 24.5477C47.519 31.7923 45.9936 35.9649 45.0947 40.9603H47.8154C48.2782 36.1456 54.3601 24.8031 60.84 25.6469H60.8485C60.8851 25.654 60.9176 25.6243 60.9218 25.5905C60.9374 25.5495 60.9105 25.5086 60.8739 25.5002ZM47.8055 65.34L46.3351 59.1932H43.8318C44.2269 60.7539 44.7942 62.34 45.528 63.7299C45.5745 63.8132 45.6634 63.8626 45.7523 63.847C45.8709 63.8315 45.964 63.7087 45.9428 63.5803C45.7721 62.2793 45.5689 61.0234 45.3756 59.7718C45.9047 61.7388 46.6202 63.6622 47.5825 65.4331C47.6079 65.4882 47.6644 65.515 47.7166 65.4966C47.7857 65.4811 47.8238 65.4077 47.8055 65.34ZM50.3342 62.5488C50.0788 61.5229 49.8121 60.2614 49.5821 59.1932H48.631C49.0007 60.3334 49.5017 61.6048 49.9462 62.6928C49.9899 62.7972 50.0901 62.8494 50.1861 62.824C50.3018 62.7887 50.3639 62.6659 50.3342 62.5488ZM50.6531 66.1641L50.6461 66.1486C50.337 65.2906 49.9123 64.5215 49.575 63.6975C49.2166 62.872 48.8681 62.062 48.5788 61.2153C48.3375 60.5817 48.0821 59.8536 47.8859 59.1932H46.9673C47.2269 59.9622 47.5642 60.7906 47.8789 61.5342C48.5717 63.2092 49.3718 64.8517 50.3907 66.3207C50.4259 66.3743 50.4979 66.3969 50.5642 66.3701C50.6461 66.3405 50.6828 66.2459 50.6531 66.1641ZM52.0262 36.6705C51.9556 36.5661 51.7863 36.5435 51.7044 36.6296C50.0351 38.392 49.0233 40.266 48.6748 40.9603H49.6682C50.1635 39.7933 51.2825 37.7345 52.0008 36.9922L52.0092 36.9852C52.0826 36.9033 52.0967 36.7636 52.0262 36.6705ZM44.4724 28.1403C45.3911 26.6333 46.7528 25.4776 47.9085 24.0834C47.9494 24.0298 47.9452 23.9479 47.8972 23.9028C47.8535 23.8548 47.7787 23.8548 47.7307 23.9C47.4682 24.1808 47.1931 24.4432 46.9123 24.7057C46.7895 24.645 46.4791 24.765 46.1644 25.0133C45.916 25.208 45.7382 25.4254 45.6761 25.5834C45.5153 25.5453 45.2161 25.733 44.9466 26.0787C44.7236 26.3666 44.5938 26.6714 44.598 26.8576C44.4273 26.8732 44.1789 27.0905 43.9687 27.4362C43.8318 27.6648 43.7429 27.8849 43.7133 28.0684C43.575 28.1629 43.4198 28.3393 43.2758 28.5679C43.0867 28.8826 42.9908 29.2015 43.0204 29.3849C42.9752 29.464 42.9315 29.5387 42.8948 29.6178C42.9019 29.5543 42.9089 29.4936 42.916 29.4301C43.1869 27.2965 43.5792 25.1812 44.1761 23.1422C44.7758 21.1102 45.4941 19.0584 46.7274 17.4131L46.7345 17.406C46.798 17.3157 46.7895 17.1915 46.7119 17.1097C46.6343 17.0236 46.5059 17.0194 46.424 17.1055C45.9979 17.5598 45.638 18.065 45.3163 18.5871C45.1752 18.5109 44.8788 18.7889 44.6531 19.2235C44.4456 19.6172 44.3723 19.9813 44.4499 20.1196C44.4499 20.1196 44.4456 20.1309 44.4386 20.1281C44.2904 20.0631 44.0166 20.3933 43.8501 20.8364C43.6864 21.2527 43.6568 21.6351 43.7683 21.7621C43.7612 21.7692 43.7612 21.7734 43.757 21.7805C43.5905 21.7212 43.3196 22.0994 43.153 22.6356C43.0162 23.09 43.0021 23.4837 43.1022 23.6417C43.1093 23.6474 43.1022 23.6671 43.0938 23.6629C42.9244 23.6036 42.6648 23.9931 42.5138 24.5265C42.3614 25.0387 42.3713 25.4931 42.5166 25.5834C42.3501 25.5637 42.1159 25.9545 41.9945 26.4823C41.883 26.9395 41.8943 27.3346 42.0016 27.4912C41.8379 27.5406 41.6573 27.923 41.5655 28.4169C41.4766 28.9009 41.5204 29.3031 41.6389 29.4301C41.4865 29.5091 41.3313 29.9028 41.2763 30.3896C41.2212 30.8737 41.2904 31.2716 41.4174 31.3986C41.2904 31.5411 41.169 31.8784 41.1168 32.2834C41.0646 32.67 41.0985 33.003 41.1718 33.1907C41.035 33.3078 40.9305 33.6973 40.9277 34.1658C40.9164 34.5411 40.9729 34.8586 41.0688 35.0435C40.994 35.2297 40.9432 35.5049 40.9432 35.8083C40.9348 36.202 40.9983 36.5393 41.0985 36.7156C41.0688 38.0985 41.0872 39.5731 41.162 40.9603H44.1493C44.1719 39.8793 44.2424 38.7025 44.3497 37.6343C44.5613 35.7293 44.876 33.7946 45.8271 32.1676L45.8356 32.1564C45.8652 32.0957 45.861 32.0279 45.8158 31.9757C45.7608 31.9278 45.6832 31.9278 45.631 31.987C44.3384 33.487 43.7725 35.5233 43.4381 37.4762C43.3788 37.8586 43.3308 38.2453 43.2871 38.6277C43.3675 37.06 43.5129 35.5007 43.8713 34.0162C44.2834 32.2086 45.1046 30.487 46.671 29.5246C46.7189 29.4936 46.7458 29.4301 46.7274 29.3666C46.7091 29.2946 46.6343 29.2537 46.5708 29.272C46.472 29.3031 46.3789 29.3553 46.2829 29.3962C46.1799 29.2692 45.7975 29.3624 45.4052 29.6135C45.0312 29.8577 44.7829 30.1568 44.8083 30.3219C44.8083 30.3304 44.7899 30.3417 44.7899 30.3261C44.7871 30.3078 44.7829 30.288 44.7716 30.2782C44.6305 30.161 44.2537 30.4235 43.9348 30.8694C43.6131 31.3167 43.4861 31.781 43.6244 31.9009C43.6314 31.9052 43.6272 31.9165 43.6201 31.9165C43.4536 31.8487 43.1756 32.2269 43.0021 32.7561C42.8751 33.1272 42.8454 33.4687 42.8906 33.6634C42.8906 33.6705 42.8835 33.6775 42.8835 33.6775C42.7537 34.1065 42.6465 34.5369 42.5463 34.9757C42.583 34.3563 42.638 33.734 42.7269 33.1201C42.9908 31.3492 43.5242 29.6178 44.4724 28.1403ZM53.8747 23.2057C53.6856 23.1154 53.4373 23.0928 53.1889 23.1535C53.0041 23.1986 52.8559 23.2889 52.7303 23.3934C52.7486 23.2353 52.7486 23.0787 52.7049 22.9065C52.6456 22.6356 52.5116 22.4141 52.3493 22.2715C51.5407 21.4658 52.0967 19.0401 51.9076 19.0105C51.7228 18.9836 51.7891 21.4023 51.4081 22.534C51.3305 22.7443 51.3149 23.011 51.3827 23.2805C51.449 23.5472 51.5816 23.7715 51.7482 23.9183C51.9076 24.0566 52.1009 24.1201 52.2816 24.0636C52.331 24.0566 52.3789 24.034 52.4199 24.0044C52.4199 24.034 52.4199 24.0636 52.4227 24.0947C52.4636 24.2922 52.6047 24.4475 52.7966 24.5364C52.9928 24.6309 53.2341 24.6535 53.4852 24.5886C53.7421 24.5293 53.9523 24.391 54.0892 24.2217C54.8484 23.3412 56.6335 22.0853 56.5262 21.9159C56.419 21.7508 54.9119 23.6036 53.8747 23.2057ZM57.3263 20.1492C57.212 19.9855 55.7811 21.6535 54.8075 21.2372C54.6226 21.1441 54.3968 21.1172 54.1711 21.1765C54.0455 21.2146 53.9382 21.2823 53.838 21.3642C53.8338 21.2965 53.838 21.2372 53.8225 21.1765C53.7632 20.9338 53.6306 20.7419 53.4641 20.6149C52.6485 19.9023 53.2891 17.7362 53.0972 17.7122C52.901 17.6897 52.9039 19.8458 52.4819 20.859C52.393 21.0467 52.3676 21.2781 52.4297 21.518C52.489 21.7593 52.6231 21.9569 52.7896 22.0853C52.9561 22.2038 53.1522 22.2617 53.3455 22.2165C53.4302 22.1939 53.505 22.1488 53.5713 22.0994C53.5713 22.1107 53.5671 22.1262 53.5713 22.1375C53.6306 22.3435 53.7717 22.5044 53.9523 22.5989C54.1372 22.685 54.363 22.7146 54.5817 22.6511C54.8075 22.5904 54.9853 22.4522 55.0967 22.2842C55.7007 21.3797 57.4406 20.3228 57.3263 20.1492ZM57.6777 18.0608C57.5521 17.931 56.5262 19.6469 55.5963 19.4408C55.4227 19.3929 55.2181 19.4042 55.0347 19.4973C54.9415 19.5354 54.8625 19.5989 54.7976 19.6624C54.7976 19.6215 54.8075 19.5805 54.8075 19.5354C54.7863 19.3181 54.6974 19.1149 54.5676 18.9794C53.941 18.2146 54.8117 16.4041 54.6452 16.3477C54.4744 16.2983 54.1781 18.2047 53.6602 19.033C53.5558 19.1897 53.505 19.3929 53.5262 19.6144C53.5417 19.8345 53.6334 20.0335 53.7632 20.1732C53.8973 20.3115 54.0596 20.3863 54.2374 20.375C54.3714 20.3708 54.4857 20.3002 54.5817 20.2057C54.5817 20.2819 54.5972 20.3637 54.6339 20.4427C54.7143 20.6149 54.8597 20.7348 55.0375 20.7842C55.2125 20.8407 55.4199 20.8251 55.6033 20.7348C55.7924 20.6417 55.9293 20.4907 56.0041 20.3228C56.4119 19.4183 57.8004 18.1934 57.6777 18.0608ZM57.0638 15.6774C56.8522 15.5264 56.1819 17.1958 55.386 17.6304C55.2379 17.7094 55.0967 17.8519 54.9966 18.0467C54.8964 18.2456 54.8597 18.4545 54.8865 18.6309C54.9048 18.8073 54.9853 18.9583 55.1151 19.033C55.2477 19.1121 55.4086 19.1078 55.5596 19.0288C55.7148 18.9498 55.8517 18.8073 55.9561 18.6097C56.0521 18.4136 56.0888 18.2047 56.0676 18.0283C56.0083 17.0829 57.212 15.7706 57.0638 15.6774ZM42.4461 59.1932H34.0584C33.4883 59.1932 32.9732 59.148 32.4991 59.0634C32.5019 59.0634 32.5019 59.0662 32.5019 59.0662C33.8806 61.1137 36.0396 62.6659 38.2282 63.7088C38.5655 65.5756 38.9874 67.3028 39.1384 67.4383C39.2951 67.5738 41.4428 66.9543 41.5091 66.7567C41.5726 66.5578 40.6314 63.3602 40.6314 63.3602C41.7603 61.4213 42.1088 60.2769 42.4461 59.1932ZM63.5479 73.5428C61.4298 74.3795 58.6669 74.4501 56.4119 73.8504C51.2458 72.2417 45.5096 69.1937 40.002 71.7239C34.4944 69.1937 28.7582 72.2417 23.5921 73.8504C21.3372 74.4501 18.5742 74.3795 16.4561 73.5428C16.3968 73.5216 16.3517 73.595 16.4039 73.6373C19.4519 75.9953 23.722 77.079 27.5658 75.6919C31.2573 74.5404 34.3801 70.6302 38.7532 72.2982C35.2917 73.6514 32.0546 76.1491 29.5541 78.507L31.373 80C33.6435 77.3556 36.1991 74.7126 39.0904 73.1053C39.487 72.8725 39.724 72.7779 40.002 72.7638C40.28 72.7779 40.5157 72.8725 40.9094 73.1053C43.805 74.7126 46.3605 77.3556 48.631 80L50.4499 78.507C47.9494 76.1491 44.7123 73.6514 41.2509 72.2982C45.6239 70.6302 48.7453 74.5404 52.4382 75.6919C56.2821 77.079 60.5521 75.9953 63.5987 73.6373C63.6481 73.595 63.6072 73.5216 63.5479 73.5428ZM29.4991 69.9811C24.1001 68.6716 22.6227 63.61 18.1085 61.4143C18.0591 61.3875 18.0083 61.4439 18.038 61.4877C19.4604 63.8287 20.2309 67.4129 24.3287 69.6213C24.3626 69.6396 24.3443 69.6933 24.3076 69.6806C18.426 68.5489 15.9566 70.1222 9.79423 67.3381C9.74202 67.3141 9.68557 67.3706 9.71944 67.42C11.7458 70.3593 16.5521 72.3687 23.1378 71.8156C25.507 71.6124 27.2258 70.6147 29.4991 70.0827C29.5541 70.0672 29.5541 69.9924 29.4991 69.9811ZM18.189 66.8767C16.1372 64.1871 16.7228 58.4481 12.0901 53.1946C12.0534 53.1537 11.9857 53.1875 11.997 53.2397C12.8818 57.109 12.6193 61.5032 15.0408 64.7233C15.0633 64.7586 15.0295 64.7911 14.997 64.7699C10.219 61.0093 5.3097 59.8762 3.12388 56.8324C3.09142 56.7901 3.02369 56.8127 3.03216 56.8649C3.57261 60.8061 11.1418 66.9472 18.148 66.9585C18.189 66.9585 18.2158 66.9106 18.189 66.8767ZM11.0163 59.7294C8.81633 55.6513 11.4452 49.4269 8.94897 43.3775C8.92357 43.314 8.82762 43.3295 8.82762 43.3972C8.75283 46.7006 6.70106 51.6311 7.94143 55.355C7.95696 55.3874 7.91321 55.4072 7.89346 55.3762C4.73537 50.7618 2.22782 49.7966 0.139366 45.5718C0.109733 45.5083 0.0137767 45.5266 0.00954335 45.5943C-0.123102 48.4659 1.1469 50.8056 2.57919 52.9801C4.87225 55.9237 7.82431 58.252 10.9457 59.8042C10.9937 59.8282 11.0374 59.7774 11.0163 59.7294ZM9.5233 34.8854C9.52047 34.8177 9.43157 34.7951 9.39771 34.8558C7.71989 37.9941 4.73114 40.4904 4.63518 44.6348C4.63095 44.6757 4.58721 44.6785 4.58015 44.6418C4.03546 41.4429 1.32047 37.8586 1.20194 33.2288C1.20194 33.1568 1.10175 33.1385 1.07635 33.2062C-1.15745 39.2274 2.05425 44.9382 5.47198 49.6555C5.50867 49.7035 5.58346 49.6739 5.58346 49.6089C5.44235 44.6108 9.77589 40.8812 9.5233 34.8854ZM11.6569 27.0933C10.0708 29.2946 6.50492 30.8511 5.20245 34.0261C5.1827 34.0726 5.12767 34.0599 5.13472 34.0077C5.6526 30.4503 4.27958 26.3186 5.56793 21.59C5.58769 21.5222 5.50161 21.4771 5.46069 21.5293C3.51335 23.9254 2.85436 26.7335 2.7457 29.7673C2.61306 33.4941 3.92398 36.2133 4.57168 38.7406C4.58721 38.7999 4.66482 38.7956 4.67893 38.7364C5.61309 35.4217 10.2966 33.4278 11.7641 27.1469C11.7825 27.0792 11.6978 27.0383 11.6569 27.0933ZM15.9566 19.692C13.3488 21.7353 9.36807 23.7038 8.51294 25.1262C8.49741 25.1558 8.45367 25.1333 8.46072 25.1036L9.42734 20.4653C9.86055 18.4968 10.2345 16.6102 11.3225 14.8477C11.3563 14.7955 11.2928 14.7362 11.2449 14.7729C6.28337 18.7028 7.00869 24.3868 6.78996 29.0406C6.78714 29.0886 6.84641 29.1112 6.87886 29.0773C9.80129 25.9094 14.5638 24.0636 16.037 19.7569C16.0554 19.7047 16.0003 19.6582 15.9566 19.692ZM19.6481 12.5687C15.2637 12.707 12.0421 16.3999 10.6607 21.1017C10.6522 21.1285 10.6903 21.1511 10.7115 21.1356C16.7525 16.7075 16.4152 14.811 19.6848 12.7042C19.744 12.6661 19.7186 12.5687 19.6481 12.5687ZM70.207 67.3381C64.0475 70.1222 61.5738 68.5489 55.6922 69.6806C55.6555 69.6933 55.6372 69.6396 55.6711 69.6213C59.7704 67.4129 60.5408 63.8287 61.9632 61.4877C61.9929 61.4439 61.9407 61.3875 61.8927 61.4143C57.3813 63.61 55.9039 68.6716 50.5007 69.9811C50.4457 69.9924 50.4457 70.0672 50.5007 70.0827C52.774 70.6147 54.4928 71.6124 56.8635 71.8156C63.4477 72.3687 68.2582 70.3593 70.2804 67.42C70.3142 67.3706 70.2578 67.3141 70.207 67.3381ZM76.8759 56.8324C74.6915 59.8762 69.7808 61.0093 65.0042 64.7699C64.9746 64.7911 64.9365 64.7586 64.9633 64.7233C67.3805 61.5032 67.118 57.109 68.0028 53.2397C68.0141 53.1875 67.9464 53.1537 67.9111 53.1946C63.2812 58.4481 63.8626 64.1871 61.8151 66.8767C61.7883 66.9106 61.8108 66.9585 61.856 66.9585C68.8622 66.9472 76.4286 60.8061 76.9691 56.8649C76.9761 56.8127 76.9098 56.7901 76.8759 56.8324ZM79.9903 45.5943C79.9874 45.5266 79.8901 45.5083 79.8604 45.5718C77.772 49.7966 75.2644 50.7618 72.1106 55.3762C72.088 55.4072 72.0471 55.3874 72.0584 55.355C73.2988 51.6311 71.2512 46.7006 71.1736 43.3972C71.1736 43.3295 71.0762 43.314 71.0508 43.3775C68.5546 49.4269 71.1835 55.6513 68.9878 59.7294C68.9624 59.7774 69.0061 59.8282 69.0555 59.8042C72.1769 58.252 75.1276 55.9237 77.4206 52.9801C78.8529 50.8056 80.1243 48.4659 79.9903 45.5943ZM78.9235 33.2062C78.8981 33.1385 78.7979 33.1568 78.7979 33.2288C78.6793 37.8586 75.9658 41.4429 75.4211 44.6418C75.4126 44.6785 75.3689 44.6757 75.3689 44.6348C75.2729 40.4904 72.2799 37.9941 70.6021 34.8558C70.5696 34.7951 70.4807 34.8177 70.4807 34.8854C70.2281 40.8812 74.5589 44.6108 74.4164 49.6089C74.4164 49.6739 74.4954 49.7035 74.5321 49.6555C77.9456 44.9382 81.1573 39.2274 78.9235 33.2062ZM77.2541 29.7673C77.1455 26.7335 76.4879 23.9254 74.5391 21.5293C74.4996 21.4771 74.4164 21.5222 74.4319 21.59C75.7202 26.3186 74.3472 30.4503 74.8693 34.0077C74.8764 34.0599 74.8171 34.0726 74.7988 34.0261C73.4949 30.8511 69.929 29.2946 68.3443 27.0933C68.3062 27.0383 68.2215 27.0792 68.2371 27.1469C69.7032 33.4278 74.3867 35.4217 75.3209 38.7364C75.335 38.7956 75.4126 38.7999 75.4281 38.7406C76.0758 36.2133 77.3868 33.4941 77.2541 29.7673ZM68.755 14.7729C68.707 14.7362 68.6435 14.7955 68.6773 14.8477C69.7653 16.6102 70.1393 18.4968 70.5725 20.4653L71.5391 25.1036C71.5475 25.1333 71.5024 25.1558 71.4883 25.1262C70.6317 23.7038 66.6552 21.7353 64.0446 19.692C64.0037 19.6582 63.9445 19.7047 63.9628 19.7569C65.436 24.0636 70.1985 25.9094 73.1209 29.0773C73.1534 29.1112 73.2127 29.0886 73.2099 29.0406C72.9911 24.3868 73.7164 18.7028 68.755 14.7729ZM60.3517 12.5687C60.2812 12.5687 60.2586 12.6661 60.3151 12.7042C63.5846 14.811 63.2474 16.7075 69.2884 21.1356C69.3138 21.1511 69.3476 21.1285 69.3391 21.1017C67.9591 16.3999 64.7375 12.707 60.3517 12.5687Z"
      fill="#007DBC" />
  </g>
  <defs>
    <clipPath id="clip0_195_1605">
      <rect width="80" height="121" fill="white" />
    </clipPath>
  </defs>
</svg>