<svg width="70" height="24" viewBox="0 0 70 24" fill="none" xmlns="http://www.w3.org/2000/svg">
  <g clip-path="url(#clip0_195_1416)">
    <path fill-rule="evenodd" clip-rule="evenodd"
      d="M58.0258 11.2964H59.7039C61.2716 11.2964 62.4455 10.9868 63.2257 10.3665C64.0034 9.74855 64.3935 8.84797 64.3935 7.66718C64.3935 6.47415 64.0659 5.59437 63.4146 5.02539C62.7608 4.45641 61.7389 4.16886 60.3454 4.16886H58.0258V11.2964ZM69.5443 7.48608C69.5443 10.0691 68.7347 12.0453 67.1167 13.4108C65.4987 14.7813 63.1975 15.4641 60.2142 15.4641H58.0258V24H52.924V0H60.6079C63.5262 0 65.744 0.626491 67.2639 1.88192C68.785 3.1349 69.5443 5.00214 69.5443 7.48608ZM40.7075 24H35.6903V0H49.4795V4.16886H40.7075V10.3604H48.871V14.5133H40.7075V24ZM26.462 24H20.6524L17.3944 11.3931C17.2729 10.944 17.0681 10.0177 16.7773 8.61058C16.4866 7.20343 16.3186 6.26002 16.2756 5.78036C16.2094 6.37137 16.045 7.32089 15.7825 8.62771C15.6 9.56529 15.3967 10.4987 15.1728 11.4273L11.9307 24H6.13955L0 0H5.01959L8.09733 13.1C8.63462 15.5191 9.02348 17.6152 9.26513 19.3882C9.33137 18.7641 9.48103 17.7975 9.71778 16.4919C9.9533 15.1826 10.1753 14.1658 10.3851 13.4463L13.8885 0H18.7106L22.2164 13.4463C22.3698 14.0471 22.5624 14.9673 22.793 16.2031C23.0224 17.4402 23.1978 18.5011 23.3192 19.3882C23.4272 18.5329 23.6038 17.4696 23.8443 16.1946C24.0362 15.1573 24.2563 14.1254 24.5042 13.1L27.5636 0H32.5831L26.462 24Z"
      fill="#007DBC" />
  </g>
  <defs>
    <clipPath id="clip0_195_1416">
      <rect width="70" height="24" fill="white" />
    </clipPath>
  </defs>
</svg>