<svg width="80" height="80" viewBox="0 0 80 80" fill="none" xmlns="http://www.w3.org/2000/svg">
  <path
    d="M50.464 5.21405H51.2373C51.9598 5.21405 52.5003 5.07153 52.8601 4.78648C53.2171 4.50144 53.3978 4.08516 53.3978 3.53906C53.3978 2.98873 53.2468 2.58233 52.9462 2.31986C52.6456 2.0574 52.1743 1.92475 51.5337 1.92475H50.464V5.21405ZM55.7698 3.45581C55.7698 4.64819 55.3973 5.56118 54.6522 6.19195C53.9058 6.82412 52.8474 7.14021 51.473 7.14021H50.464V11.0814H48.1145V0H51.6536C52.9984 0 54.0201 0.289277 54.72 0.867832C55.4199 1.4478 55.7698 2.30857 55.7698 3.45581ZM42.3134 11.0814H40.002V0H46.3535V1.92475H42.3134V4.78366H46.0726V6.69994H42.3134V11.0814ZM35.9281 11.0814H33.2526L31.7526 5.2592C31.6962 5.05318 31.6016 4.6242 31.4676 3.97509C31.3335 3.32598 31.2559 2.88995 31.2362 2.66841C31.2051 2.94216 31.1303 3.37961 31.009 3.98356C30.8876 4.5861 30.7931 5.0179 30.7282 5.27473L29.2352 11.0814H26.5682L23.7403 0H26.0517L27.4699 6.04801C27.7168 7.1642 27.896 8.13222 28.0075 8.95066C28.0372 8.6628 28.1077 8.21689 28.2164 7.61434C28.3236 7.00898 28.4266 6.54049 28.5226 6.20747L30.1369 0H32.358L33.9723 6.20747C34.0429 6.48546 34.1318 6.9102 34.2376 7.48029C34.3434 8.05179 34.4253 8.54144 34.4803 8.95066C34.5297 8.55697 34.6116 8.06449 34.723 7.47606C34.8345 6.88903 34.9347 6.41208 35.0264 6.04801L36.4347 0H38.7475L35.9281 11.0814ZM30.1806 49.6216C25.8753 49.6216 23.1109 50.6447 22.3574 50.9608C22.3123 50.9805 22.277 50.917 22.3108 50.8832C27.0423 45.9641 32.581 46.2364 33.913 46.2364H49.6639C50.457 46.2364 51.1005 46.9942 51.1005 47.9297C51.1005 48.8639 50.457 49.6216 49.6639 49.6216H30.1806ZM33.7282 53.9749C29.0899 53.9749 27.738 51.339 20.7163 53.0789C20.6683 53.0916 20.6358 53.0252 20.6754 52.9984C24.5898 50.3117 28.8471 50.5558 30.5701 50.5558H49.6639C50.457 50.5558 51.1005 51.3136 51.1005 52.2491C51.1005 53.1833 50.457 53.941 49.6639 53.941C49.6639 53.941 37.4013 53.9749 33.7282 53.9749ZM34.0584 58.2605C29.2959 58.2605 28.9149 54.7468 21.8565 53.9552C21.8071 53.9509 21.8014 53.8775 21.8494 53.8648C27.6491 52.4156 29.8067 54.8752 33.192 54.8752H49.6639C50.457 54.8752 51.1005 55.633 51.1005 56.5671C51.1005 57.5027 50.457 58.2605 49.6639 58.2605H34.0584ZM33.024 45.3037C29.1915 45.3037 26.0136 46.9744 25.27 47.3963C25.229 47.4203 25.1867 47.3695 25.2135 47.3314C25.8358 46.417 29.1943 41.917 34.9657 41.917H49.6639C50.457 41.917 51.1005 42.6748 51.1005 43.6103C51.1005 44.5459 50.457 45.3037 49.6639 45.3037H33.024ZM54.1076 35.9551C53.9594 35.8041 53.7378 35.6954 53.4824 35.6658C53.2933 35.639 53.1226 35.6686 52.9716 35.7265C53.0379 35.5868 53.093 35.4372 53.1155 35.2608C53.1522 34.987 53.1 34.7316 52.997 34.5369C52.5229 33.4983 53.8789 31.4212 53.7082 31.3266C53.5445 31.2377 52.774 33.528 52.0262 34.4551C51.8822 34.623 51.7778 34.8671 51.7453 35.1437C51.7185 35.4174 51.7637 35.6771 51.8667 35.8676C51.9711 36.0552 52.1306 36.1865 52.3154 36.1978C52.3676 36.2048 52.4199 36.202 52.4678 36.1907C52.4565 36.2161 52.4453 36.2472 52.441 36.2726C52.4114 36.4758 52.489 36.6663 52.6414 36.8201C52.7896 36.9781 53.0083 37.0825 53.2637 37.1122C53.5262 37.146 53.7717 37.0938 53.9594 36.9823C54.9754 36.4264 57.078 35.8789 57.0342 35.6841C56.9933 35.4894 54.9415 36.6931 54.1076 35.9551ZM55.6598 34.4395C55.5187 34.2857 55.3197 34.1813 55.0855 34.1587C54.9514 34.1502 54.83 34.1728 54.7087 34.218C54.727 34.1545 54.7524 34.098 54.7595 34.0345C54.7863 33.7876 54.727 33.5576 54.6156 33.3812C54.1005 32.4259 55.4453 30.6225 55.2717 30.5322C55.0967 30.4419 54.3601 32.464 53.6123 33.2612C53.4641 33.4052 53.3597 33.614 53.3343 33.8624C53.3117 34.1093 53.3667 34.3422 53.4754 34.5185C53.5939 34.6907 53.7562 34.8149 53.9523 34.8403C54.0384 34.8473 54.1273 34.8332 54.2049 34.8106C54.2007 34.8219 54.1894 34.8375 54.1936 34.8473C54.1753 35.0576 54.2529 35.2608 54.3898 35.4104C54.5309 35.5599 54.7341 35.6658 54.9599 35.6841C55.1927 35.7067 55.4086 35.6432 55.5709 35.519C56.4458 34.8897 58.4453 34.5143 58.3931 34.3125C58.3451 34.1164 56.4303 35.1747 55.6598 34.4395ZM57.0187 33.0369C56.8748 32.9282 56.6786 32.869 56.4712 32.8915C56.371 32.8944 56.2779 32.9254 56.1932 32.9621C56.2073 32.9212 56.2341 32.8873 56.2482 32.8464C56.3033 32.6319 56.2849 32.4146 56.2143 32.2382C55.8898 31.3012 57.3334 29.9141 57.1923 29.8012C57.0526 29.6968 56.1156 31.376 55.3451 31.9687C55.1969 32.0773 55.0784 32.2495 55.0191 32.4668C54.9556 32.6771 54.9754 32.8986 55.0488 33.0707C55.1264 33.2471 55.252 33.3784 55.4227 33.4306C55.5525 33.4715 55.6824 33.4461 55.8037 33.3939C55.7783 33.4644 55.7642 33.5477 55.7713 33.6338C55.7896 33.8243 55.8827 33.9866 56.0337 34.098C56.1777 34.2109 56.3738 34.2674 56.5784 34.2519C56.7887 34.2293 56.9707 34.1404 57.0963 34.0049C57.7892 33.3036 59.515 32.6474 59.4444 32.4781C59.371 32.3102 57.8188 33.5576 57.0187 33.0369ZM59.6928 30.0256C59.5488 29.8125 58.3409 31.1361 57.4491 31.2631C57.2812 31.2857 57.0963 31.3689 56.9411 31.5143C56.7746 31.6653 56.6673 31.8487 56.6292 32.0237C56.5897 32.1973 56.6151 32.3666 56.7082 32.4823C56.807 32.6023 56.9594 32.6545 57.1302 32.6361C57.3009 32.6164 57.4787 32.5345 57.6452 32.3807C57.8004 32.234 57.9077 32.0519 57.9486 31.8784C58.2181 30.971 59.8 30.1653 59.6928 30.0256ZM34.7244 31.8177C34.6878 31.9503 34.4281 32.9692 34.4281 32.9692C34.3547 33.0115 34.0429 32.9437 33.961 32.9353C33.3655 32.8788 32.8335 32.3624 33.0621 31.7429C33.2484 31.2377 33.6322 31.1841 34.1177 31.1629C34.318 31.1531 34.6821 31.201 34.8627 31.3266C34.8627 31.3266 34.7908 31.5595 34.7244 31.8177ZM34.04 34.8967C34.0203 35.0138 34.002 35.1296 33.9836 35.2453C33.6139 35.0138 33.3952 34.4804 33.573 34.0599C33.7099 33.7424 34.0485 33.6578 34.2983 33.6437C34.2094 34.0599 34.1205 34.4762 34.04 34.8967ZM33.5066 38.7025C33.4601 38.9635 33.1073 38.9988 32.866 39.0708C32.1661 39.2796 31.5029 39.1907 31.2884 38.3539C31.0541 37.4579 31.7329 37.0825 32.4582 36.9061C32.8547 36.813 33.2216 36.892 33.4911 37.2251C33.5603 37.3083 33.6393 37.3831 33.6576 37.4621C33.6576 37.4621 33.5504 38.457 33.5066 38.7025ZM31.3025 34.297C31.8429 34.1658 32.4017 33.964 32.8166 34.496C33.2541 35.0534 33.1101 35.9508 32.406 36.1865C31.9431 36.3445 31.3843 36.4786 30.9878 36.1004C30.4699 35.6051 30.5066 34.4804 31.3025 34.297ZM30.7733 31.3944C31.3434 31.2561 31.9318 31.0458 32.3693 31.6046C32.8251 32.1902 32.6727 33.1343 31.9361 33.3812C31.4478 33.5435 30.858 33.686 30.4431 33.2881C29.8998 32.7702 29.9393 31.5891 30.7733 31.3944ZM30.2441 37.6681C30.096 38.1888 29.6656 38.2679 29.214 38.3765C28.9177 38.0125 28.1218 37.0938 28.1091 36.9852C28.1049 36.9485 28.1091 36.9076 28.1246 36.8582C28.1627 36.7495 28.2883 36.6437 28.3801 36.5844C28.651 36.408 29.2281 36.2768 29.54 36.3403C30.0988 36.4602 30.3923 37.1432 30.2441 37.6681ZM27.4149 34.987C27.007 33.5435 29.4285 32.9127 29.8025 34.3309C30.1877 35.7857 27.7436 36.4038 27.4149 34.987ZM27.0593 32.1041C26.6444 30.6676 29.0772 30.0369 29.4511 31.4466C29.8363 32.9057 27.388 33.5237 27.0593 32.1041ZM26.7178 29.2692C26.3212 27.9301 28.6073 27.3374 28.9558 28.6582C29.3142 30.0157 27.0296 30.5999 26.7178 29.2692ZM26.4849 34.7246C26.372 34.7909 26.3297 34.8262 26.293 34.8262L25.205 33.6437C25.2192 33.6112 25.555 33.3671 25.6665 33.3036C26.5696 32.8012 27.3147 34.2363 26.4849 34.7246ZM24.4219 32.0618C23.8842 30.8765 25.84 29.591 26.4327 30.8694C26.9774 32.0477 25.0216 33.3558 24.4219 32.0618ZM26.0658 28.3097C26.6853 29.4075 24.8212 30.6338 24.2878 29.4527C23.8151 28.4324 25.4703 27.2443 26.0658 28.3097ZM24.5037 25.7485C24.7775 25.5058 25.0964 25.3732 25.4224 25.5298C25.9445 25.7824 25.9586 26.5655 25.5028 26.8774C25.2954 27.0199 24.944 27.1949 24.6886 27.1314C24.1298 26.9889 24.0225 26.1732 24.5037 25.7485ZM24.5743 23.3934C24.8001 23.241 25.1006 23.1041 25.3589 23.2099C25.8302 23.4018 25.8146 24.0862 25.4336 24.36C25.2587 24.4842 24.944 24.638 24.7323 24.5815C24.2554 24.4616 24.1382 23.6883 24.5743 23.3934ZM25.8259 20.0377C26.1067 19.8853 26.5103 19.8233 26.7629 20.1055C27.0578 20.4371 26.9633 20.9409 26.5738 21.1398C26.2733 21.2908 25.8697 21.3458 25.6326 21.0679C25.3744 20.7687 25.4266 20.2536 25.8259 20.0377ZM25.603 22.5862C25.3772 21.7466 26.7926 21.3501 27.0212 22.2038C27.278 23.0335 25.8288 23.4456 25.603 22.5862ZM27.8848 24.0538C28.215 24.9611 26.6768 25.4747 26.3777 24.5787C26.0701 23.6714 27.6138 23.1535 27.8848 24.0538ZM28.0781 19.6328C28.3702 19.5142 28.7469 19.3886 29.0729 19.6328C29.4807 19.9376 29.3918 20.6219 28.9247 20.8364C28.6171 20.9747 28.2262 21.0679 27.9511 20.8251C27.6039 20.5133 27.5842 19.8303 28.0781 19.6328ZM27.8071 27.2259C27.3923 27.3219 26.9591 27.4884 26.6148 27.1314C26.1731 26.677 26.3001 25.8826 26.8956 25.6652C27.2808 25.5199 27.769 25.4367 28.0837 25.7598C28.4887 26.1718 28.4436 27.0721 27.8071 27.2259ZM27.8142 22.5904C27.5475 21.6916 29.0136 21.2301 29.2959 22.1036C29.5837 22.9997 28.0668 23.4752 27.8142 22.5904ZM30.2695 24.24C30.6139 25.2673 28.8768 25.8162 28.5579 24.8031C28.2361 23.7687 29.9845 23.2212 30.2695 24.24ZM30.3627 21.4884C30.6675 21.4065 30.992 21.4362 31.2249 21.6873C31.5805 22.0697 31.4591 22.7217 30.9328 22.8205C30.6844 22.8642 30.3034 22.8459 30.1101 22.6765C29.7615 22.3703 29.7785 21.645 30.3627 21.4884ZM31.8429 23.6445C32.4017 23.6445 32.684 24.4658 32.358 24.875C32.1619 25.122 31.7399 25.1375 31.4506 25.0923C30.9172 25.0091 30.5772 24.3233 30.9356 23.8576C31.1543 23.5768 31.5283 23.6445 31.8429 23.6445ZM29.159 27.027C28.8147 25.8459 30.8213 25.3167 31.1289 26.4907C31.4394 27.6831 29.4215 28.2081 29.159 27.027ZM30.3881 28.5383C30.9356 28.4818 31.5071 28.3534 31.8429 28.9277C32.1957 29.5345 31.9318 30.3784 31.222 30.5209C30.755 30.6182 30.1877 30.6634 29.8547 30.2514C29.4172 29.7038 29.5922 28.6131 30.3881 28.5383ZM33.175 25.9065C33.851 26.1859 34.0796 26.986 33.6026 27.432C33.3472 27.6648 32.8801 27.6182 32.5654 27.5547C31.9361 27.432 31.524 26.4851 32.0772 26.0364C32.3594 25.8064 32.8674 25.7795 33.175 25.9065ZM34.239 28.7556C34.6652 29.2763 34.5057 30.1991 33.7621 30.2443C33.3726 30.2655 32.866 30.2217 32.6035 29.9028C32.1802 29.392 32.3397 28.4367 33.0833 28.4099C33.4728 28.3957 33.9766 28.4367 34.239 28.7556ZM37.1163 19.3519C37.0754 19.2913 37.002 19.2574 36.9286 19.28C36.8397 19.3096 36.7804 19.4084 36.8129 19.4945C38.5133 24.0608 36.343 26.3101 35.4356 29.5091C34.3463 26.9098 37.9545 24.4658 36.0946 19.7301C36.0692 19.6709 36.0213 19.6215 35.9549 19.6102C35.8618 19.5989 35.7729 19.637 35.7574 19.7598C35.7094 20.0942 35.4907 22.7189 33.3613 24.2556C33.1426 23.7532 32.8208 23.2283 32.3693 22.8162C32.1731 21.9315 31.596 20.7165 30.381 20.3567C30.199 19.8995 29.8321 19.2419 29.1294 18.8905C28.4661 18.5603 27.6985 18.5899 26.8476 18.9766C25.8175 19.0965 25.1105 19.4973 24.7366 20.169C24.3852 20.8026 24.4473 21.4926 24.5658 21.9611C23.6994 22.8868 23.6585 24.2598 23.681 24.796C23.1674 26.0321 23.4553 27.4771 23.6175 28.0768C23.0037 29.7561 23.6034 31.3873 23.8447 31.9278C23.8447 32.0731 23.8518 32.2128 23.8588 32.3511C21.8452 30.1455 17.2605 27.4164 15.5078 26.375C15.426 26.3256 15.323 26.3369 15.2524 26.4047C15.1635 26.4865 15.1593 26.622 15.2411 26.7109C19.1485 30.5209 22.634 35.2227 25.9812 44.9791C27.6519 43.2434 30.6689 40.9603 34.9657 40.9603H39.9907C36.7988 29.066 41.447 24.8101 37.1163 19.3519ZM60.8739 25.5002C59.9552 25.2603 54.0892 24.2217 47.5162 36.3149C48.4758 31.8106 51.3897 26.3623 52.1898 24.7805V24.7692C52.2378 24.6789 52.2124 24.5632 52.1306 24.4997C52.0487 24.439 51.926 24.4588 51.8639 24.5477C47.519 31.7923 45.9936 35.9649 45.0947 40.9603H47.8154C48.2782 36.1456 54.3601 24.8031 60.84 25.6469H60.8485C60.8851 25.654 60.9176 25.6243 60.9218 25.5905C60.9374 25.5495 60.9105 25.5086 60.8739 25.5002ZM47.8055 65.34L46.3351 59.1932H43.8318C44.2269 60.7539 44.7942 62.34 45.528 63.7299C45.5745 63.8132 45.6634 63.8626 45.7523 63.847C45.8709 63.8315 45.964 63.7087 45.9428 63.5803C45.7721 62.2793 45.5689 61.0234 45.3756 59.7718C45.9047 61.7388 46.6202 63.6622 47.5825 65.4331C47.6079 65.4882 47.6644 65.515 47.7166 65.4966C47.7857 65.4811 47.8238 65.4077 47.8055 65.34ZM50.3342 62.5488C50.0788 61.5229 49.8121 60.2614 49.5821 59.1932H48.631C49.0007 60.3334 49.5017 61.6048 49.9462 62.6928C49.9899 62.7972 50.0901 62.8494 50.1861 62.824C50.3018 62.7887 50.3639 62.6659 50.3342 62.5488ZM50.6531 66.1641L50.6461 66.1486C50.337 65.2906 49.9123 64.5215 49.575 63.6975C49.2166 62.872 48.8681 62.062 48.5788 61.2153C48.3375 60.5817 48.0821 59.8536 47.8859 59.1932H46.9673C47.2269 59.9622 47.5642 60.7906 47.8789 61.5342C48.5717 63.2092 49.3718 64.8517 50.3907 66.3207C50.4259 66.3743 50.4979 66.3969 50.5642 66.3701C50.6461 66.3405 50.6828 66.2459 50.6531 66.1641ZM52.0262 36.6705C51.9556 36.5661 51.7863 36.5435 51.7044 36.6296C50.0351 38.392 49.0233 40.266 48.6748 40.9603H49.6682C50.1635 39.7933 51.2825 37.7345 52.0008 36.9922L52.0092 36.9852C52.0826 36.9033 52.0967 36.7636 52.0262 36.6705ZM44.4724 28.1403C45.3911 26.6333 46.7528 25.4776 47.9085 24.0834C47.9494 24.0298 47.9452 23.9479 47.8972 23.9028C47.8535 23.8548 47.7787 23.8548 47.7307 23.9C47.4682 24.1808 47.1931 24.4432 46.9123 24.7057C46.7895 24.645 46.4791 24.765 46.1644 25.0133C45.916 25.208 45.7382 25.4254 45.6761 25.5834C45.5153 25.5453 45.2161 25.733 44.9466 26.0787C44.7236 26.3666 44.5938 26.6714 44.598 26.8576C44.4273 26.8732 44.1789 27.0905 43.9687 27.4362C43.8318 27.6648 43.7429 27.8849 43.7133 28.0684C43.575 28.1629 43.4198 28.3393 43.2758 28.5679C43.0867 28.8826 42.9908 29.2015 43.0204 29.3849C42.9752 29.464 42.9315 29.5387 42.8948 29.6178C42.9019 29.5543 42.9089 29.4936 42.916 29.4301C43.1869 27.2965 43.5792 25.1812 44.1761 23.1422C44.7758 21.1102 45.4941 19.0584 46.7274 17.4131L46.7345 17.406C46.798 17.3157 46.7895 17.1915 46.7119 17.1097C46.6343 17.0236 46.5059 17.0194 46.424 17.1055C45.9979 17.5598 45.638 18.065 45.3163 18.5871C45.1752 18.5109 44.8788 18.7889 44.6531 19.2235C44.4456 19.6172 44.3723 19.9813 44.4499 20.1196C44.4499 20.1196 44.4456 20.1309 44.4386 20.1281C44.2904 20.0631 44.0166 20.3933 43.8501 20.8364C43.6864 21.2527 43.6568 21.6351 43.7683 21.7621C43.7612 21.7692 43.7612 21.7734 43.757 21.7805C43.5905 21.7212 43.3196 22.0994 43.153 22.6356C43.0162 23.09 43.0021 23.4837 43.1022 23.6417C43.1093 23.6474 43.1022 23.6671 43.0938 23.6629C42.9244 23.6036 42.6648 23.9931 42.5138 24.5265C42.3614 25.0387 42.3713 25.4931 42.5166 25.5834C42.3501 25.5637 42.1159 25.9545 41.9945 26.4823C41.883 26.9395 41.8943 27.3346 42.0016 27.4912C41.8379 27.5406 41.6573 27.923 41.5655 28.4169C41.4766 28.9009 41.5204 29.3031 41.6389 29.4301C41.4865 29.5091 41.3313 29.9028 41.2763 30.3896C41.2212 30.8737 41.2904 31.2716 41.4174 31.3986C41.2904 31.5411 41.169 31.8784 41.1168 32.2834C41.0646 32.67 41.0985 33.003 41.1718 33.1907C41.035 33.3078 40.9305 33.6973 40.9277 34.1658C40.9164 34.5411 40.9729 34.8586 41.0688 35.0435C40.994 35.2297 40.9432 35.5049 40.9432 35.8083C40.9348 36.202 40.9983 36.5393 41.0985 36.7156C41.0688 38.0985 41.0872 39.5731 41.162 40.9603H44.1493C44.1719 39.8793 44.2424 38.7025 44.3497 37.6343C44.5613 35.7293 44.876 33.7946 45.8271 32.1676L45.8356 32.1564C45.8652 32.0957 45.861 32.0279 45.8158 31.9757C45.7608 31.9278 45.6832 31.9278 45.631 31.987C44.3384 33.487 43.7725 35.5233 43.4381 37.4762C43.3788 37.8586 43.3308 38.2453 43.2871 38.6277C43.3675 37.06 43.5129 35.5007 43.8713 34.0162C44.2834 32.2086 45.1046 30.487 46.671 29.5246C46.7189 29.4936 46.7458 29.4301 46.7274 29.3666C46.7091 29.2946 46.6343 29.2537 46.5708 29.272C46.472 29.3031 46.3789 29.3553 46.2829 29.3962C46.1799 29.2692 45.7975 29.3624 45.4052 29.6135C45.0312 29.8577 44.7829 30.1568 44.8083 30.3219C44.8083 30.3304 44.7899 30.3417 44.7899 30.3261C44.7871 30.3078 44.7829 30.288 44.7716 30.2782C44.6305 30.161 44.2537 30.4235 43.9348 30.8694C43.6131 31.3167 43.4861 31.781 43.6244 31.9009C43.6314 31.9052 43.6272 31.9165 43.6201 31.9165C43.4536 31.8487 43.1756 32.2269 43.0021 32.7561C42.8751 33.1272 42.8454 33.4687 42.8906 33.6634C42.8906 33.6705 42.8835 33.6775 42.8835 33.6775C42.7537 34.1065 42.6465 34.5369 42.5463 34.9757C42.583 34.3563 42.638 33.734 42.7269 33.1201C42.9908 31.3492 43.5242 29.6178 44.4724 28.1403ZM53.8747 23.2057C53.6856 23.1154 53.4373 23.0928 53.1889 23.1535C53.0041 23.1986 52.8559 23.2889 52.7303 23.3934C52.7486 23.2353 52.7486 23.0787 52.7049 22.9065C52.6456 22.6356 52.5116 22.4141 52.3493 22.2715C51.5407 21.4658 52.0967 19.0401 51.9076 19.0105C51.7228 18.9836 51.7891 21.4023 51.4081 22.534C51.3305 22.7443 51.3149 23.011 51.3827 23.2805C51.449 23.5472 51.5816 23.7715 51.7482 23.9183C51.9076 24.0566 52.1009 24.1201 52.2816 24.0636C52.331 24.0566 52.3789 24.034 52.4199 24.0044C52.4199 24.034 52.4199 24.0636 52.4227 24.0947C52.4636 24.2922 52.6047 24.4475 52.7966 24.5364C52.9928 24.6309 53.2341 24.6535 53.4852 24.5886C53.7421 24.5293 53.9523 24.391 54.0892 24.2217C54.8484 23.3412 56.6335 22.0853 56.5262 21.9159C56.419 21.7508 54.9119 23.6036 53.8747 23.2057ZM57.3263 20.1492C57.212 19.9855 55.7811 21.6535 54.8075 21.2372C54.6226 21.1441 54.3968 21.1172 54.1711 21.1765C54.0455 21.2146 53.9382 21.2823 53.838 21.3642C53.8338 21.2965 53.838 21.2372 53.8225 21.1765C53.7632 20.9338 53.6306 20.7419 53.4641 20.6149C52.6485 19.9023 53.2891 17.7362 53.0972 17.7122C52.901 17.6897 52.9039 19.8458 52.4819 20.859C52.393 21.0467 52.3676 21.2781 52.4297 21.518C52.489 21.7593 52.6231 21.9569 52.7896 22.0853C52.9561 22.2038 53.1522 22.2617 53.3455 22.2165C53.4302 22.1939 53.505 22.1488 53.5713 22.0994C53.5713 22.1107 53.5671 22.1262 53.5713 22.1375C53.6306 22.3435 53.7717 22.5044 53.9523 22.5989C54.1372 22.685 54.363 22.7146 54.5817 22.6511C54.8075 22.5904 54.9853 22.4522 55.0967 22.2842C55.7007 21.3797 57.4406 20.3228 57.3263 20.1492ZM57.6777 18.0608C57.5521 17.931 56.5262 19.6469 55.5963 19.4408C55.4227 19.3929 55.2181 19.4042 55.0347 19.4973C54.9415 19.5354 54.8625 19.5989 54.7976 19.6624C54.7976 19.6215 54.8075 19.5805 54.8075 19.5354C54.7863 19.3181 54.6974 19.1149 54.5676 18.9794C53.941 18.2146 54.8117 16.4041 54.6452 16.3477C54.4744 16.2983 54.1781 18.2047 53.6602 19.033C53.5558 19.1897 53.505 19.3929 53.5262 19.6144C53.5417 19.8345 53.6334 20.0335 53.7632 20.1732C53.8973 20.3115 54.0596 20.3863 54.2374 20.375C54.3714 20.3708 54.4857 20.3002 54.5817 20.2057C54.5817 20.2819 54.5972 20.3637 54.6339 20.4427C54.7143 20.6149 54.8597 20.7348 55.0375 20.7842C55.2125 20.8407 55.4199 20.8251 55.6033 20.7348C55.7924 20.6417 55.9293 20.4907 56.0041 20.3228C56.4119 19.4183 57.8004 18.1934 57.6777 18.0608ZM57.0638 15.6774C56.8522 15.5264 56.1819 17.1958 55.386 17.6304C55.2379 17.7094 55.0967 17.8519 54.9966 18.0467C54.8964 18.2456 54.8597 18.4545 54.8865 18.6309C54.9048 18.8073 54.9853 18.9583 55.1151 19.033C55.2477 19.1121 55.4086 19.1078 55.5596 19.0288C55.7148 18.9498 55.8517 18.8073 55.9561 18.6097C56.0521 18.4136 56.0888 18.2047 56.0676 18.0283C56.0083 17.0829 57.212 15.7706 57.0638 15.6774ZM42.4461 59.1932H34.0584C33.4883 59.1932 32.9732 59.148 32.4991 59.0634C32.5019 59.0634 32.5019 59.0662 32.5019 59.0662C33.8806 61.1137 36.0396 62.6659 38.2282 63.7088C38.5655 65.5756 38.9874 67.3028 39.1384 67.4383C39.2951 67.5738 41.4428 66.9543 41.5091 66.7567C41.5726 66.5578 40.6314 63.3602 40.6314 63.3602C41.7603 61.4213 42.1088 60.2769 42.4461 59.1932ZM63.5479 73.5428C61.4298 74.3795 58.6669 74.4501 56.4119 73.8504C51.2458 72.2417 45.5096 69.1937 40.002 71.7239C34.4944 69.1937 28.7582 72.2417 23.5921 73.8504C21.3372 74.4501 18.5742 74.3795 16.4561 73.5428C16.3968 73.5216 16.3517 73.595 16.4039 73.6373C19.4519 75.9953 23.722 77.079 27.5658 75.6919C31.2573 74.5404 34.3801 70.6302 38.7532 72.2982C35.2917 73.6514 32.0546 76.1491 29.5541 78.507L31.373 80C33.6435 77.3556 36.1991 74.7126 39.0904 73.1053C39.487 72.8725 39.724 72.7779 40.002 72.7638C40.28 72.7779 40.5157 72.8725 40.9094 73.1053C43.805 74.7126 46.3605 77.3556 48.631 80L50.4499 78.507C47.9494 76.1491 44.7123 73.6514 41.2509 72.2982C45.6239 70.6302 48.7453 74.5404 52.4382 75.6919C56.2821 77.079 60.5521 75.9953 63.5987 73.6373C63.6481 73.595 63.6072 73.5216 63.5479 73.5428ZM29.4991 69.9811C24.1001 68.6716 22.6227 63.61 18.1085 61.4143C18.0591 61.3875 18.0083 61.4439 18.038 61.4877C19.4604 63.8287 20.2309 67.4129 24.3287 69.6213C24.3626 69.6396 24.3443 69.6933 24.3076 69.6806C18.426 68.5489 15.9566 70.1222 9.79423 67.3381C9.74202 67.3141 9.68557 67.3706 9.71944 67.42C11.7458 70.3593 16.5521 72.3687 23.1378 71.8156C25.507 71.6124 27.2258 70.6147 29.4991 70.0827C29.5541 70.0672 29.5541 69.9924 29.4991 69.9811ZM18.189 66.8767C16.1372 64.1871 16.7228 58.4481 12.0901 53.1946C12.0534 53.1537 11.9857 53.1875 11.997 53.2397C12.8818 57.109 12.6193 61.5032 15.0408 64.7233C15.0633 64.7586 15.0295 64.7911 14.997 64.7699C10.219 61.0093 5.3097 59.8762 3.12388 56.8324C3.09142 56.7901 3.02369 56.8127 3.03216 56.8649C3.57261 60.8061 11.1418 66.9472 18.148 66.9585C18.189 66.9585 18.2158 66.9106 18.189 66.8767ZM11.0163 59.7294C8.81633 55.6513 11.4452 49.4269 8.94897 43.3775C8.92357 43.314 8.82762 43.3295 8.82762 43.3972C8.75283 46.7006 6.70106 51.6311 7.94143 55.355C7.95696 55.3874 7.91321 55.4072 7.89346 55.3762C4.73537 50.7618 2.22782 49.7966 0.139366 45.5718C0.109733 45.5083 0.0137767 45.5266 0.00954335 45.5943C-0.123102 48.4659 1.1469 50.8056 2.57919 52.9801C4.87225 55.9237 7.82431 58.252 10.9457 59.8042C10.9937 59.8282 11.0374 59.7774 11.0163 59.7294ZM9.5233 34.8854C9.52047 34.8177 9.43157 34.7951 9.39771 34.8558C7.71989 37.9941 4.73114 40.4904 4.63518 44.6348C4.63095 44.6757 4.58721 44.6785 4.58015 44.6418C4.03546 41.4429 1.32047 37.8586 1.20194 33.2288C1.20194 33.1568 1.10175 33.1385 1.07635 33.2062C-1.15745 39.2274 2.05425 44.9382 5.47198 49.6555C5.50867 49.7035 5.58346 49.6739 5.58346 49.6089C5.44235 44.6108 9.77589 40.8812 9.5233 34.8854ZM11.6569 27.0933C10.0708 29.2946 6.50492 30.8511 5.20245 34.0261C5.1827 34.0726 5.12767 34.0599 5.13472 34.0077C5.6526 30.4503 4.27958 26.3186 5.56793 21.59C5.58769 21.5222 5.50161 21.4771 5.46069 21.5293C3.51335 23.9254 2.85436 26.7335 2.7457 29.7673C2.61306 33.4941 3.92398 36.2133 4.57168 38.7406C4.58721 38.7999 4.66482 38.7956 4.67893 38.7364C5.61309 35.4217 10.2966 33.4278 11.7641 27.1469C11.7825 27.0792 11.6978 27.0383 11.6569 27.0933ZM15.9566 19.692C13.3488 21.7353 9.36807 23.7038 8.51294 25.1262C8.49741 25.1558 8.45367 25.1333 8.46072 25.1036L9.42734 20.4653C9.86055 18.4968 10.2345 16.6102 11.3225 14.8477C11.3563 14.7955 11.2928 14.7362 11.2449 14.7729C6.28337 18.7028 7.00869 24.3868 6.78996 29.0406C6.78714 29.0886 6.84641 29.1112 6.87886 29.0773C9.80129 25.9094 14.5638 24.0636 16.037 19.7569C16.0554 19.7047 16.0003 19.6582 15.9566 19.692ZM19.6481 12.5687C15.2637 12.707 12.0421 16.3999 10.6607 21.1017C10.6522 21.1285 10.6903 21.1511 10.7115 21.1356C16.7525 16.7075 16.4152 14.811 19.6848 12.7042C19.744 12.6661 19.7186 12.5687 19.6481 12.5687ZM70.207 67.3381C64.0475 70.1222 61.5738 68.5489 55.6922 69.6806C55.6555 69.6933 55.6372 69.6396 55.6711 69.6213C59.7704 67.4129 60.5408 63.8287 61.9632 61.4877C61.9929 61.4439 61.9407 61.3875 61.8927 61.4143C57.3813 63.61 55.9039 68.6716 50.5007 69.9811C50.4457 69.9924 50.4457 70.0672 50.5007 70.0827C52.774 70.6147 54.4928 71.6124 56.8635 71.8156C63.4477 72.3687 68.2582 70.3593 70.2804 67.42C70.3142 67.3706 70.2578 67.3141 70.207 67.3381ZM76.8759 56.8324C74.6915 59.8762 69.7808 61.0093 65.0042 64.7699C64.9746 64.7911 64.9365 64.7586 64.9633 64.7233C67.3805 61.5032 67.118 57.109 68.0028 53.2397C68.0141 53.1875 67.9464 53.1537 67.9111 53.1946C63.2812 58.4481 63.8626 64.1871 61.8151 66.8767C61.7883 66.9106 61.8108 66.9585 61.856 66.9585C68.8622 66.9472 76.4286 60.8061 76.9691 56.8649C76.9761 56.8127 76.9098 56.7901 76.8759 56.8324ZM79.9903 45.5943C79.9874 45.5266 79.8901 45.5083 79.8604 45.5718C77.772 49.7966 75.2644 50.7618 72.1106 55.3762C72.088 55.4072 72.0471 55.3874 72.0584 55.355C73.2988 51.6311 71.2512 46.7006 71.1736 43.3972C71.1736 43.3295 71.0762 43.314 71.0508 43.3775C68.5546 49.4269 71.1835 55.6513 68.9878 59.7294C68.9624 59.7774 69.0061 59.8282 69.0555 59.8042C72.1769 58.252 75.1276 55.9237 77.4206 52.9801C78.8529 50.8056 80.1243 48.4659 79.9903 45.5943ZM78.9235 33.2062C78.8981 33.1385 78.7979 33.1568 78.7979 33.2288C78.6793 37.8586 75.9658 41.4429 75.4211 44.6418C75.4126 44.6785 75.3689 44.6757 75.3689 44.6348C75.2729 40.4904 72.2799 37.9941 70.6021 34.8558C70.5696 34.7951 70.4807 34.8177 70.4807 34.8854C70.2281 40.8812 74.5589 44.6108 74.4164 49.6089C74.4164 49.6739 74.4954 49.7035 74.5321 49.6555C77.9456 44.9382 81.1573 39.2274 78.9235 33.2062ZM77.2541 29.7673C77.1455 26.7335 76.4879 23.9254 74.5391 21.5293C74.4996 21.4771 74.4164 21.5222 74.4319 21.59C75.7202 26.3186 74.3472 30.4503 74.8693 34.0077C74.8764 34.0599 74.8171 34.0726 74.7988 34.0261C73.4949 30.8511 69.929 29.2946 68.3443 27.0933C68.3062 27.0383 68.2215 27.0792 68.2371 27.1469C69.7032 33.4278 74.3867 35.4217 75.3209 38.7364C75.335 38.7956 75.4126 38.7999 75.4281 38.7406C76.0758 36.2133 77.3868 33.4941 77.2541 29.7673ZM68.755 14.7729C68.707 14.7362 68.6435 14.7955 68.6773 14.8477C69.7653 16.6102 70.1393 18.4968 70.5725 20.4653L71.5391 25.1036C71.5475 25.1333 71.5024 25.1558 71.4883 25.1262C70.6317 23.7038 66.6552 21.7353 64.0446 19.692C64.0037 19.6582 63.9445 19.7047 63.9628 19.7569C65.436 24.0636 70.1985 25.9094 73.1209 29.0773C73.1534 29.1112 73.2127 29.0886 73.2099 29.0406C72.9911 24.3868 73.7164 18.7028 68.755 14.7729ZM60.3517 12.5687C60.2812 12.5687 60.2586 12.6661 60.3151 12.7042C63.5846 14.811 63.2474 16.7075 69.2884 21.1356C69.3138 21.1511 69.3476 21.1285 69.3391 21.1017C67.9591 16.3999 64.7375 12.707 60.3517 12.5687Z"
    fill="#007DBC" />
</svg>