<svg width="80" height="120" viewBox="0 0 80 120" fill="none" xmlns="http://www.w3.org/2000/svg">
  <g clip-path="url(#clip0_195_1525)">
    <path
      d="M26.6045 107.916C26.8257 107.916 27.0913 107.936 27.3965 107.978C27.7015 108.016 27.8953 108.047 27.9824 108.064H30.75V109.166L29.5068 109.484C29.7344 109.84 29.8477 110.237 29.8477 110.678C29.8475 111.53 29.5505 112.192 28.958 112.667C28.3638 113.143 27.5395 113.38 26.4834 113.38L26.0928 113.359L25.7754 113.322C25.5526 113.495 25.4404 113.684 25.4404 113.891C25.4404 114.204 25.8384 114.36 26.6328 114.36H27.9824C28.851 114.36 29.5147 114.546 29.9717 114.919C30.4287 115.294 30.6562 115.845 30.6562 116.568C30.6561 117.495 30.2704 118.214 29.4971 118.726C28.7236 119.234 27.6124 119.492 26.1641 119.492C25.058 119.492 24.2115 119.298 23.627 118.912C23.0428 118.526 22.7511 117.987 22.751 117.29C22.751 116.812 22.9011 116.413 23.1982 116.092C23.497 115.771 23.9327 115.541 24.5107 115.402C24.2896 115.31 24.0944 115.153 23.9297 114.938C23.7634 114.722 23.6807 114.494 23.6807 114.252C23.6807 113.95 23.7675 113.7 23.9434 113.498C24.1178 113.298 24.3721 113.099 24.7031 112.905C24.2865 112.724 23.9567 112.437 23.7129 112.038C23.4693 111.641 23.3477 111.173 23.3477 110.636C23.3477 109.769 23.6273 109.1 24.1924 108.625C24.7542 108.154 25.5583 107.916 26.6045 107.916ZM26.0225 116.098C25.6252 116.098 25.2934 116.194 25.0254 116.381C24.7592 116.567 24.625 116.812 24.625 117.122C24.6251 117.419 24.7672 117.653 25.0527 117.824C25.3401 117.994 25.7409 118.079 26.2559 118.079C27.0326 118.079 27.6402 117.973 28.0811 117.758C28.5217 117.546 28.7412 117.257 28.7412 116.886C28.7411 116.589 28.6103 116.383 28.3506 116.27C28.0907 116.155 27.6886 116.098 27.1445 116.098H26.0225ZM18.8311 107.916C19.5916 107.916 20.2638 108.08 20.8467 108.413C21.4279 108.744 21.8749 109.219 22.1865 109.839C22.4998 110.461 22.6553 111.186 22.6553 112.02C22.6552 113.309 22.3144 114.318 21.6348 115.05C20.9534 115.778 20.0038 116.142 18.7881 116.142C18.0275 116.142 17.3554 115.975 16.7725 115.641C16.1913 115.308 15.7439 114.829 15.4307 114.204C15.1191 113.579 14.9629 112.851 14.9629 112.02C14.9629 110.723 15.3019 109.715 15.9785 108.996C16.655 108.275 17.6058 107.916 18.8311 107.916ZM40.5225 107.903C41.5865 107.903 42.4033 108.133 42.9717 108.598C43.5384 109.063 43.8232 109.766 43.8232 110.711V115.999H42.3115L41.8916 114.919H41.835C41.4717 115.379 41.0974 115.697 40.71 115.875C40.3256 116.054 39.8232 116.142 39.2031 116.142C38.441 116.142 37.8419 115.923 37.4043 115.487C36.9668 115.051 36.7471 114.435 36.7471 113.629C36.7471 112.788 37.0424 112.164 37.6299 111.766C38.2192 111.367 39.1076 111.145 40.2959 111.102L41.6719 111.062V110.711C41.6718 109.909 41.2619 109.507 40.4385 109.507C39.8039 109.507 39.0596 109.697 38.2021 110.08L37.4854 108.618C38.3992 108.14 39.4117 107.903 40.5225 107.903ZM75.8662 107.916C76.9885 107.916 77.8604 108.236 78.4854 108.874C79.1102 109.513 79.4219 110.395 79.4219 111.521V112.571H74.3047C74.3289 113.187 74.5118 113.666 74.8525 114.012C75.1932 114.359 75.6694 114.53 76.2861 114.53C76.7623 114.53 77.2145 114.482 77.6406 114.382C78.0668 114.283 78.5113 114.124 78.9746 113.907V115.581C78.5968 115.77 78.1912 115.913 77.7617 116.003C77.3307 116.097 76.8062 116.142 76.1865 116.142C74.9092 116.142 73.9106 115.79 73.1904 115.084C72.472 114.378 72.1124 113.38 72.1123 112.089C72.1123 110.76 72.4451 109.733 73.1104 109.006C73.774 108.279 74.6925 107.916 75.8662 107.916ZM4.57129 105.625C5.82889 105.625 6.78646 105.894 7.44043 106.437C8.09596 106.977 8.42376 107.785 8.42383 108.86C8.42383 109.976 8.07551 110.831 7.37793 111.422C6.68038 112.013 5.68725 112.309 4.40039 112.309H3.45703V116H1.25684V105.625H4.57129ZM13.916 107.916C14.2081 107.916 14.4518 107.937 14.6455 107.98L14.4824 110.009C14.3081 109.962 14.0949 109.938 13.8447 109.938C13.1553 109.938 12.6164 110.117 12.2305 110.473C11.8446 110.826 11.6524 111.323 11.6523 111.961V115.999H9.48828V108.064H11.127L11.4453 109.4H11.5518C11.7988 108.955 12.1317 108.596 12.5498 108.323C12.968 108.054 13.4235 107.916 13.916 107.916ZM35.8828 107.916C36.1751 107.916 36.4195 107.937 36.6133 107.98L36.4502 110.009C36.2759 109.962 36.0627 109.938 35.8125 109.938C35.123 109.938 34.5832 110.117 34.1973 110.473C33.8116 110.826 33.6192 111.323 33.6191 111.961V115.999H31.4561V108.064H33.0947L33.4131 109.4H33.5195C33.7666 108.955 34.0994 108.596 34.5176 108.323C34.9356 108.054 35.3905 107.916 35.8828 107.916ZM54.6826 107.916C55.5803 107.916 56.2619 108.147 56.7236 108.607C57.1837 109.069 57.4141 109.809 57.4141 110.826V115.999H55.2422V111.365C55.2422 110.794 55.1472 110.362 54.9551 110.076C54.7629 109.792 54.4624 109.648 54.0508 109.648C53.5212 109.648 53.1245 109.838 52.8613 110.216C52.5998 110.594 52.4668 111.194 52.4668 112.02V115.999H50.3027V111.365C50.3027 110.794 50.2078 110.362 50.0156 110.076C49.8251 109.792 49.523 109.648 49.1113 109.648C48.5576 109.648 48.1556 109.85 47.9053 110.259C47.6534 110.666 47.5293 111.335 47.5293 112.267V115.999H45.3633V108.064H47.0166L47.3076 109.08H47.4287C47.6418 108.715 47.9487 108.431 48.3506 108.225C48.7527 108.02 49.2148 107.916 49.7363 107.916C50.923 107.916 51.7269 108.305 52.1484 109.08H52.3408C52.5523 108.712 52.8656 108.425 53.2803 108.222C53.6937 108.018 54.161 107.916 54.6826 107.916ZM68.2734 107.916C69.1712 107.916 69.8526 108.147 70.3145 108.607C70.7746 109.069 71.0059 109.809 71.0059 110.826V115.999H68.834V111.365C68.834 110.794 68.739 110.362 68.5469 110.076C68.3548 109.792 68.0541 109.649 67.6426 109.648C67.1129 109.648 66.7154 109.838 66.4521 110.216C66.1907 110.594 66.0596 111.195 66.0596 112.02V115.999H63.8945V111.365C63.8945 110.794 63.7996 110.362 63.6074 110.076C63.4169 109.792 63.1146 109.649 62.7031 109.648C62.1493 109.648 61.7464 109.85 61.4961 110.259C61.2442 110.666 61.1201 111.335 61.1201 112.267V115.999H58.9551V108.064H60.6084L60.8994 109.08H61.0205C61.2337 108.715 61.542 108.431 61.9424 108.225C62.3443 108.02 62.8058 107.916 63.3271 107.916C64.514 107.916 65.3188 108.305 65.7402 109.08H65.9326C66.1441 108.712 66.4589 108.425 66.8721 108.222C67.2854 108.018 67.7536 107.916 68.2734 107.916ZM40.8359 112.352C40.2062 112.371 39.7375 112.484 39.4307 112.692C39.1224 112.899 38.9688 113.217 38.9688 113.642C38.9688 114.252 39.3194 114.56 40.0186 114.56C40.5207 114.56 40.9213 114.416 41.2217 114.125C41.522 113.838 41.6719 113.453 41.6719 112.975V112.322L40.8359 112.352ZM18.8027 109.663C18.2246 109.663 17.8095 109.859 17.5527 110.248C17.2976 110.637 17.1699 111.228 17.1699 112.02C17.17 112.804 17.2994 113.398 17.5576 113.8C17.8144 114.2 18.2357 114.402 18.8154 114.402C19.3932 114.402 19.808 114.202 20.0615 113.804C20.315 113.403 20.4414 112.809 20.4414 112.02C20.4414 111.233 20.3137 110.645 20.0586 110.251C19.8035 109.86 19.3838 109.663 18.8027 109.663ZM26.6045 109.229C25.8087 109.229 25.4111 109.707 25.4111 110.663C25.4112 111.094 25.5102 111.433 25.707 111.685C25.904 111.935 26.2026 112.061 26.6045 112.062C27.0114 112.062 27.3107 111.935 27.498 111.685C27.6884 111.433 27.7822 111.094 27.7822 110.663C27.7822 109.707 27.3893 109.229 26.6045 109.229ZM75.8809 109.456C75.4223 109.456 75.0617 109.602 74.8018 109.893C74.542 110.185 74.3916 110.597 74.3545 111.131H77.3926C77.3829 110.596 77.2433 110.185 76.9736 109.893C76.704 109.602 76.3394 109.456 75.8809 109.456ZM3.45703 110.506H4.18066C4.85718 110.506 5.36237 110.372 5.69824 110.105C6.03405 109.837 6.20208 109.45 6.20215 108.938C6.20215 108.423 6.06209 108.042 5.78125 107.795C5.50032 107.55 5.05761 107.427 4.45703 107.427H3.45703V110.506ZM18.3232 91.917C19.0836 91.9171 19.7557 92.0815 20.3369 92.4141C20.9197 92.7451 21.3671 93.2202 21.6787 93.8418C21.9903 94.4618 22.1465 95.187 22.1465 96.0186C22.1465 97.3103 21.8058 98.3216 21.126 99.0498C20.4446 99.7779 19.495 100.143 18.2793 100.143C17.5172 100.143 16.8472 99.9761 16.2627 99.6436C15.683 99.3077 15.2351 98.83 14.9219 98.2051C14.6086 97.5802 14.4541 96.8517 14.4541 96.0186C14.4541 94.7237 14.7914 93.7163 15.4678 92.9961C16.1444 92.2775 17.0976 91.917 18.3232 91.917ZM41.1152 100.001H39.4551L39.0371 98.9707H38.9443C38.4518 99.7519 37.7027 100.143 36.6953 100.143C35.762 100.143 35.0303 99.779 34.499 99.0557C33.9663 98.3323 33.7022 97.3297 33.7021 96.0479C33.7021 94.7464 33.9718 93.7319 34.5127 93.0068C35.0552 92.2804 35.801 91.917 36.752 91.917C37.7499 91.917 38.5123 92.306 39.0371 93.0811H39.1074C38.9993 92.4903 38.9444 91.9623 38.9443 91.499V88.957H41.1152V100.001ZM57.5596 91.917C58.3201 91.917 58.9939 92.0814 59.5752 92.4141C60.1565 92.7451 60.6034 93.2202 60.915 93.8418C61.2283 94.4619 61.3838 95.187 61.3838 96.0186C61.3838 97.3103 61.0447 98.3216 60.3633 99.0498C59.6819 99.7779 58.7339 100.142 57.5166 100.143C56.7561 100.143 56.0839 99.9762 55.501 99.6436C54.9197 99.3077 54.4724 98.8299 54.1592 98.2051C53.8475 97.5802 53.6924 96.8517 53.6924 96.0186C53.6924 94.7238 54.0297 93.7162 54.7061 92.9961C55.3826 92.2776 56.334 91.917 57.5596 91.917ZM66.3291 91.917C67.0912 91.917 67.7634 92.0815 68.3447 92.4141C68.9277 92.7451 69.3733 93.2201 69.6865 93.8418C69.9982 94.4619 70.1553 95.187 70.1553 96.0186C70.1553 97.3103 69.8126 98.3216 69.1328 99.0498C68.453 99.7779 67.5013 100.143 66.2871 100.143C65.5251 100.143 64.8533 99.9761 64.2705 99.6436C63.6894 99.3077 63.2439 98.8298 62.9307 98.2051C62.6174 97.5802 62.4619 96.8517 62.4619 96.0186C62.4619 94.7236 62.8 93.7163 63.4766 92.9961C64.1531 92.2776 65.1037 91.9171 66.3291 91.917ZM78.6807 100.001H77.0205L76.6025 98.9707H76.5088C76.0179 99.752 75.2671 100.143 74.2598 100.143C73.328 100.143 72.5963 99.7791 72.0635 99.0557C71.5307 98.3323 71.2647 97.3298 71.2646 96.0479C71.2646 94.7464 71.5356 93.7319 72.0781 93.0068C72.619 92.2804 73.3649 91.9171 74.3174 91.917C75.3136 91.917 76.0761 92.3061 76.6025 93.0811H76.6719C76.5637 92.4902 76.5088 91.9623 76.5088 91.499V88.957H78.6807V100.001ZM32.126 100.001H29.96V88.957H32.126V100.001ZM3.68164 95.2871C3.9125 96.3332 4.08025 97.239 4.18359 98.0059C4.21268 97.7362 4.27756 97.3179 4.38086 96.7529C4.48255 96.1896 4.57821 95.7491 4.66699 95.4375L6.17773 89.624H8.25781L9.76953 95.4375C9.83572 95.6975 9.91946 96.0947 10.0195 96.6289C10.118 97.1632 10.1944 97.6232 10.2461 98.0059C10.2945 97.6362 10.3684 97.1762 10.4717 96.626C10.5766 96.0754 10.6703 95.6294 10.7559 95.2871L12.0771 89.624H14.2422L11.6025 100H9.0957L7.69141 94.5508C7.63812 94.3554 7.54914 93.9548 7.4248 93.3477C7.29892 92.7392 7.22743 92.3324 7.20801 92.124C7.18052 92.3776 7.10843 92.7896 6.99707 93.3545C6.88248 93.9193 6.79538 94.3229 6.73242 94.5635L5.33496 100H2.83691L0.19043 89.624H2.35449L3.68164 95.2871ZM28.0898 91.917C28.3821 91.917 28.6265 91.9391 28.8203 91.9795L28.6572 94.0098C28.4828 93.9629 28.2679 93.9385 28.0176 93.9385C27.3265 93.9385 26.7902 94.1181 26.4043 94.4717C26.0185 94.8269 25.8252 95.3242 25.8252 95.9619V100H23.6592V92.0654H25.2998L25.6201 93.3994H25.7266C25.972 92.957 26.3045 92.5971 26.7227 92.3242C27.1407 92.053 27.5975 91.9171 28.0898 91.917ZM52.6045 91.4277H48.8223V94.1035H52.3428V95.8975H48.8223V100H46.6572V89.624H52.6045V91.4277ZM37.4189 93.6768C36.9361 93.6768 36.5614 93.8825 36.2949 94.291C36.027 94.7011 35.8926 95.295 35.8926 96.0762C35.8926 96.8561 36.0288 97.4413 36.2969 97.832C36.5681 98.2226 36.9521 98.4199 37.4541 98.4199C38.0078 98.4199 38.4135 98.2567 38.6719 97.9355C38.9286 97.6142 39.0689 97.0661 39.0947 96.2959V96.0625C39.0947 95.2101 38.9623 94.5996 38.6992 94.2314C38.4376 93.8617 38.0099 93.6768 37.4189 93.6768ZM74.9844 93.6768C74.5 93.6768 74.1254 93.8825 73.8574 94.291C73.5911 94.7011 73.4571 95.295 73.457 96.0762C73.457 96.8561 73.5926 97.4413 73.8623 97.832C74.132 98.2227 74.5164 98.4199 75.0186 98.4199C75.5724 98.4199 75.978 98.2568 76.2363 97.9355C76.4947 97.6142 76.6346 97.0661 76.6572 96.2959V96.0625C76.6572 95.21 76.5262 94.5996 76.2646 94.2314C76.0014 93.8617 75.5754 93.6768 74.9844 93.6768ZM18.2939 93.6621C17.7159 93.6621 17.2991 93.8583 17.0439 94.249C16.7889 94.6398 16.6611 95.2291 16.6611 96.0186C16.6611 96.8046 16.7903 97.3987 17.0469 97.8008C17.3052 98.2012 17.7253 98.4033 18.3066 98.4033C18.8846 98.4033 19.3015 98.2034 19.5518 97.8047C19.8069 97.4042 19.9326 96.8098 19.9326 96.0186C19.9326 95.2338 19.8049 94.646 19.5498 94.252C19.2931 93.8597 18.8751 93.6622 18.2939 93.6621ZM57.5303 93.6621C56.954 93.6622 56.5379 93.8583 56.2812 94.249C56.0261 94.6398 55.8984 95.229 55.8984 96.0186C55.8984 96.8049 56.0278 97.3987 56.2861 97.8008C56.5428 98.2012 56.9638 98.4033 57.5449 98.4033C58.1213 98.4033 58.5365 98.2034 58.79 97.8047C59.0435 97.4042 59.1699 96.8098 59.1699 96.0186C59.1699 95.2338 59.0438 94.646 58.7871 94.252C58.532 93.8596 58.1116 93.6621 57.5303 93.6621ZM66.3008 93.6621C65.7243 93.6621 65.3069 93.8583 65.0518 94.249C64.7968 94.6398 64.6699 95.2292 64.6699 96.0186C64.6699 96.8048 64.7974 97.3987 65.0557 97.8008C65.3124 98.2012 65.7341 98.4033 66.3154 98.4033C66.8915 98.4032 67.3077 98.2032 67.5596 97.8047C67.8131 97.4042 67.9414 96.8098 67.9414 96.0186C67.9414 95.2338 67.8134 94.646 67.5566 94.252C67.3016 93.8597 66.8835 93.6622 66.3008 93.6621Z"
      fill="#007DBC" />
    <path
      d="M50.464 5.21405H51.2373C51.9598 5.21405 52.5003 5.07153 52.8601 4.78648C53.2171 4.50144 53.3978 4.08516 53.3978 3.53906C53.3978 2.98873 53.2468 2.58233 52.9462 2.31986C52.6456 2.0574 52.1743 1.92475 51.5337 1.92475H50.464V5.21405ZM55.7698 3.45581C55.7698 4.64819 55.3973 5.56118 54.6522 6.19195C53.9058 6.82412 52.8474 7.14021 51.473 7.14021H50.464V11.0814H48.1145V0H51.6536C52.9984 0 54.0201 0.289277 54.72 0.867832C55.4199 1.4478 55.7698 2.30857 55.7698 3.45581ZM42.3134 11.0814H40.002V0H46.3535V1.92475H42.3134V4.78366H46.0726V6.69994H42.3134V11.0814ZM35.9281 11.0814H33.2526L31.7526 5.2592C31.6962 5.05318 31.6016 4.6242 31.4676 3.97509C31.3335 3.32598 31.2559 2.88995 31.2362 2.66841C31.2051 2.94216 31.1303 3.37961 31.009 3.98356C30.8876 4.5861 30.7931 5.0179 30.7282 5.27473L29.2352 11.0814H26.5682L23.7403 0H26.0517L27.4699 6.04801C27.7168 7.1642 27.896 8.13222 28.0075 8.95066C28.0372 8.6628 28.1077 8.21689 28.2164 7.61434C28.3236 7.00898 28.4266 6.54049 28.5226 6.20747L30.1369 0H32.358L33.9723 6.20747C34.0429 6.48546 34.1318 6.9102 34.2376 7.48029C34.3434 8.05179 34.4253 8.54144 34.4803 8.95066C34.5297 8.55697 34.6116 8.06449 34.723 7.47606C34.8345 6.88903 34.9347 6.41208 35.0264 6.04801L36.4347 0H38.7475L35.9281 11.0814ZM30.1806 49.6216C25.8753 49.6216 23.1109 50.6447 22.3574 50.9608C22.3123 50.9805 22.277 50.917 22.3108 50.8832C27.0423 45.9641 32.581 46.2364 33.913 46.2364H49.6639C50.457 46.2364 51.1005 46.9942 51.1005 47.9297C51.1005 48.8639 50.457 49.6216 49.6639 49.6216H30.1806ZM33.7282 53.9749C29.0899 53.9749 27.738 51.339 20.7163 53.0789C20.6683 53.0916 20.6358 53.0252 20.6754 52.9984C24.5898 50.3117 28.8471 50.5558 30.5701 50.5558H49.6639C50.457 50.5558 51.1005 51.3136 51.1005 52.2491C51.1005 53.1833 50.457 53.941 49.6639 53.941C49.6639 53.941 37.4013 53.9749 33.7282 53.9749ZM34.0584 58.2605C29.2959 58.2605 28.9149 54.7468 21.8565 53.9552C21.8071 53.9509 21.8014 53.8775 21.8494 53.8648C27.6491 52.4156 29.8067 54.8752 33.192 54.8752H49.6639C50.457 54.8752 51.1005 55.633 51.1005 56.5671C51.1005 57.5027 50.457 58.2605 49.6639 58.2605H34.0584ZM33.024 45.3037C29.1915 45.3037 26.0136 46.9744 25.27 47.3963C25.229 47.4203 25.1867 47.3695 25.2135 47.3314C25.8358 46.417 29.1943 41.917 34.9657 41.917H49.6639C50.457 41.917 51.1005 42.6748 51.1005 43.6103C51.1005 44.5459 50.457 45.3037 49.6639 45.3037H33.024ZM54.1076 35.9551C53.9594 35.8041 53.7378 35.6954 53.4824 35.6658C53.2933 35.639 53.1226 35.6686 52.9716 35.7265C53.0379 35.5868 53.093 35.4372 53.1155 35.2608C53.1522 34.987 53.1 34.7316 52.997 34.5369C52.5229 33.4983 53.8789 31.4212 53.7082 31.3266C53.5445 31.2377 52.774 33.528 52.0262 34.4551C51.8822 34.623 51.7778 34.8671 51.7453 35.1437C51.7185 35.4174 51.7637 35.6771 51.8667 35.8676C51.9711 36.0552 52.1306 36.1865 52.3154 36.1978C52.3676 36.2048 52.4199 36.202 52.4678 36.1907C52.4565 36.2161 52.4453 36.2472 52.441 36.2726C52.4114 36.4758 52.489 36.6663 52.6414 36.8201C52.7896 36.9781 53.0083 37.0825 53.2637 37.1122C53.5262 37.146 53.7717 37.0938 53.9594 36.9823C54.9754 36.4264 57.078 35.8789 57.0342 35.6841C56.9933 35.4894 54.9415 36.6931 54.1076 35.9551ZM55.6598 34.4395C55.5187 34.2857 55.3197 34.1813 55.0855 34.1587C54.9514 34.1502 54.83 34.1728 54.7087 34.218C54.727 34.1545 54.7524 34.098 54.7595 34.0345C54.7863 33.7876 54.727 33.5576 54.6156 33.3812C54.1005 32.4259 55.4453 30.6225 55.2717 30.5322C55.0967 30.4419 54.3601 32.464 53.6123 33.2612C53.4641 33.4052 53.3597 33.614 53.3343 33.8624C53.3117 34.1093 53.3667 34.3422 53.4754 34.5185C53.5939 34.6907 53.7562 34.8149 53.9523 34.8403C54.0384 34.8473 54.1273 34.8332 54.2049 34.8106C54.2007 34.8219 54.1894 34.8375 54.1936 34.8473C54.1753 35.0576 54.2529 35.2608 54.3898 35.4104C54.5309 35.5599 54.7341 35.6658 54.9599 35.6841C55.1927 35.7067 55.4086 35.6432 55.5709 35.519C56.4458 34.8897 58.4453 34.5143 58.3931 34.3125C58.3451 34.1164 56.4303 35.1747 55.6598 34.4395ZM57.0187 33.0369C56.8748 32.9282 56.6786 32.869 56.4712 32.8915C56.371 32.8944 56.2779 32.9254 56.1932 32.9621C56.2073 32.9212 56.2341 32.8873 56.2482 32.8464C56.3033 32.6319 56.2849 32.4146 56.2143 32.2382C55.8898 31.3012 57.3334 29.9141 57.1923 29.8012C57.0526 29.6968 56.1156 31.376 55.3451 31.9687C55.1969 32.0773 55.0784 32.2495 55.0191 32.4668C54.9556 32.6771 54.9754 32.8986 55.0488 33.0707C55.1264 33.2471 55.252 33.3784 55.4227 33.4306C55.5525 33.4715 55.6824 33.4461 55.8037 33.3939C55.7783 33.4644 55.7642 33.5477 55.7713 33.6338C55.7896 33.8243 55.8827 33.9866 56.0337 34.098C56.1777 34.2109 56.3738 34.2674 56.5784 34.2519C56.7887 34.2293 56.9707 34.1404 57.0963 34.0049C57.7892 33.3036 59.515 32.6474 59.4444 32.4781C59.371 32.3102 57.8188 33.5576 57.0187 33.0369ZM59.6928 30.0256C59.5488 29.8125 58.3409 31.1361 57.4491 31.2631C57.2812 31.2857 57.0963 31.3689 56.9411 31.5143C56.7746 31.6653 56.6673 31.8487 56.6292 32.0237C56.5897 32.1973 56.6151 32.3666 56.7082 32.4823C56.807 32.6023 56.9594 32.6545 57.1302 32.6361C57.3009 32.6164 57.4787 32.5345 57.6452 32.3807C57.8004 32.234 57.9077 32.0519 57.9486 31.8784C58.2181 30.971 59.8 30.1653 59.6928 30.0256ZM34.7244 31.8177C34.6878 31.9503 34.4281 32.9692 34.4281 32.9692C34.3547 33.0115 34.0429 32.9437 33.961 32.9353C33.3655 32.8788 32.8335 32.3624 33.0621 31.7429C33.2484 31.2377 33.6322 31.1841 34.1177 31.1629C34.318 31.1531 34.6821 31.201 34.8627 31.3266C34.8627 31.3266 34.7908 31.5595 34.7244 31.8177ZM34.04 34.8967C34.0203 35.0138 34.002 35.1296 33.9836 35.2453C33.6139 35.0138 33.3952 34.4804 33.573 34.0599C33.7099 33.7424 34.0485 33.6578 34.2983 33.6437C34.2094 34.0599 34.1205 34.4762 34.04 34.8967ZM33.5066 38.7025C33.4601 38.9635 33.1073 38.9988 32.866 39.0708C32.1661 39.2796 31.5029 39.1907 31.2884 38.3539C31.0541 37.4579 31.7329 37.0825 32.4582 36.9061C32.8547 36.813 33.2216 36.892 33.4911 37.2251C33.5603 37.3083 33.6393 37.3831 33.6576 37.4621C33.6576 37.4621 33.5504 38.457 33.5066 38.7025ZM31.3025 34.297C31.8429 34.1658 32.4017 33.964 32.8166 34.496C33.2541 35.0534 33.1101 35.9508 32.406 36.1865C31.9431 36.3445 31.3843 36.4786 30.9878 36.1004C30.4699 35.6051 30.5066 34.4804 31.3025 34.297ZM30.7733 31.3944C31.3434 31.2561 31.9318 31.0458 32.3693 31.6046C32.8251 32.1902 32.6727 33.1343 31.9361 33.3812C31.4478 33.5435 30.858 33.686 30.4431 33.2881C29.8998 32.7702 29.9393 31.5891 30.7733 31.3944ZM30.2441 37.6681C30.096 38.1888 29.6656 38.2679 29.214 38.3765C28.9177 38.0125 28.1218 37.0938 28.1091 36.9852C28.1049 36.9485 28.1091 36.9076 28.1246 36.8582C28.1627 36.7495 28.2883 36.6437 28.3801 36.5844C28.651 36.408 29.2281 36.2768 29.54 36.3403C30.0988 36.4602 30.3923 37.1432 30.2441 37.6681ZM27.4149 34.987C27.007 33.5435 29.4285 32.9127 29.8025 34.3309C30.1877 35.7857 27.7436 36.4038 27.4149 34.987ZM27.0593 32.1041C26.6444 30.6676 29.0772 30.0369 29.4511 31.4466C29.8363 32.9057 27.388 33.5237 27.0593 32.1041ZM26.7178 29.2692C26.3212 27.9301 28.6073 27.3374 28.9558 28.6582C29.3142 30.0157 27.0296 30.5999 26.7178 29.2692ZM26.4849 34.7246C26.372 34.7909 26.3297 34.8262 26.293 34.8262L25.205 33.6437C25.2192 33.6112 25.555 33.3671 25.6665 33.3036C26.5696 32.8012 27.3147 34.2363 26.4849 34.7246ZM24.4219 32.0618C23.8842 30.8765 25.84 29.591 26.4327 30.8694C26.9774 32.0477 25.0216 33.3558 24.4219 32.0618ZM26.0658 28.3097C26.6853 29.4075 24.8212 30.6338 24.2878 29.4527C23.8151 28.4324 25.4703 27.2443 26.0658 28.3097ZM24.5037 25.7485C24.7775 25.5058 25.0964 25.3732 25.4224 25.5298C25.9445 25.7824 25.9586 26.5655 25.5028 26.8774C25.2954 27.0199 24.944 27.1949 24.6886 27.1314C24.1298 26.9889 24.0225 26.1732 24.5037 25.7485ZM24.5743 23.3934C24.8001 23.241 25.1006 23.1041 25.3589 23.2099C25.8302 23.4018 25.8146 24.0862 25.4336 24.36C25.2587 24.4842 24.944 24.638 24.7323 24.5815C24.2554 24.4616 24.1382 23.6883 24.5743 23.3934ZM25.8259 20.0377C26.1067 19.8853 26.5103 19.8233 26.7629 20.1055C27.0578 20.4371 26.9633 20.9409 26.5738 21.1398C26.2733 21.2908 25.8697 21.3458 25.6326 21.0679C25.3744 20.7687 25.4266 20.2536 25.8259 20.0377ZM25.603 22.5862C25.3772 21.7466 26.7926 21.3501 27.0212 22.2038C27.278 23.0335 25.8288 23.4456 25.603 22.5862ZM27.8848 24.0538C28.215 24.9611 26.6768 25.4747 26.3777 24.5787C26.0701 23.6714 27.6138 23.1535 27.8848 24.0538ZM28.0781 19.6328C28.3702 19.5142 28.7469 19.3886 29.0729 19.6328C29.4807 19.9376 29.3918 20.6219 28.9247 20.8364C28.6171 20.9747 28.2262 21.0679 27.9511 20.8251C27.6039 20.5133 27.5842 19.8303 28.0781 19.6328ZM27.8071 27.2259C27.3923 27.3219 26.9591 27.4884 26.6148 27.1314C26.1731 26.677 26.3001 25.8826 26.8956 25.6652C27.2808 25.5199 27.769 25.4367 28.0837 25.7598C28.4887 26.1718 28.4436 27.0721 27.8071 27.2259ZM27.8142 22.5904C27.5475 21.6916 29.0136 21.2301 29.2959 22.1036C29.5837 22.9997 28.0668 23.4752 27.8142 22.5904ZM30.2695 24.24C30.6139 25.2673 28.8768 25.8162 28.5579 24.8031C28.2361 23.7687 29.9845 23.2212 30.2695 24.24ZM30.3627 21.4884C30.6675 21.4065 30.992 21.4362 31.2249 21.6873C31.5805 22.0697 31.4591 22.7217 30.9328 22.8205C30.6844 22.8642 30.3034 22.8459 30.1101 22.6765C29.7615 22.3703 29.7785 21.645 30.3627 21.4884ZM31.8429 23.6445C32.4017 23.6445 32.684 24.4658 32.358 24.875C32.1619 25.122 31.7399 25.1375 31.4506 25.0923C30.9172 25.0091 30.5772 24.3233 30.9356 23.8576C31.1543 23.5768 31.5283 23.6445 31.8429 23.6445ZM29.159 27.027C28.8147 25.8459 30.8213 25.3167 31.1289 26.4907C31.4394 27.6831 29.4215 28.2081 29.159 27.027ZM30.3881 28.5383C30.9356 28.4818 31.5071 28.3534 31.8429 28.9277C32.1957 29.5345 31.9318 30.3784 31.222 30.5209C30.755 30.6182 30.1877 30.6634 29.8547 30.2514C29.4172 29.7038 29.5922 28.6131 30.3881 28.5383ZM33.175 25.9065C33.851 26.1859 34.0796 26.986 33.6026 27.432C33.3472 27.6648 32.8801 27.6182 32.5654 27.5547C31.9361 27.432 31.524 26.4851 32.0772 26.0364C32.3594 25.8064 32.8674 25.7795 33.175 25.9065ZM34.239 28.7556C34.6652 29.2763 34.5057 30.1991 33.7621 30.2443C33.3726 30.2655 32.866 30.2217 32.6035 29.9028C32.1802 29.392 32.3397 28.4367 33.0833 28.4099C33.4728 28.3957 33.9766 28.4367 34.239 28.7556ZM37.1163 19.3519C37.0754 19.2913 37.002 19.2574 36.9286 19.28C36.8397 19.3096 36.7804 19.4084 36.8129 19.4945C38.5133 24.0608 36.343 26.3101 35.4356 29.5091C34.3463 26.9098 37.9545 24.4658 36.0946 19.7301C36.0692 19.6709 36.0213 19.6215 35.9549 19.6102C35.8618 19.5989 35.7729 19.637 35.7574 19.7598C35.7094 20.0942 35.4907 22.7189 33.3613 24.2556C33.1426 23.7532 32.8208 23.2283 32.3693 22.8162C32.1731 21.9315 31.596 20.7165 30.381 20.3567C30.199 19.8995 29.8321 19.2419 29.1294 18.8905C28.4661 18.5603 27.6985 18.5899 26.8476 18.9766C25.8175 19.0965 25.1105 19.4973 24.7366 20.169C24.3852 20.8026 24.4473 21.4926 24.5658 21.9611C23.6994 22.8868 23.6585 24.2598 23.681 24.796C23.1674 26.0321 23.4553 27.4771 23.6175 28.0768C23.0037 29.7561 23.6034 31.3873 23.8447 31.9278C23.8447 32.0731 23.8518 32.2128 23.8588 32.3511C21.8452 30.1455 17.2605 27.4164 15.5078 26.375C15.426 26.3256 15.323 26.3369 15.2524 26.4047C15.1635 26.4865 15.1593 26.622 15.2411 26.7109C19.1485 30.5209 22.634 35.2227 25.9812 44.9791C27.6519 43.2434 30.6689 40.9603 34.9657 40.9603H39.9907C36.7988 29.066 41.447 24.8101 37.1163 19.3519ZM60.8739 25.5002C59.9552 25.2603 54.0892 24.2217 47.5162 36.3149C48.4758 31.8106 51.3897 26.3623 52.1898 24.7805V24.7692C52.2378 24.6789 52.2124 24.5632 52.1306 24.4997C52.0487 24.439 51.926 24.4588 51.8639 24.5477C47.519 31.7923 45.9936 35.9649 45.0947 40.9603H47.8154C48.2782 36.1456 54.3601 24.8031 60.84 25.6469H60.8485C60.8851 25.654 60.9176 25.6243 60.9218 25.5905C60.9374 25.5495 60.9105 25.5086 60.8739 25.5002ZM47.8055 65.34L46.3351 59.1932H43.8318C44.2269 60.7539 44.7942 62.34 45.528 63.7299C45.5745 63.8132 45.6634 63.8626 45.7523 63.847C45.8709 63.8315 45.964 63.7087 45.9428 63.5803C45.7721 62.2793 45.5689 61.0234 45.3756 59.7718C45.9047 61.7388 46.6202 63.6622 47.5825 65.4331C47.6079 65.4882 47.6644 65.515 47.7166 65.4966C47.7857 65.4811 47.8238 65.4077 47.8055 65.34ZM50.3342 62.5488C50.0788 61.5229 49.8121 60.2614 49.5821 59.1932H48.631C49.0007 60.3334 49.5017 61.6048 49.9462 62.6928C49.9899 62.7972 50.0901 62.8494 50.1861 62.824C50.3018 62.7887 50.3639 62.6659 50.3342 62.5488ZM50.6531 66.1641L50.6461 66.1486C50.337 65.2906 49.9123 64.5215 49.575 63.6975C49.2166 62.872 48.8681 62.062 48.5788 61.2153C48.3375 60.5817 48.0821 59.8536 47.8859 59.1932H46.9673C47.2269 59.9622 47.5642 60.7906 47.8789 61.5342C48.5717 63.2092 49.3718 64.8517 50.3907 66.3207C50.4259 66.3743 50.4979 66.3969 50.5642 66.3701C50.6461 66.3405 50.6828 66.2459 50.6531 66.1641ZM52.0262 36.6705C51.9556 36.5661 51.7863 36.5435 51.7044 36.6296C50.0351 38.392 49.0233 40.266 48.6748 40.9603H49.6682C50.1635 39.7933 51.2825 37.7345 52.0008 36.9922L52.0092 36.9852C52.0826 36.9033 52.0967 36.7636 52.0262 36.6705ZM44.4724 28.1403C45.3911 26.6333 46.7528 25.4776 47.9085 24.0834C47.9494 24.0298 47.9452 23.9479 47.8972 23.9028C47.8535 23.8548 47.7787 23.8548 47.7307 23.9C47.4682 24.1808 47.1931 24.4432 46.9123 24.7057C46.7895 24.645 46.4791 24.765 46.1644 25.0133C45.916 25.208 45.7382 25.4254 45.6761 25.5834C45.5153 25.5453 45.2161 25.733 44.9466 26.0787C44.7236 26.3666 44.5938 26.6714 44.598 26.8576C44.4273 26.8732 44.1789 27.0905 43.9687 27.4362C43.8318 27.6648 43.7429 27.8849 43.7133 28.0684C43.575 28.1629 43.4198 28.3393 43.2758 28.5679C43.0867 28.8826 42.9908 29.2015 43.0204 29.3849C42.9752 29.464 42.9315 29.5387 42.8948 29.6178C42.9019 29.5543 42.9089 29.4936 42.916 29.4301C43.1869 27.2965 43.5792 25.1812 44.1761 23.1422C44.7758 21.1102 45.4941 19.0584 46.7274 17.4131L46.7345 17.406C46.798 17.3157 46.7895 17.1915 46.7119 17.1097C46.6343 17.0236 46.5059 17.0194 46.424 17.1055C45.9979 17.5598 45.638 18.065 45.3163 18.5871C45.1752 18.5109 44.8788 18.7889 44.6531 19.2235C44.4456 19.6172 44.3723 19.9813 44.4499 20.1196C44.4499 20.1196 44.4456 20.1309 44.4386 20.1281C44.2904 20.0631 44.0166 20.3933 43.8501 20.8364C43.6864 21.2527 43.6568 21.6351 43.7683 21.7621C43.7612 21.7692 43.7612 21.7734 43.757 21.7805C43.5905 21.7212 43.3196 22.0994 43.153 22.6356C43.0162 23.09 43.0021 23.4837 43.1022 23.6417C43.1093 23.6474 43.1022 23.6671 43.0938 23.6629C42.9244 23.6036 42.6648 23.9931 42.5138 24.5265C42.3614 25.0387 42.3713 25.4931 42.5166 25.5834C42.3501 25.5637 42.1159 25.9545 41.9945 26.4823C41.883 26.9395 41.8943 27.3346 42.0016 27.4912C41.8379 27.5406 41.6573 27.923 41.5655 28.4169C41.4766 28.9009 41.5204 29.3031 41.6389 29.4301C41.4865 29.5091 41.3313 29.9028 41.2763 30.3896C41.2212 30.8737 41.2904 31.2716 41.4174 31.3986C41.2904 31.5411 41.169 31.8784 41.1168 32.2834C41.0646 32.67 41.0985 33.003 41.1718 33.1907C41.035 33.3078 40.9305 33.6973 40.9277 34.1658C40.9164 34.5411 40.9729 34.8586 41.0688 35.0435C40.994 35.2297 40.9432 35.5049 40.9432 35.8083C40.9348 36.202 40.9983 36.5393 41.0985 36.7156C41.0688 38.0985 41.0872 39.5731 41.162 40.9603H44.1493C44.1719 39.8793 44.2424 38.7025 44.3497 37.6343C44.5613 35.7293 44.876 33.7946 45.8271 32.1676L45.8356 32.1564C45.8652 32.0957 45.861 32.0279 45.8158 31.9757C45.7608 31.9278 45.6832 31.9278 45.631 31.987C44.3384 33.487 43.7725 35.5233 43.4381 37.4762C43.3788 37.8586 43.3308 38.2453 43.2871 38.6277C43.3675 37.06 43.5129 35.5007 43.8713 34.0162C44.2834 32.2086 45.1046 30.487 46.671 29.5246C46.7189 29.4936 46.7458 29.4301 46.7274 29.3666C46.7091 29.2946 46.6343 29.2537 46.5708 29.272C46.472 29.3031 46.3789 29.3553 46.2829 29.3962C46.1799 29.2692 45.7975 29.3624 45.4052 29.6135C45.0312 29.8577 44.7829 30.1568 44.8083 30.3219C44.8083 30.3304 44.7899 30.3417 44.7899 30.3261C44.7871 30.3078 44.7829 30.288 44.7716 30.2782C44.6305 30.161 44.2537 30.4235 43.9348 30.8694C43.6131 31.3167 43.4861 31.781 43.6244 31.9009C43.6314 31.9052 43.6272 31.9165 43.6201 31.9165C43.4536 31.8487 43.1756 32.2269 43.0021 32.7561C42.8751 33.1272 42.8454 33.4687 42.8906 33.6634C42.8906 33.6705 42.8835 33.6775 42.8835 33.6775C42.7537 34.1065 42.6465 34.5369 42.5463 34.9757C42.583 34.3563 42.638 33.734 42.7269 33.1201C42.9908 31.3492 43.5242 29.6178 44.4724 28.1403ZM53.8747 23.2057C53.6856 23.1154 53.4373 23.0928 53.1889 23.1535C53.0041 23.1986 52.8559 23.2889 52.7303 23.3934C52.7486 23.2353 52.7486 23.0787 52.7049 22.9065C52.6456 22.6356 52.5116 22.4141 52.3493 22.2715C51.5407 21.4658 52.0967 19.0401 51.9076 19.0105C51.7228 18.9836 51.7891 21.4023 51.4081 22.534C51.3305 22.7443 51.3149 23.011 51.3827 23.2805C51.449 23.5472 51.5816 23.7715 51.7482 23.9183C51.9076 24.0566 52.1009 24.1201 52.2816 24.0636C52.331 24.0566 52.3789 24.034 52.4199 24.0044C52.4199 24.034 52.4199 24.0636 52.4227 24.0947C52.4636 24.2922 52.6047 24.4475 52.7966 24.5364C52.9928 24.6309 53.2341 24.6535 53.4852 24.5886C53.7421 24.5293 53.9523 24.391 54.0892 24.2217C54.8484 23.3412 56.6335 22.0853 56.5262 21.9159C56.419 21.7508 54.9119 23.6036 53.8747 23.2057ZM57.3263 20.1492C57.212 19.9855 55.7811 21.6535 54.8075 21.2372C54.6226 21.1441 54.3968 21.1172 54.1711 21.1765C54.0455 21.2146 53.9382 21.2823 53.838 21.3642C53.8338 21.2965 53.838 21.2372 53.8225 21.1765C53.7632 20.9338 53.6306 20.7419 53.4641 20.6149C52.6485 19.9023 53.2891 17.7362 53.0972 17.7122C52.901 17.6897 52.9039 19.8458 52.4819 20.859C52.393 21.0467 52.3676 21.2781 52.4297 21.518C52.489 21.7593 52.6231 21.9569 52.7896 22.0853C52.9561 22.2038 53.1522 22.2617 53.3455 22.2165C53.4302 22.1939 53.505 22.1488 53.5713 22.0994C53.5713 22.1107 53.5671 22.1262 53.5713 22.1375C53.6306 22.3435 53.7717 22.5044 53.9523 22.5989C54.1372 22.685 54.363 22.7146 54.5817 22.6511C54.8075 22.5904 54.9853 22.4522 55.0967 22.2842C55.7007 21.3797 57.4406 20.3228 57.3263 20.1492ZM57.6777 18.0608C57.5521 17.931 56.5262 19.6469 55.5963 19.4408C55.4227 19.3929 55.2181 19.4042 55.0347 19.4973C54.9415 19.5354 54.8625 19.5989 54.7976 19.6624C54.7976 19.6215 54.8075 19.5805 54.8075 19.5354C54.7863 19.3181 54.6974 19.1149 54.5676 18.9794C53.941 18.2146 54.8117 16.4041 54.6452 16.3477C54.4744 16.2983 54.1781 18.2047 53.6602 19.033C53.5558 19.1897 53.505 19.3929 53.5262 19.6144C53.5417 19.8345 53.6334 20.0335 53.7632 20.1732C53.8973 20.3115 54.0596 20.3863 54.2374 20.375C54.3714 20.3708 54.4857 20.3002 54.5817 20.2057C54.5817 20.2819 54.5972 20.3637 54.6339 20.4427C54.7143 20.6149 54.8597 20.7348 55.0375 20.7842C55.2125 20.8407 55.4199 20.8251 55.6033 20.7348C55.7924 20.6417 55.9293 20.4907 56.0041 20.3228C56.4119 19.4183 57.8004 18.1934 57.6777 18.0608ZM57.0638 15.6774C56.8522 15.5264 56.1819 17.1958 55.386 17.6304C55.2379 17.7094 55.0967 17.8519 54.9966 18.0467C54.8964 18.2456 54.8597 18.4545 54.8865 18.6309C54.9048 18.8073 54.9853 18.9583 55.1151 19.033C55.2477 19.1121 55.4086 19.1078 55.5596 19.0288C55.7148 18.9498 55.8517 18.8073 55.9561 18.6097C56.0521 18.4136 56.0888 18.2047 56.0676 18.0283C56.0083 17.0829 57.212 15.7706 57.0638 15.6774ZM42.4461 59.1932H34.0584C33.4883 59.1932 32.9732 59.148 32.4991 59.0634C32.5019 59.0634 32.5019 59.0662 32.5019 59.0662C33.8806 61.1137 36.0396 62.6659 38.2282 63.7088C38.5655 65.5756 38.9874 67.3028 39.1384 67.4383C39.2951 67.5738 41.4428 66.9543 41.5091 66.7567C41.5726 66.5578 40.6314 63.3602 40.6314 63.3602C41.7603 61.4213 42.1088 60.2769 42.4461 59.1932ZM63.5479 73.5428C61.4298 74.3795 58.6669 74.4501 56.4119 73.8504C51.2458 72.2417 45.5096 69.1937 40.002 71.7239C34.4944 69.1937 28.7582 72.2417 23.5921 73.8504C21.3372 74.4501 18.5742 74.3795 16.4561 73.5428C16.3968 73.5216 16.3517 73.595 16.4039 73.6373C19.4519 75.9953 23.722 77.079 27.5658 75.6919C31.2573 74.5404 34.3801 70.6302 38.7532 72.2982C35.2917 73.6514 32.0546 76.1491 29.5541 78.507L31.373 80C33.6435 77.3556 36.1991 74.7126 39.0904 73.1053C39.487 72.8725 39.724 72.7779 40.002 72.7638C40.28 72.7779 40.5157 72.8725 40.9094 73.1053C43.805 74.7126 46.3605 77.3556 48.631 80L50.4499 78.507C47.9494 76.1491 44.7123 73.6514 41.2509 72.2982C45.6239 70.6302 48.7453 74.5404 52.4382 75.6919C56.2821 77.079 60.5521 75.9953 63.5987 73.6373C63.6481 73.595 63.6072 73.5216 63.5479 73.5428ZM29.4991 69.9811C24.1001 68.6716 22.6227 63.61 18.1085 61.4143C18.0591 61.3875 18.0083 61.4439 18.038 61.4877C19.4604 63.8287 20.2309 67.4129 24.3287 69.6213C24.3626 69.6396 24.3443 69.6933 24.3076 69.6806C18.426 68.5489 15.9566 70.1222 9.79423 67.3381C9.74202 67.3141 9.68557 67.3706 9.71944 67.42C11.7458 70.3593 16.5521 72.3687 23.1378 71.8156C25.507 71.6124 27.2258 70.6147 29.4991 70.0827C29.5541 70.0672 29.5541 69.9924 29.4991 69.9811ZM18.189 66.8767C16.1372 64.1871 16.7228 58.4481 12.0901 53.1946C12.0534 53.1537 11.9857 53.1875 11.997 53.2397C12.8818 57.109 12.6193 61.5032 15.0408 64.7233C15.0633 64.7586 15.0295 64.7911 14.997 64.7699C10.219 61.0093 5.3097 59.8762 3.12388 56.8324C3.09142 56.7901 3.02369 56.8127 3.03216 56.8649C3.57261 60.8061 11.1418 66.9472 18.148 66.9585C18.189 66.9585 18.2158 66.9106 18.189 66.8767ZM11.0163 59.7294C8.81633 55.6513 11.4452 49.4269 8.94897 43.3775C8.92357 43.314 8.82762 43.3295 8.82762 43.3972C8.75283 46.7006 6.70106 51.6311 7.94143 55.355C7.95696 55.3874 7.91321 55.4072 7.89346 55.3762C4.73537 50.7618 2.22782 49.7966 0.139366 45.5718C0.109733 45.5083 0.0137767 45.5266 0.00954335 45.5943C-0.123102 48.4659 1.1469 50.8056 2.57919 52.9801C4.87225 55.9237 7.82431 58.252 10.9457 59.8042C10.9937 59.8282 11.0374 59.7774 11.0163 59.7294ZM9.5233 34.8854C9.52047 34.8177 9.43157 34.7951 9.39771 34.8558C7.71989 37.9941 4.73114 40.4904 4.63518 44.6348C4.63095 44.6757 4.58721 44.6785 4.58015 44.6418C4.03546 41.4429 1.32047 37.8586 1.20194 33.2288C1.20194 33.1568 1.10175 33.1385 1.07635 33.2062C-1.15745 39.2274 2.05425 44.9382 5.47198 49.6555C5.50867 49.7035 5.58346 49.6739 5.58346 49.6089C5.44235 44.6108 9.77589 40.8812 9.5233 34.8854ZM11.6569 27.0933C10.0708 29.2946 6.50492 30.8511 5.20245 34.0261C5.1827 34.0726 5.12767 34.0599 5.13472 34.0077C5.6526 30.4503 4.27958 26.3186 5.56793 21.59C5.58769 21.5222 5.50161 21.4771 5.46069 21.5293C3.51335 23.9254 2.85436 26.7335 2.7457 29.7673C2.61306 33.4941 3.92398 36.2133 4.57168 38.7406C4.58721 38.7999 4.66482 38.7956 4.67893 38.7364C5.61309 35.4217 10.2966 33.4278 11.7641 27.1469C11.7825 27.0792 11.6978 27.0383 11.6569 27.0933ZM15.9566 19.692C13.3488 21.7353 9.36807 23.7038 8.51294 25.1262C8.49741 25.1558 8.45367 25.1333 8.46072 25.1036L9.42734 20.4653C9.86055 18.4968 10.2345 16.6102 11.3225 14.8477C11.3563 14.7955 11.2928 14.7362 11.2449 14.7729C6.28337 18.7028 7.00869 24.3868 6.78996 29.0406C6.78714 29.0886 6.84641 29.1112 6.87886 29.0773C9.80129 25.9094 14.5638 24.0636 16.037 19.7569C16.0554 19.7047 16.0003 19.6582 15.9566 19.692ZM19.6481 12.5687C15.2637 12.707 12.0421 16.3999 10.6607 21.1017C10.6522 21.1285 10.6903 21.1511 10.7115 21.1356C16.7525 16.7075 16.4152 14.811 19.6848 12.7042C19.744 12.6661 19.7186 12.5687 19.6481 12.5687ZM70.207 67.3381C64.0475 70.1222 61.5738 68.5489 55.6922 69.6806C55.6555 69.6933 55.6372 69.6396 55.6711 69.6213C59.7704 67.4129 60.5408 63.8287 61.9632 61.4877C61.9929 61.4439 61.9407 61.3875 61.8927 61.4143C57.3813 63.61 55.9039 68.6716 50.5007 69.9811C50.4457 69.9924 50.4457 70.0672 50.5007 70.0827C52.774 70.6147 54.4928 71.6124 56.8635 71.8156C63.4477 72.3687 68.2582 70.3593 70.2804 67.42C70.3142 67.3706 70.2578 67.3141 70.207 67.3381ZM76.8759 56.8324C74.6915 59.8762 69.7808 61.0093 65.0042 64.7699C64.9746 64.7911 64.9365 64.7586 64.9633 64.7233C67.3805 61.5032 67.118 57.109 68.0028 53.2397C68.0141 53.1875 67.9464 53.1537 67.9111 53.1946C63.2812 58.4481 63.8626 64.1871 61.8151 66.8767C61.7883 66.9106 61.8108 66.9585 61.856 66.9585C68.8622 66.9472 76.4286 60.8061 76.9691 56.8649C76.9761 56.8127 76.9098 56.7901 76.8759 56.8324ZM79.9903 45.5943C79.9874 45.5266 79.8901 45.5083 79.8604 45.5718C77.772 49.7966 75.2644 50.7618 72.1106 55.3762C72.088 55.4072 72.0471 55.3874 72.0584 55.355C73.2988 51.6311 71.2512 46.7006 71.1736 43.3972C71.1736 43.3295 71.0762 43.314 71.0508 43.3775C68.5546 49.4269 71.1835 55.6513 68.9878 59.7294C68.9624 59.7774 69.0061 59.8282 69.0555 59.8042C72.1769 58.252 75.1276 55.9237 77.4206 52.9801C78.8529 50.8056 80.1243 48.4659 79.9903 45.5943ZM78.9235 33.2062C78.8981 33.1385 78.7979 33.1568 78.7979 33.2288C78.6793 37.8586 75.9658 41.4429 75.4211 44.6418C75.4126 44.6785 75.3689 44.6757 75.3689 44.6348C75.2729 40.4904 72.2799 37.9941 70.6021 34.8558C70.5696 34.7951 70.4807 34.8177 70.4807 34.8854C70.2281 40.8812 74.5589 44.6108 74.4164 49.6089C74.4164 49.6739 74.4954 49.7035 74.5321 49.6555C77.9456 44.9382 81.1573 39.2274 78.9235 33.2062ZM77.2541 29.7673C77.1455 26.7335 76.4879 23.9254 74.5391 21.5293C74.4996 21.4771 74.4164 21.5222 74.4319 21.59C75.7202 26.3186 74.3472 30.4503 74.8693 34.0077C74.8764 34.0599 74.8171 34.0726 74.7988 34.0261C73.4949 30.8511 69.929 29.2946 68.3443 27.0933C68.3062 27.0383 68.2215 27.0792 68.2371 27.1469C69.7032 33.4278 74.3867 35.4217 75.3209 38.7364C75.335 38.7956 75.4126 38.7999 75.4281 38.7406C76.0758 36.2133 77.3868 33.4941 77.2541 29.7673ZM68.755 14.7729C68.707 14.7362 68.6435 14.7955 68.6773 14.8477C69.7653 16.6102 70.1393 18.4968 70.5725 20.4653L71.5391 25.1036C71.5475 25.1333 71.5024 25.1558 71.4883 25.1262C70.6317 23.7038 66.6552 21.7353 64.0446 19.692C64.0037 19.6582 63.9445 19.7047 63.9628 19.7569C65.436 24.0636 70.1985 25.9094 73.1209 29.0773C73.1534 29.1112 73.2127 29.0886 73.2099 29.0406C72.9911 24.3868 73.7164 18.7028 68.755 14.7729ZM60.3517 12.5687C60.2812 12.5687 60.2586 12.6661 60.3151 12.7042C63.5846 14.811 63.2474 16.7075 69.2884 21.1356C69.3138 21.1511 69.3476 21.1285 69.3391 21.1017C67.9591 16.3999 64.7375 12.707 60.3517 12.5687Z"
      fill="#007DBC" />
  </g>
  <defs>
    <clipPath id="clip0_195_1525">
      <rect width="80" height="120" fill="white" />
    </clipPath>
  </defs>
</svg>