<svg width="80" height="133" viewBox="0 0 80 133" fill="none" xmlns="http://www.w3.org/2000/svg">
  <g clip-path="url(#clip0_195_1576)">
    <path
      d="M40.7188 124.008C41.8403 124.008 42.7119 124.328 43.3369 124.966C43.962 125.605 44.2744 126.487 44.2744 127.613V128.664H39.1572C39.1798 129.278 39.3626 129.758 39.7041 130.104C40.0456 130.449 40.5226 130.623 41.1377 130.623C41.6159 130.623 42.0672 130.571 42.4932 130.473C42.9193 130.374 43.3629 130.215 43.8271 129.998V131.673C43.449 131.862 43.0451 132.003 42.6133 132.095C42.183 132.188 41.6583 132.232 41.0391 132.232C39.7606 132.232 38.7608 131.88 38.0439 131.176C37.3244 130.47 36.9648 129.472 36.9648 128.18C36.9649 126.852 37.2966 125.825 37.9609 125.099C38.627 124.372 39.5461 124.008 40.7188 124.008ZM56.7207 124.157H58.9414V125.782H56.7207V129.608C56.7208 129.916 56.807 130.143 56.9805 130.288C57.1525 130.435 57.3807 130.509 57.6641 130.509C58.0408 130.509 58.4972 130.426 59.0264 130.26V131.87C58.4873 132.111 57.8236 132.232 57.0391 132.232C56.1727 132.232 55.5435 132.014 55.1484 131.576C54.7521 131.139 54.5557 130.483 54.5557 129.608V125.782H53.5186V124.867L54.7109 124.143L55.3359 122.47H56.7207V124.157ZM63.334 124.008C64.096 124.008 64.7682 124.174 65.3496 124.506C65.9308 124.836 66.3791 125.312 66.6895 125.933C67.0026 126.552 67.1582 127.279 67.1582 128.111C67.1581 129.401 66.8178 130.411 66.1377 131.141C65.4548 131.869 64.5082 132.232 63.292 132.232C62.5301 132.232 61.8581 132.066 61.2754 131.733C60.694 131.399 60.2464 130.919 59.9346 130.295C59.6229 129.671 59.4668 128.944 59.4668 128.111C59.4668 126.815 59.8047 125.807 60.4805 125.087C61.1564 124.367 62.1078 124.008 63.334 124.008ZM71.0156 124.008C71.9724 124.008 72.9016 124.217 73.8047 124.633L73.1514 126.193C72.755 126.024 72.3837 125.886 72.0381 125.774C71.6924 125.667 71.3389 125.612 70.9805 125.612C70.3414 125.612 70.0225 125.784 70.0225 126.13C70.0225 126.325 70.1256 126.492 70.3301 126.635C70.5375 126.776 70.9876 126.986 71.6816 127.266C72.3025 127.517 72.7571 127.752 73.0449 127.969C73.3342 128.186 73.5477 128.437 73.6846 128.721C73.8214 129.004 73.8906 129.342 73.8906 129.735C73.8906 130.549 73.6078 131.167 73.042 131.595C72.4761 132.019 71.6309 132.232 70.5049 132.232C69.9279 132.232 69.4356 132.194 69.0293 132.115C68.6229 132.036 68.2413 131.923 67.8857 131.772V129.982C68.2879 130.173 68.7414 130.331 69.2451 130.459C69.7489 130.586 70.1938 130.651 70.5762 130.651C71.3616 130.651 71.7537 130.424 71.7539 129.97C71.7539 129.799 71.7016 129.661 71.5986 129.555C71.4942 129.448 71.3154 129.327 71.0586 129.191C70.8033 129.057 70.4631 128.9 70.0371 128.721C69.4277 128.465 68.9774 128.229 68.6924 128.011C68.406 127.794 68.1976 127.544 68.0664 127.262C67.9366 126.981 67.8721 126.635 67.8721 126.223C67.8721 125.517 68.1463 124.973 68.6924 124.588C69.2384 124.201 70.0126 124.008 71.0156 124.008ZM15.585 132.092H13.2148L12.4629 129.622H8.67969L7.92773 132.092H5.55664L9.21875 121.674H11.9082L15.585 132.092ZM18.4707 132.092H16.3066V121.05H18.4707V132.092ZM22.2217 132.092H20.0566V124.157H22.2217V132.092ZM33.127 124.008C34.0256 124.008 34.7056 124.24 35.167 124.7C35.627 125.162 35.8584 125.902 35.8584 126.919V132.092H33.6865V127.458C33.6865 126.887 33.5895 126.455 33.4004 126.169C33.2071 125.884 32.9066 125.74 32.4961 125.74C31.9641 125.74 31.57 125.93 31.3047 126.308C31.0437 126.686 30.9111 127.287 30.9111 128.111V132.092H28.748V127.458C28.748 126.887 28.651 126.455 28.4619 126.169C28.2686 125.884 27.9679 125.74 27.5547 125.74C27.0015 125.74 26.5994 125.944 26.3496 126.352C26.0985 126.758 25.9727 127.426 25.9727 128.357V132.092H23.8076V124.157H25.4619L25.752 125.173H25.874C26.0857 124.808 26.3943 124.524 26.7949 124.316C27.1985 124.112 27.659 124.008 28.1797 124.008C29.3676 124.008 30.1717 124.397 30.5908 125.173H30.7842C30.9958 124.803 31.3112 124.517 31.7246 124.314C32.138 124.11 32.6064 124.008 33.127 124.008ZM49.9727 124.008C50.8953 124.008 51.5949 124.257 52.0732 124.757C52.5502 125.256 52.79 125.976 52.79 126.919V132.092H50.626V127.458C50.626 126.887 50.5231 126.455 50.3213 126.169C50.1167 125.884 49.7934 125.74 49.3477 125.74C48.7439 125.74 48.3047 125.943 48.0352 126.347C47.7657 126.752 47.6319 127.421 47.6318 128.357V132.092H45.4658V124.157H47.1191L47.4102 125.173H47.5312C47.7725 124.789 48.1042 124.499 48.5273 124.303C48.9507 124.107 49.4336 124.008 49.9727 124.008ZM63.3057 125.754C62.7286 125.754 62.312 125.949 62.0566 126.34C61.8013 126.729 61.6729 127.321 61.6729 128.111C61.6729 128.896 61.8029 129.49 62.0596 129.892C62.3178 130.292 62.7389 130.494 63.3203 130.494C63.8973 130.494 64.3125 130.294 64.5664 129.895C64.8189 129.495 64.9453 128.9 64.9453 128.111C64.9453 127.325 64.8174 126.737 64.5635 126.343C64.3067 125.951 63.887 125.754 63.3057 125.754ZM10.5742 123.285C10.4175 123.889 9.97173 125.388 9.23242 127.776H11.9375C11.2405 125.539 10.8492 124.273 10.7617 123.981C10.6743 123.687 10.6123 123.454 10.5742 123.285ZM40.7324 125.549C40.2738 125.549 39.9139 125.694 39.6543 125.984C39.3947 126.277 39.2451 126.689 39.207 127.224H42.2441C42.2343 126.689 42.0957 126.277 41.8262 125.984C41.5567 125.694 41.191 125.549 40.7324 125.549ZM21.1436 121.05C21.928 121.05 22.3222 121.401 22.3223 122.107C22.3223 122.442 22.2233 122.703 22.0273 122.89C21.8298 123.077 21.5358 123.171 21.1436 123.171C20.3576 123.171 19.9658 122.816 19.9658 122.107C19.9659 121.401 20.3577 121.05 21.1436 121.05ZM18.7324 112.791C18.7325 113.364 18.8325 113.793 19.0371 114.079C19.2403 114.365 19.5631 114.51 20.0088 114.51C20.6141 114.51 21.0518 114.306 21.3213 113.901C21.5908 113.498 21.7265 112.828 21.7266 111.891V108.156H23.8906V116.091H22.2305L21.9395 115.076H21.8252C21.5938 115.444 21.2649 115.73 20.8389 115.932C20.4127 116.132 19.9285 116.233 19.3838 116.233C18.4511 116.233 17.7495 115.984 17.2754 115.484C16.8028 114.985 16.5664 114.267 16.5664 113.331V108.156H18.7324V112.791ZM41.3408 116.091H39.6787L39.2607 115.063H39.167C38.6759 115.843 37.9254 116.233 36.918 116.233C35.9868 116.233 35.2526 115.871 34.7207 115.148C34.1888 114.424 33.9239 113.422 33.9238 112.138C33.9238 110.837 34.1935 109.824 34.7354 109.098C35.2786 108.371 36.0236 108.009 36.9746 108.009C37.9737 108.009 38.7358 108.397 39.2607 109.173H39.3311C39.2224 108.582 39.167 108.053 39.167 107.589V105.05H41.3408V116.091ZM49.9072 107.994C50.9712 107.994 51.7872 108.226 52.3545 108.69C52.9229 109.153 53.207 109.859 53.207 110.804V116.091H51.6943L51.2773 115.012H51.2197C50.8557 115.472 50.4799 115.789 50.0947 115.967C49.7082 116.145 49.2076 116.233 48.5869 116.233C47.8249 116.233 47.2246 116.015 46.7871 115.58C46.3499 115.144 46.1319 114.526 46.1318 113.721C46.1318 112.88 46.4264 112.258 47.0146 111.858C47.6045 111.459 48.4925 111.237 49.6807 111.193L51.0557 111.152V110.804C51.0556 110.001 50.6439 109.599 49.8213 109.599C49.1877 109.599 48.4424 109.789 47.5859 110.173L46.8691 108.711C47.7821 108.233 48.7954 107.994 49.9072 107.994ZM68.5029 116.091H66.8408L66.4229 115.063H66.3311C65.8386 115.843 65.0876 116.233 64.0801 116.233C63.1491 116.233 62.4157 115.871 61.8838 115.148C61.3519 114.424 61.086 113.422 61.0859 112.138C61.0859 110.837 61.3556 109.824 61.8975 109.098C62.4407 108.371 63.1858 108.009 64.1367 108.009C65.1358 108.009 65.8979 108.397 66.4229 109.173H66.4932C66.3845 108.582 66.3311 108.053 66.3311 107.589V105.05H68.5029V116.091ZM73.4082 108.009C74.5296 108.009 75.4013 108.327 76.0264 108.965C76.6515 109.604 76.9639 110.486 76.9639 111.612V112.664H71.8467C71.8693 113.279 72.0521 113.759 72.3936 114.105C72.735 114.45 73.212 114.622 73.8271 114.622C74.3053 114.622 74.7566 114.572 75.1826 114.474C75.6088 114.374 76.0524 114.215 76.5166 113.998V115.672C76.1384 115.862 75.7345 116.004 75.3027 116.096C74.8725 116.187 74.3477 116.233 73.7285 116.233C72.4501 116.233 71.4502 115.881 70.7334 115.177C70.0139 114.471 69.6543 113.473 69.6543 112.181C69.6544 110.852 69.9858 109.824 70.6504 109.098C71.3164 108.371 72.2356 108.009 73.4082 108.009ZM9.16992 113.65H9.21094L11.8174 105.717H14.8115V116.091H12.7598V111.181C12.7598 110.949 12.7644 110.681 12.7715 110.378C12.7785 110.076 12.8107 109.271 12.8672 107.965H12.8027L10.127 116.091H8.1123L5.61426 107.952H5.55078C5.63967 109.607 5.68457 110.713 5.68457 111.266V116.091H3.71875V105.717H6.71387L9.16992 113.65ZM29.9697 108.009C30.8925 108.009 31.5929 108.256 32.0713 108.756C32.5482 109.255 32.7881 109.975 32.7881 110.918V116.091H30.623V111.457C30.623 110.886 30.5215 110.455 30.3184 110.169C30.1138 109.884 29.791 109.74 29.3467 109.74C28.7413 109.74 28.3023 109.943 28.0342 110.347C27.7633 110.752 27.6289 111.422 27.6289 112.358V116.091H25.4648V108.156H27.1172L27.4092 109.173H27.5283C27.7696 108.789 28.1035 108.499 28.5254 108.304C28.9486 108.106 29.4309 108.009 29.9697 108.009ZM45.084 116.091H42.9199V108.156H45.084V116.091ZM56.918 116.091H54.752V105.05H56.918V116.091ZM50.2197 112.443C49.5904 112.463 49.1211 112.576 48.8135 112.783C48.506 112.992 48.3526 113.308 48.3525 113.734C48.3525 114.345 48.7024 114.652 49.4023 114.652C49.9047 114.652 50.3049 114.506 50.6055 114.217C50.906 113.929 51.0557 113.545 51.0557 113.068V112.415L50.2197 112.443ZM37.6406 109.768C37.1595 109.768 36.7843 109.973 36.5176 110.382C36.2495 110.791 36.1152 111.387 36.1152 112.167C36.1152 112.949 36.2506 113.533 36.5215 113.924C36.7896 114.313 37.1754 114.51 37.6777 114.51C38.2306 114.51 38.6368 114.348 38.8936 114.025C39.1518 113.705 39.2934 113.157 39.3174 112.387V112.152C39.3173 111.302 39.1861 110.691 38.9238 110.321C38.66 109.953 38.2333 109.768 37.6406 109.768ZM64.8027 109.768C64.3217 109.768 63.9463 109.973 63.6797 110.382C63.4116 110.791 63.2773 111.387 63.2773 112.167C63.2774 112.949 63.4127 113.533 63.6836 113.924C63.9517 114.313 64.3375 114.51 64.8398 114.51C65.3928 114.51 65.7989 114.348 66.0557 114.025C66.3139 113.705 66.4555 113.157 66.4795 112.387V112.152C66.4794 111.302 66.3483 110.691 66.0859 110.321C65.8221 109.953 65.3954 109.768 64.8027 109.768ZM73.4219 109.548C72.9633 109.548 72.6034 109.694 72.3438 109.984C72.0843 110.276 71.9346 110.688 71.8965 111.223H74.9336C74.9237 110.688 74.7849 110.276 74.5156 109.984C74.2461 109.694 73.8805 109.548 73.4219 109.548ZM44.0049 105.05C44.7909 105.05 45.1836 105.401 45.1836 106.107C45.1836 106.442 45.086 106.703 44.8887 106.891C44.6939 107.077 44.3986 107.17 44.0049 107.17C43.2204 107.17 42.8272 106.816 42.8271 106.107C42.8271 105.401 43.2203 105.05 44.0049 105.05ZM33.334 92.0079C33.5569 92.0079 33.8198 92.0275 34.126 92.0684C34.4307 92.1079 34.6267 92.138 34.71 92.1563H37.4785V93.2569L36.2363 93.5753C36.4621 93.9309 36.5781 94.3279 36.5781 94.7696C36.5781 95.6205 36.2801 96.2833 35.6875 96.7589C35.0934 97.2343 34.2679 97.4727 33.2139 97.4727L32.8232 97.4503L32.5049 97.4151C32.282 97.5858 32.1719 97.7751 32.1719 97.9825C32.1719 98.2957 32.5679 98.4512 33.3623 98.4512H34.71C35.5806 98.4512 36.2454 98.6388 36.7012 99.0128C37.1583 99.3852 37.3867 99.9355 37.3867 100.659C37.3867 101.586 36.9984 102.307 36.2266 102.817C35.4533 103.327 34.3425 103.583 32.8936 103.583C31.7874 103.583 30.9406 103.39 30.3564 103.005C29.7723 102.618 29.4805 102.078 29.4805 101.382C29.4805 100.904 29.63 100.504 29.9277 100.184C30.2269 99.862 30.6632 99.6325 31.2402 99.4942C31.0187 99.4011 30.8243 99.2452 30.6592 99.0294C30.4941 98.8149 30.4102 98.5861 30.4102 98.3448C30.4102 98.0416 30.498 97.7902 30.6729 97.5899C30.8477 97.3883 31.1018 97.1913 31.4316 96.9981C31.0154 96.8175 30.6865 96.5288 30.4424 96.1309C30.1984 95.7331 30.0771 95.2645 30.0771 94.7256C30.0772 93.8594 30.358 93.1919 30.9209 92.7178C31.4839 92.2451 32.2885 92.0079 33.334 92.0079ZM32.7529 100.19C32.355 100.19 32.0216 100.284 31.7549 100.472C31.4869 100.658 31.3525 100.904 31.3525 101.213C31.3527 101.51 31.497 101.744 31.7832 101.915C32.0697 102.084 32.4708 102.171 32.9873 102.171C33.7618 102.171 34.3699 102.065 34.8115 101.851C35.2503 101.639 35.4706 101.348 35.4707 100.979C35.4707 100.679 35.341 100.474 35.0801 100.361C34.8191 100.247 34.4181 100.191 33.875 100.19H32.7529ZM25.5605 92.0079C26.3225 92.0079 26.9944 92.1733 27.5771 92.5049C28.1584 92.8365 28.6042 93.3123 28.916 93.9317C29.2306 94.5511 29.3848 95.278 29.3848 96.1104C29.3847 97.4014 29.0458 98.4116 28.3643 99.1397C27.6828 99.8691 26.7333 100.233 25.5186 100.233C24.7567 100.233 24.0847 100.067 23.502 99.7325C22.9206 99.3995 22.473 98.9196 22.1611 98.296C21.8493 97.6709 21.6924 96.9428 21.6924 96.1104C21.6924 94.8136 22.0297 93.8057 22.707 93.086C23.3829 92.3677 24.3357 92.0079 25.5605 92.0079ZM47.2529 91.9942C48.3169 91.9942 49.1329 92.2253 49.7002 92.6895C50.2688 93.1524 50.5527 93.8584 50.5527 94.8038V100.091H49.041L48.623 99.0128H48.5654C48.2014 99.4713 47.8256 99.7891 47.4404 99.9669C47.0539 100.145 46.5532 100.233 45.9326 100.233C45.1706 100.233 44.5717 100.016 44.1328 99.5801C43.6955 99.1442 43.4776 98.5259 43.4775 97.7217C43.4775 96.8793 43.7719 96.2568 44.3604 95.8575C44.9502 95.4581 45.8382 95.2367 47.0264 95.1944L48.4014 95.1524V94.8038C48.4014 94.0009 47.9897 93.5987 47.167 93.5987C46.5334 93.5987 45.7881 93.7891 44.9316 94.1729L44.2148 92.711C45.1278 92.2327 46.1411 91.9942 47.2529 91.9942ZM68.9277 91.9942C69.9917 91.9942 70.8073 92.2253 71.376 92.6895C71.9432 93.1524 72.2266 93.8583 72.2266 94.8038V100.091H70.7158L70.2979 99.0128H70.2402C69.8762 99.4714 69.5019 99.7891 69.1152 99.9669C68.73 100.145 68.2277 100.233 67.6084 100.233C66.8464 100.233 66.2465 100.016 65.8076 99.5801C65.3716 99.1441 65.1534 98.526 65.1533 97.7217C65.1533 96.8794 65.4478 96.2568 66.0361 95.8575C66.6245 95.4582 67.5122 95.2368 68.7002 95.1944L70.0781 95.1524V94.8038C70.0781 94.0009 69.6654 93.5987 68.8428 93.5987C68.2093 93.5988 67.4633 93.7892 66.6084 94.1729L65.8896 92.711C66.8026 92.2326 67.8158 91.9942 68.9277 91.9942ZM11.2998 89.7159C12.5599 89.7159 13.5171 89.9855 14.1719 90.5274C14.8266 91.0707 15.1533 91.8784 15.1533 92.9522C15.1533 94.068 14.8051 94.9216 14.1084 95.5128C13.41 96.104 12.4176 96.4004 11.1309 96.4005H10.1865V100.091H7.98633V89.7159H11.2998ZM20.6455 92.0079C20.939 92.0079 21.1822 92.029 21.377 92.0714L21.2129 94.1006C21.038 94.0541 20.8249 94.0303 20.5752 94.0303C19.8838 94.0303 19.3462 94.2084 18.9609 94.5626C18.5744 94.9182 18.3818 95.4146 18.3818 96.0538V100.091H16.2178V92.1563H17.8555L18.1758 93.4893H18.2822C18.5291 93.0465 18.8605 92.6883 19.2793 92.4161C19.6984 92.1437 20.1531 92.0079 20.6455 92.0079ZM42.6133 92.0079C42.9052 92.0079 43.1495 92.0291 43.3428 92.0714L43.1807 94.1006C43.0058 94.0541 42.7929 94.0304 42.542 94.0303C41.852 94.0303 41.313 94.2084 40.9277 94.5626C40.5425 94.9182 40.3486 95.4145 40.3486 96.0538V100.091H38.1846V92.1563H39.8242L40.1426 93.4893H40.25C40.4955 93.0464 40.8272 92.6883 41.2461 92.4161C41.6651 92.1438 42.1195 92.0079 42.6133 92.0079ZM61.4121 92.0079C62.311 92.0079 62.9917 92.2393 63.4531 92.6993C63.9145 93.1607 64.1455 93.9021 64.1455 94.918V100.091H61.9736V95.4571C61.9736 94.8856 61.876 94.4545 61.6855 94.168C61.4936 93.8833 61.1917 93.7393 60.7812 93.7393C60.2509 93.7394 59.8556 93.9283 59.5918 94.3077C59.3293 94.6844 59.1982 95.2863 59.1982 96.1104V100.091H57.0332V95.4571C57.0332 94.8856 56.9376 94.4545 56.7471 94.168C56.5552 93.8832 56.2527 93.7393 55.8408 93.7393C55.2879 93.7394 54.8859 93.9429 54.6348 94.3506C54.3851 94.7571 54.2598 95.4272 54.2598 96.3585V100.091H52.0947V92.1563H53.749L54.0391 93.1719H54.1602C54.3718 92.8065 54.6799 92.5229 55.082 92.3155C55.4842 92.1109 55.9456 92.0079 56.4648 92.0079C57.6529 92.0079 58.4574 92.3959 58.8779 93.1719H59.0693C59.2824 92.8023 59.596 92.5163 60.0107 92.3145C60.4242 92.1099 60.8915 92.0079 61.4121 92.0079ZM47.5654 96.4434C46.9361 96.4632 46.4673 96.5759 46.1611 96.7833C45.8521 96.9921 45.6982 97.3097 45.6982 97.7344C45.6983 98.3452 46.048 98.6513 46.749 98.6514C47.2498 98.6514 47.6506 98.506 47.9512 98.2169C48.2517 97.929 48.4013 97.5467 48.4014 97.0684V96.4151L47.5654 96.4434ZM69.2393 96.4434C68.6116 96.4632 68.1435 96.576 67.8359 96.7833C67.5269 96.9921 67.374 97.3097 67.374 97.7344C67.3741 98.3453 67.7241 98.6514 68.4238 98.6514C68.9247 98.6514 69.3268 98.506 69.626 98.2169C69.9265 97.929 70.0781 97.5467 70.0781 97.0684V96.4151L69.2393 96.4434ZM25.5322 93.754C24.9551 93.754 24.5386 93.9495 24.2832 94.3389C24.0278 94.7284 23.8994 95.3202 23.8994 96.1104C23.8995 96.8962 24.0279 97.4891 24.2861 97.8926C24.5443 98.2932 24.9649 98.4931 25.5459 98.4932C26.1229 98.4932 26.5384 98.2947 26.791 97.8956C27.045 97.4949 27.1718 96.9005 27.1719 96.1104C27.1719 95.3244 27.0435 94.7356 26.7881 94.3419C26.5327 93.951 26.1136 93.754 25.5322 93.754ZM33.334 93.3204C32.5397 93.3205 32.1416 93.7988 32.1416 94.754C32.1416 95.1858 32.239 95.5262 32.4365 95.7774C32.6326 96.027 32.932 96.1524 33.334 96.1524C33.7416 96.1524 34.0394 96.0269 34.2285 95.7774C34.4176 95.5262 34.5127 95.1858 34.5127 94.754C34.5127 93.7987 34.1185 93.3204 33.334 93.3204ZM10.1865 94.5987H10.9102C11.5875 94.5987 12.0929 94.4645 12.4287 94.1964C12.7645 93.9297 12.9326 93.5415 12.9326 93.0294C12.9326 92.5144 12.7929 92.1332 12.5107 91.8878C12.2299 91.6408 11.7876 91.5186 11.1865 91.5186H10.1865V94.5987Z"
      fill="#007DBC" />
    <path
      d="M50.464 5.21405H51.2373C51.9598 5.21405 52.5003 5.07153 52.8601 4.78648C53.2171 4.50144 53.3978 4.08516 53.3978 3.53906C53.3978 2.98873 53.2468 2.58233 52.9462 2.31986C52.6456 2.0574 52.1743 1.92475 51.5337 1.92475H50.464V5.21405ZM55.7698 3.45581C55.7698 4.64819 55.3973 5.56118 54.6522 6.19195C53.9058 6.82412 52.8474 7.14021 51.473 7.14021H50.464V11.0814H48.1145V0H51.6536C52.9984 0 54.0201 0.289277 54.72 0.867832C55.4199 1.4478 55.7698 2.30857 55.7698 3.45581ZM42.3134 11.0814H40.002V0H46.3535V1.92475H42.3134V4.78366H46.0726V6.69994H42.3134V11.0814ZM35.9281 11.0814H33.2526L31.7526 5.2592C31.6962 5.05318 31.6016 4.6242 31.4676 3.97509C31.3335 3.32598 31.2559 2.88995 31.2362 2.66841C31.2051 2.94216 31.1303 3.37961 31.009 3.98356C30.8876 4.5861 30.7931 5.0179 30.7282 5.27473L29.2352 11.0814H26.5682L23.7403 0H26.0517L27.4699 6.04801C27.7168 7.1642 27.896 8.13222 28.0075 8.95066C28.0372 8.6628 28.1077 8.21689 28.2164 7.61434C28.3236 7.00898 28.4266 6.54049 28.5226 6.20747L30.1369 0H32.358L33.9723 6.20747C34.0429 6.48546 34.1318 6.9102 34.2376 7.48029C34.3434 8.05179 34.4253 8.54144 34.4803 8.95066C34.5297 8.55697 34.6116 8.06449 34.723 7.47606C34.8345 6.88903 34.9347 6.41208 35.0264 6.04801L36.4347 0H38.7475L35.9281 11.0814ZM30.1806 49.6216C25.8753 49.6216 23.1109 50.6447 22.3574 50.9608C22.3123 50.9805 22.277 50.917 22.3108 50.8832C27.0423 45.9641 32.581 46.2364 33.913 46.2364H49.6639C50.457 46.2364 51.1005 46.9942 51.1005 47.9297C51.1005 48.8639 50.457 49.6216 49.6639 49.6216H30.1806ZM33.7282 53.9749C29.0899 53.9749 27.738 51.339 20.7163 53.0789C20.6683 53.0916 20.6358 53.0252 20.6754 52.9984C24.5898 50.3117 28.8471 50.5558 30.5701 50.5558H49.6639C50.457 50.5558 51.1005 51.3136 51.1005 52.2491C51.1005 53.1833 50.457 53.941 49.6639 53.941C49.6639 53.941 37.4013 53.9749 33.7282 53.9749ZM34.0584 58.2605C29.2959 58.2605 28.9149 54.7468 21.8565 53.9552C21.8071 53.9509 21.8014 53.8775 21.8494 53.8648C27.6491 52.4156 29.8067 54.8752 33.192 54.8752H49.6639C50.457 54.8752 51.1005 55.633 51.1005 56.5671C51.1005 57.5027 50.457 58.2605 49.6639 58.2605H34.0584ZM33.024 45.3037C29.1915 45.3037 26.0136 46.9744 25.27 47.3963C25.229 47.4203 25.1867 47.3695 25.2135 47.3314C25.8358 46.417 29.1943 41.917 34.9657 41.917H49.6639C50.457 41.917 51.1005 42.6748 51.1005 43.6103C51.1005 44.5459 50.457 45.3037 49.6639 45.3037H33.024ZM54.1076 35.9551C53.9594 35.8041 53.7378 35.6954 53.4824 35.6658C53.2933 35.639 53.1226 35.6686 52.9716 35.7265C53.0379 35.5868 53.093 35.4372 53.1155 35.2608C53.1522 34.987 53.1 34.7316 52.997 34.5369C52.5229 33.4983 53.8789 31.4212 53.7082 31.3266C53.5445 31.2377 52.774 33.528 52.0262 34.4551C51.8822 34.623 51.7778 34.8671 51.7453 35.1437C51.7185 35.4174 51.7637 35.6771 51.8667 35.8676C51.9711 36.0552 52.1306 36.1865 52.3154 36.1978C52.3676 36.2048 52.4199 36.202 52.4678 36.1907C52.4565 36.2161 52.4453 36.2472 52.441 36.2726C52.4114 36.4758 52.489 36.6663 52.6414 36.8201C52.7896 36.9781 53.0083 37.0825 53.2637 37.1122C53.5262 37.146 53.7717 37.0938 53.9594 36.9823C54.9754 36.4264 57.078 35.8789 57.0342 35.6841C56.9933 35.4894 54.9415 36.6931 54.1076 35.9551ZM55.6598 34.4395C55.5187 34.2857 55.3197 34.1813 55.0855 34.1587C54.9514 34.1502 54.83 34.1728 54.7087 34.218C54.727 34.1545 54.7524 34.098 54.7595 34.0345C54.7863 33.7876 54.727 33.5576 54.6156 33.3812C54.1005 32.4259 55.4453 30.6225 55.2717 30.5322C55.0967 30.4419 54.3601 32.464 53.6123 33.2612C53.4641 33.4052 53.3597 33.614 53.3343 33.8624C53.3117 34.1093 53.3667 34.3422 53.4754 34.5185C53.5939 34.6907 53.7562 34.8149 53.9523 34.8403C54.0384 34.8473 54.1273 34.8332 54.2049 34.8106C54.2007 34.8219 54.1894 34.8375 54.1936 34.8473C54.1753 35.0576 54.2529 35.2608 54.3898 35.4104C54.5309 35.5599 54.7341 35.6658 54.9599 35.6841C55.1927 35.7067 55.4086 35.6432 55.5709 35.519C56.4458 34.8897 58.4453 34.5143 58.3931 34.3125C58.3451 34.1164 56.4303 35.1747 55.6598 34.4395ZM57.0187 33.0369C56.8748 32.9282 56.6786 32.869 56.4712 32.8915C56.371 32.8944 56.2779 32.9254 56.1932 32.9621C56.2073 32.9212 56.2341 32.8873 56.2482 32.8464C56.3033 32.6319 56.2849 32.4146 56.2143 32.2382C55.8898 31.3012 57.3334 29.9141 57.1923 29.8012C57.0526 29.6968 56.1156 31.376 55.3451 31.9687C55.1969 32.0773 55.0784 32.2495 55.0191 32.4668C54.9556 32.6771 54.9754 32.8986 55.0488 33.0707C55.1264 33.2471 55.252 33.3784 55.4227 33.4306C55.5525 33.4715 55.6824 33.4461 55.8037 33.3939C55.7783 33.4644 55.7642 33.5477 55.7713 33.6338C55.7896 33.8243 55.8827 33.9866 56.0337 34.098C56.1777 34.2109 56.3738 34.2674 56.5784 34.2519C56.7887 34.2293 56.9707 34.1404 57.0963 34.0049C57.7892 33.3036 59.515 32.6474 59.4444 32.4781C59.371 32.3102 57.8188 33.5576 57.0187 33.0369ZM59.6928 30.0256C59.5488 29.8125 58.3409 31.1361 57.4491 31.2631C57.2812 31.2857 57.0963 31.3689 56.9411 31.5143C56.7746 31.6653 56.6673 31.8487 56.6292 32.0237C56.5897 32.1973 56.6151 32.3666 56.7082 32.4823C56.807 32.6023 56.9594 32.6545 57.1302 32.6361C57.3009 32.6164 57.4787 32.5345 57.6452 32.3807C57.8004 32.234 57.9077 32.0519 57.9486 31.8784C58.2181 30.971 59.8 30.1653 59.6928 30.0256ZM34.7244 31.8177C34.6878 31.9503 34.4281 32.9692 34.4281 32.9692C34.3547 33.0115 34.0429 32.9437 33.961 32.9353C33.3655 32.8788 32.8335 32.3624 33.0621 31.7429C33.2484 31.2377 33.6322 31.1841 34.1177 31.1629C34.318 31.1531 34.6821 31.201 34.8627 31.3266C34.8627 31.3266 34.7908 31.5595 34.7244 31.8177ZM34.04 34.8967C34.0203 35.0138 34.002 35.1296 33.9836 35.2453C33.6139 35.0138 33.3952 34.4804 33.573 34.0599C33.7099 33.7424 34.0485 33.6578 34.2983 33.6437C34.2094 34.0599 34.1205 34.4762 34.04 34.8967ZM33.5066 38.7025C33.4601 38.9635 33.1073 38.9988 32.866 39.0708C32.1661 39.2796 31.5029 39.1907 31.2884 38.3539C31.0541 37.4579 31.7329 37.0825 32.4582 36.9061C32.8547 36.813 33.2216 36.892 33.4911 37.2251C33.5603 37.3083 33.6393 37.3831 33.6576 37.4621C33.6576 37.4621 33.5504 38.457 33.5066 38.7025ZM31.3025 34.297C31.8429 34.1658 32.4017 33.964 32.8166 34.496C33.2541 35.0534 33.1101 35.9508 32.406 36.1865C31.9431 36.3445 31.3843 36.4786 30.9878 36.1004C30.4699 35.6051 30.5066 34.4804 31.3025 34.297ZM30.7733 31.3944C31.3434 31.2561 31.9318 31.0458 32.3693 31.6046C32.8251 32.1902 32.6727 33.1343 31.9361 33.3812C31.4478 33.5435 30.858 33.686 30.4431 33.2881C29.8998 32.7702 29.9393 31.5891 30.7733 31.3944ZM30.2441 37.6681C30.096 38.1888 29.6656 38.2679 29.214 38.3765C28.9177 38.0125 28.1218 37.0938 28.1091 36.9852C28.1049 36.9485 28.1091 36.9076 28.1246 36.8582C28.1627 36.7495 28.2883 36.6437 28.3801 36.5844C28.651 36.408 29.2281 36.2768 29.54 36.3403C30.0988 36.4602 30.3923 37.1432 30.2441 37.6681ZM27.4149 34.987C27.007 33.5435 29.4285 32.9127 29.8025 34.3309C30.1877 35.7857 27.7436 36.4038 27.4149 34.987ZM27.0593 32.1041C26.6444 30.6676 29.0772 30.0369 29.4511 31.4466C29.8363 32.9057 27.388 33.5237 27.0593 32.1041ZM26.7178 29.2692C26.3212 27.9301 28.6073 27.3374 28.9558 28.6582C29.3142 30.0157 27.0296 30.5999 26.7178 29.2692ZM26.4849 34.7246C26.372 34.7909 26.3297 34.8262 26.293 34.8262L25.205 33.6437C25.2192 33.6112 25.555 33.3671 25.6665 33.3036C26.5696 32.8012 27.3147 34.2363 26.4849 34.7246ZM24.4219 32.0618C23.8842 30.8765 25.84 29.591 26.4327 30.8694C26.9774 32.0477 25.0216 33.3558 24.4219 32.0618ZM26.0658 28.3097C26.6853 29.4075 24.8212 30.6338 24.2878 29.4527C23.8151 28.4324 25.4703 27.2443 26.0658 28.3097ZM24.5037 25.7485C24.7775 25.5058 25.0964 25.3732 25.4224 25.5298C25.9445 25.7824 25.9586 26.5655 25.5028 26.8774C25.2954 27.0199 24.944 27.1949 24.6886 27.1314C24.1298 26.9889 24.0225 26.1732 24.5037 25.7485ZM24.5743 23.3934C24.8001 23.241 25.1006 23.1041 25.3589 23.2099C25.8302 23.4018 25.8146 24.0862 25.4336 24.36C25.2587 24.4842 24.944 24.638 24.7323 24.5815C24.2554 24.4616 24.1382 23.6883 24.5743 23.3934ZM25.8259 20.0377C26.1067 19.8853 26.5103 19.8233 26.7629 20.1055C27.0578 20.4371 26.9633 20.9409 26.5738 21.1398C26.2733 21.2908 25.8697 21.3458 25.6326 21.0679C25.3744 20.7687 25.4266 20.2536 25.8259 20.0377ZM25.603 22.5862C25.3772 21.7466 26.7926 21.3501 27.0212 22.2038C27.278 23.0335 25.8288 23.4456 25.603 22.5862ZM27.8848 24.0538C28.215 24.9611 26.6768 25.4747 26.3777 24.5787C26.0701 23.6714 27.6138 23.1535 27.8848 24.0538ZM28.0781 19.6328C28.3702 19.5142 28.7469 19.3886 29.0729 19.6328C29.4807 19.9376 29.3918 20.6219 28.9247 20.8364C28.6171 20.9747 28.2262 21.0679 27.9511 20.8251C27.6039 20.5133 27.5842 19.8303 28.0781 19.6328ZM27.8071 27.2259C27.3923 27.3219 26.9591 27.4884 26.6148 27.1314C26.1731 26.677 26.3001 25.8826 26.8956 25.6652C27.2808 25.5199 27.769 25.4367 28.0837 25.7598C28.4887 26.1718 28.4436 27.0721 27.8071 27.2259ZM27.8142 22.5904C27.5475 21.6916 29.0136 21.2301 29.2959 22.1036C29.5837 22.9997 28.0668 23.4752 27.8142 22.5904ZM30.2695 24.24C30.6139 25.2673 28.8768 25.8162 28.5579 24.8031C28.2361 23.7687 29.9845 23.2212 30.2695 24.24ZM30.3627 21.4884C30.6675 21.4065 30.992 21.4362 31.2249 21.6873C31.5805 22.0697 31.4591 22.7217 30.9328 22.8205C30.6844 22.8642 30.3034 22.8459 30.1101 22.6765C29.7615 22.3703 29.7785 21.645 30.3627 21.4884ZM31.8429 23.6445C32.4017 23.6445 32.684 24.4658 32.358 24.875C32.1619 25.122 31.7399 25.1375 31.4506 25.0923C30.9172 25.0091 30.5772 24.3233 30.9356 23.8576C31.1543 23.5768 31.5283 23.6445 31.8429 23.6445ZM29.159 27.027C28.8147 25.8459 30.8213 25.3167 31.1289 26.4907C31.4394 27.6831 29.4215 28.2081 29.159 27.027ZM30.3881 28.5383C30.9356 28.4818 31.5071 28.3534 31.8429 28.9277C32.1957 29.5345 31.9318 30.3784 31.222 30.5209C30.755 30.6182 30.1877 30.6634 29.8547 30.2514C29.4172 29.7038 29.5922 28.6131 30.3881 28.5383ZM33.175 25.9065C33.851 26.1859 34.0796 26.986 33.6026 27.432C33.3472 27.6648 32.8801 27.6182 32.5654 27.5547C31.9361 27.432 31.524 26.4851 32.0772 26.0364C32.3594 25.8064 32.8674 25.7795 33.175 25.9065ZM34.239 28.7556C34.6652 29.2763 34.5057 30.1991 33.7621 30.2443C33.3726 30.2655 32.866 30.2217 32.6035 29.9028C32.1802 29.392 32.3397 28.4367 33.0833 28.4099C33.4728 28.3957 33.9766 28.4367 34.239 28.7556ZM37.1163 19.3519C37.0754 19.2913 37.002 19.2574 36.9286 19.28C36.8397 19.3096 36.7804 19.4084 36.8129 19.4945C38.5133 24.0608 36.343 26.3101 35.4356 29.5091C34.3463 26.9098 37.9545 24.4658 36.0946 19.7301C36.0692 19.6709 36.0213 19.6215 35.9549 19.6102C35.8618 19.5989 35.7729 19.637 35.7574 19.7598C35.7094 20.0942 35.4907 22.7189 33.3613 24.2556C33.1426 23.7532 32.8208 23.2283 32.3693 22.8162C32.1731 21.9315 31.596 20.7165 30.381 20.3567C30.199 19.8995 29.8321 19.2419 29.1294 18.8905C28.4661 18.5603 27.6985 18.5899 26.8476 18.9766C25.8175 19.0965 25.1105 19.4973 24.7366 20.169C24.3852 20.8026 24.4473 21.4926 24.5658 21.9611C23.6994 22.8868 23.6585 24.2598 23.681 24.796C23.1674 26.0321 23.4553 27.4771 23.6175 28.0768C23.0037 29.7561 23.6034 31.3873 23.8447 31.9278C23.8447 32.0731 23.8518 32.2128 23.8588 32.3511C21.8452 30.1455 17.2605 27.4164 15.5078 26.375C15.426 26.3256 15.323 26.3369 15.2524 26.4047C15.1635 26.4865 15.1593 26.622 15.2411 26.7109C19.1485 30.5209 22.634 35.2227 25.9812 44.9791C27.6519 43.2434 30.6689 40.9603 34.9657 40.9603H39.9907C36.7988 29.066 41.447 24.8101 37.1163 19.3519ZM60.8739 25.5002C59.9552 25.2603 54.0892 24.2217 47.5162 36.3149C48.4758 31.8106 51.3897 26.3623 52.1898 24.7805V24.7692C52.2378 24.6789 52.2124 24.5632 52.1306 24.4997C52.0487 24.439 51.926 24.4588 51.8639 24.5477C47.519 31.7923 45.9936 35.9649 45.0947 40.9603H47.8154C48.2782 36.1456 54.3601 24.8031 60.84 25.6469H60.8485C60.8851 25.654 60.9176 25.6243 60.9218 25.5905C60.9374 25.5495 60.9105 25.5086 60.8739 25.5002ZM47.8055 65.34L46.3351 59.1932H43.8318C44.2269 60.7539 44.7942 62.34 45.528 63.7299C45.5745 63.8132 45.6634 63.8626 45.7523 63.847C45.8709 63.8315 45.964 63.7087 45.9428 63.5803C45.7721 62.2793 45.5689 61.0234 45.3756 59.7718C45.9047 61.7388 46.6202 63.6622 47.5825 65.4331C47.6079 65.4882 47.6644 65.515 47.7166 65.4966C47.7857 65.4811 47.8238 65.4077 47.8055 65.34ZM50.3342 62.5488C50.0788 61.5229 49.8121 60.2614 49.5821 59.1932H48.631C49.0007 60.3334 49.5017 61.6048 49.9462 62.6928C49.9899 62.7972 50.0901 62.8494 50.1861 62.824C50.3018 62.7887 50.3639 62.6659 50.3342 62.5488ZM50.6531 66.1641L50.6461 66.1486C50.337 65.2906 49.9123 64.5215 49.575 63.6975C49.2166 62.872 48.8681 62.062 48.5788 61.2153C48.3375 60.5817 48.0821 59.8536 47.8859 59.1932H46.9673C47.2269 59.9622 47.5642 60.7906 47.8789 61.5342C48.5717 63.2092 49.3718 64.8517 50.3907 66.3207C50.4259 66.3743 50.4979 66.3969 50.5642 66.3701C50.6461 66.3405 50.6828 66.2459 50.6531 66.1641ZM52.0262 36.6705C51.9556 36.5661 51.7863 36.5435 51.7044 36.6296C50.0351 38.392 49.0233 40.266 48.6748 40.9603H49.6682C50.1635 39.7933 51.2825 37.7345 52.0008 36.9922L52.0092 36.9852C52.0826 36.9033 52.0967 36.7636 52.0262 36.6705ZM44.4724 28.1403C45.3911 26.6333 46.7528 25.4776 47.9085 24.0834C47.9494 24.0298 47.9452 23.9479 47.8972 23.9028C47.8535 23.8548 47.7787 23.8548 47.7307 23.9C47.4682 24.1808 47.1931 24.4432 46.9123 24.7057C46.7895 24.645 46.4791 24.765 46.1644 25.0133C45.916 25.208 45.7382 25.4254 45.6761 25.5834C45.5153 25.5453 45.2161 25.733 44.9466 26.0787C44.7236 26.3666 44.5938 26.6714 44.598 26.8576C44.4273 26.8732 44.1789 27.0905 43.9687 27.4362C43.8318 27.6648 43.7429 27.8849 43.7133 28.0684C43.575 28.1629 43.4198 28.3393 43.2758 28.5679C43.0867 28.8826 42.9908 29.2015 43.0204 29.3849C42.9752 29.464 42.9315 29.5387 42.8948 29.6178C42.9019 29.5543 42.9089 29.4936 42.916 29.4301C43.1869 27.2965 43.5792 25.1812 44.1761 23.1422C44.7758 21.1102 45.4941 19.0584 46.7274 17.4131L46.7345 17.406C46.798 17.3157 46.7895 17.1915 46.7119 17.1097C46.6343 17.0236 46.5059 17.0194 46.424 17.1055C45.9979 17.5598 45.638 18.065 45.3163 18.5871C45.1752 18.5109 44.8788 18.7889 44.6531 19.2235C44.4456 19.6172 44.3723 19.9813 44.4499 20.1196C44.4499 20.1196 44.4456 20.1309 44.4386 20.1281C44.2904 20.0631 44.0166 20.3933 43.8501 20.8364C43.6864 21.2527 43.6568 21.6351 43.7683 21.7621C43.7612 21.7692 43.7612 21.7734 43.757 21.7805C43.5905 21.7212 43.3196 22.0994 43.153 22.6356C43.0162 23.09 43.0021 23.4837 43.1022 23.6417C43.1093 23.6474 43.1022 23.6671 43.0938 23.6629C42.9244 23.6036 42.6648 23.9931 42.5138 24.5265C42.3614 25.0387 42.3713 25.4931 42.5166 25.5834C42.3501 25.5637 42.1159 25.9545 41.9945 26.4823C41.883 26.9395 41.8943 27.3346 42.0016 27.4912C41.8379 27.5406 41.6573 27.923 41.5655 28.4169C41.4766 28.9009 41.5204 29.3031 41.6389 29.4301C41.4865 29.5091 41.3313 29.9028 41.2763 30.3896C41.2212 30.8737 41.2904 31.2716 41.4174 31.3986C41.2904 31.5411 41.169 31.8784 41.1168 32.2834C41.0646 32.67 41.0985 33.003 41.1718 33.1907C41.035 33.3078 40.9305 33.6973 40.9277 34.1658C40.9164 34.5411 40.9729 34.8586 41.0688 35.0435C40.994 35.2297 40.9432 35.5049 40.9432 35.8083C40.9348 36.202 40.9983 36.5393 41.0985 36.7156C41.0688 38.0985 41.0872 39.5731 41.162 40.9603H44.1493C44.1719 39.8793 44.2424 38.7025 44.3497 37.6343C44.5613 35.7293 44.876 33.7946 45.8271 32.1676L45.8356 32.1564C45.8652 32.0957 45.861 32.0279 45.8158 31.9757C45.7608 31.9278 45.6832 31.9278 45.631 31.987C44.3384 33.487 43.7725 35.5233 43.4381 37.4762C43.3788 37.8586 43.3308 38.2453 43.2871 38.6277C43.3675 37.06 43.5129 35.5007 43.8713 34.0162C44.2834 32.2086 45.1046 30.487 46.671 29.5246C46.7189 29.4936 46.7458 29.4301 46.7274 29.3666C46.7091 29.2946 46.6343 29.2537 46.5708 29.272C46.472 29.3031 46.3789 29.3553 46.2829 29.3962C46.1799 29.2692 45.7975 29.3624 45.4052 29.6135C45.0312 29.8577 44.7829 30.1568 44.8083 30.3219C44.8083 30.3304 44.7899 30.3417 44.7899 30.3261C44.7871 30.3078 44.7829 30.288 44.7716 30.2782C44.6305 30.161 44.2537 30.4235 43.9348 30.8694C43.6131 31.3167 43.4861 31.781 43.6244 31.9009C43.6314 31.9052 43.6272 31.9165 43.6201 31.9165C43.4536 31.8487 43.1756 32.2269 43.0021 32.7561C42.8751 33.1272 42.8454 33.4687 42.8906 33.6634C42.8906 33.6705 42.8835 33.6775 42.8835 33.6775C42.7537 34.1065 42.6465 34.5369 42.5463 34.9757C42.583 34.3563 42.638 33.734 42.7269 33.1201C42.9908 31.3492 43.5242 29.6178 44.4724 28.1403ZM53.8747 23.2057C53.6856 23.1154 53.4373 23.0928 53.1889 23.1535C53.0041 23.1986 52.8559 23.2889 52.7303 23.3934C52.7486 23.2353 52.7486 23.0787 52.7049 22.9065C52.6456 22.6356 52.5116 22.4141 52.3493 22.2715C51.5407 21.4658 52.0967 19.0401 51.9076 19.0105C51.7228 18.9836 51.7891 21.4023 51.4081 22.534C51.3305 22.7443 51.3149 23.011 51.3827 23.2805C51.449 23.5472 51.5816 23.7715 51.7482 23.9183C51.9076 24.0566 52.1009 24.1201 52.2816 24.0636C52.331 24.0566 52.3789 24.034 52.4199 24.0044C52.4199 24.034 52.4199 24.0636 52.4227 24.0947C52.4636 24.2922 52.6047 24.4475 52.7966 24.5364C52.9928 24.6309 53.2341 24.6535 53.4852 24.5886C53.7421 24.5293 53.9523 24.391 54.0892 24.2217C54.8484 23.3412 56.6335 22.0853 56.5262 21.9159C56.419 21.7508 54.9119 23.6036 53.8747 23.2057ZM57.3263 20.1492C57.212 19.9855 55.7811 21.6535 54.8075 21.2372C54.6226 21.1441 54.3968 21.1172 54.1711 21.1765C54.0455 21.2146 53.9382 21.2823 53.838 21.3642C53.8338 21.2965 53.838 21.2372 53.8225 21.1765C53.7632 20.9338 53.6306 20.7419 53.4641 20.6149C52.6485 19.9023 53.2891 17.7362 53.0972 17.7122C52.901 17.6897 52.9039 19.8458 52.4819 20.859C52.393 21.0467 52.3676 21.2781 52.4297 21.518C52.489 21.7593 52.6231 21.9569 52.7896 22.0853C52.9561 22.2038 53.1522 22.2617 53.3455 22.2165C53.4302 22.1939 53.505 22.1488 53.5713 22.0994C53.5713 22.1107 53.5671 22.1262 53.5713 22.1375C53.6306 22.3435 53.7717 22.5044 53.9523 22.5989C54.1372 22.685 54.363 22.7146 54.5817 22.6511C54.8075 22.5904 54.9853 22.4522 55.0967 22.2842C55.7007 21.3797 57.4406 20.3228 57.3263 20.1492ZM57.6777 18.0608C57.5521 17.931 56.5262 19.6469 55.5963 19.4408C55.4227 19.3929 55.2181 19.4042 55.0347 19.4973C54.9415 19.5354 54.8625 19.5989 54.7976 19.6624C54.7976 19.6215 54.8075 19.5805 54.8075 19.5354C54.7863 19.3181 54.6974 19.1149 54.5676 18.9794C53.941 18.2146 54.8117 16.4041 54.6452 16.3477C54.4744 16.2983 54.1781 18.2047 53.6602 19.033C53.5558 19.1897 53.505 19.3929 53.5262 19.6144C53.5417 19.8345 53.6334 20.0335 53.7632 20.1732C53.8973 20.3115 54.0596 20.3863 54.2374 20.375C54.3714 20.3708 54.4857 20.3002 54.5817 20.2057C54.5817 20.2819 54.5972 20.3637 54.6339 20.4427C54.7143 20.6149 54.8597 20.7348 55.0375 20.7842C55.2125 20.8407 55.4199 20.8251 55.6033 20.7348C55.7924 20.6417 55.9293 20.4907 56.0041 20.3228C56.4119 19.4183 57.8004 18.1934 57.6777 18.0608ZM57.0638 15.6774C56.8522 15.5264 56.1819 17.1958 55.386 17.6304C55.2379 17.7094 55.0967 17.8519 54.9966 18.0467C54.8964 18.2456 54.8597 18.4545 54.8865 18.6309C54.9048 18.8073 54.9853 18.9583 55.1151 19.033C55.2477 19.1121 55.4086 19.1078 55.5596 19.0288C55.7148 18.9498 55.8517 18.8073 55.9561 18.6097C56.0521 18.4136 56.0888 18.2047 56.0676 18.0283C56.0083 17.0829 57.212 15.7706 57.0638 15.6774ZM42.4461 59.1932H34.0584C33.4883 59.1932 32.9732 59.148 32.4991 59.0634C32.5019 59.0634 32.5019 59.0662 32.5019 59.0662C33.8806 61.1137 36.0396 62.6659 38.2282 63.7088C38.5655 65.5756 38.9874 67.3028 39.1384 67.4383C39.2951 67.5738 41.4428 66.9543 41.5091 66.7567C41.5726 66.5578 40.6314 63.3602 40.6314 63.3602C41.7603 61.4213 42.1088 60.2769 42.4461 59.1932ZM63.5479 73.5428C61.4298 74.3795 58.6669 74.4501 56.4119 73.8504C51.2458 72.2417 45.5096 69.1937 40.002 71.7239C34.4944 69.1937 28.7582 72.2417 23.5921 73.8504C21.3372 74.4501 18.5742 74.3795 16.4561 73.5428C16.3968 73.5216 16.3517 73.595 16.4039 73.6373C19.4519 75.9953 23.722 77.079 27.5658 75.6919C31.2573 74.5404 34.3801 70.6302 38.7532 72.2982C35.2917 73.6514 32.0546 76.1491 29.5541 78.507L31.373 80C33.6435 77.3556 36.1991 74.7126 39.0904 73.1053C39.487 72.8725 39.724 72.7779 40.002 72.7638C40.28 72.7779 40.5157 72.8725 40.9094 73.1053C43.805 74.7126 46.3605 77.3556 48.631 80L50.4499 78.507C47.9494 76.1491 44.7123 73.6514 41.2509 72.2982C45.6239 70.6302 48.7453 74.5404 52.4382 75.6919C56.2821 77.079 60.5521 75.9953 63.5987 73.6373C63.6481 73.595 63.6072 73.5216 63.5479 73.5428ZM29.4991 69.9811C24.1001 68.6716 22.6227 63.61 18.1085 61.4143C18.0591 61.3875 18.0083 61.4439 18.038 61.4877C19.4604 63.8287 20.2309 67.4129 24.3287 69.6213C24.3626 69.6396 24.3443 69.6933 24.3076 69.6806C18.426 68.5489 15.9566 70.1222 9.79423 67.3381C9.74202 67.3141 9.68557 67.3706 9.71944 67.42C11.7458 70.3593 16.5521 72.3687 23.1378 71.8156C25.507 71.6124 27.2258 70.6147 29.4991 70.0827C29.5541 70.0672 29.5541 69.9924 29.4991 69.9811ZM18.189 66.8767C16.1372 64.1871 16.7228 58.4481 12.0901 53.1946C12.0534 53.1537 11.9857 53.1875 11.997 53.2397C12.8818 57.109 12.6193 61.5032 15.0408 64.7233C15.0633 64.7586 15.0295 64.7911 14.997 64.7699C10.219 61.0093 5.3097 59.8762 3.12388 56.8324C3.09142 56.7901 3.02369 56.8127 3.03216 56.8649C3.57261 60.8061 11.1418 66.9472 18.148 66.9585C18.189 66.9585 18.2158 66.9106 18.189 66.8767ZM11.0163 59.7294C8.81633 55.6513 11.4452 49.4269 8.94897 43.3775C8.92357 43.314 8.82762 43.3295 8.82762 43.3972C8.75283 46.7006 6.70106 51.6311 7.94143 55.355C7.95696 55.3874 7.91321 55.4072 7.89346 55.3762C4.73537 50.7618 2.22782 49.7966 0.139366 45.5718C0.109733 45.5083 0.0137767 45.5266 0.00954335 45.5943C-0.123102 48.4659 1.1469 50.8056 2.57919 52.9801C4.87225 55.9237 7.82431 58.252 10.9457 59.8042C10.9937 59.8282 11.0374 59.7774 11.0163 59.7294ZM9.5233 34.8854C9.52047 34.8177 9.43157 34.7951 9.39771 34.8558C7.71989 37.9941 4.73114 40.4904 4.63518 44.6348C4.63095 44.6757 4.58721 44.6785 4.58015 44.6418C4.03546 41.4429 1.32047 37.8586 1.20194 33.2288C1.20194 33.1568 1.10175 33.1385 1.07635 33.2062C-1.15745 39.2274 2.05425 44.9382 5.47198 49.6555C5.50867 49.7035 5.58346 49.6739 5.58346 49.6089C5.44235 44.6108 9.77589 40.8812 9.5233 34.8854ZM11.6569 27.0933C10.0708 29.2946 6.50492 30.8511 5.20245 34.0261C5.1827 34.0726 5.12767 34.0599 5.13472 34.0077C5.6526 30.4503 4.27958 26.3186 5.56793 21.59C5.58769 21.5222 5.50161 21.4771 5.46069 21.5293C3.51335 23.9254 2.85436 26.7335 2.7457 29.7673C2.61306 33.4941 3.92398 36.2133 4.57168 38.7406C4.58721 38.7999 4.66482 38.7956 4.67893 38.7364C5.61309 35.4217 10.2966 33.4278 11.7641 27.1469C11.7825 27.0792 11.6978 27.0383 11.6569 27.0933ZM15.9566 19.692C13.3488 21.7353 9.36807 23.7038 8.51294 25.1262C8.49741 25.1558 8.45367 25.1333 8.46072 25.1036L9.42734 20.4653C9.86055 18.4968 10.2345 16.6102 11.3225 14.8477C11.3563 14.7955 11.2928 14.7362 11.2449 14.7729C6.28337 18.7028 7.00869 24.3868 6.78996 29.0406C6.78714 29.0886 6.84641 29.1112 6.87886 29.0773C9.80129 25.9094 14.5638 24.0636 16.037 19.7569C16.0554 19.7047 16.0003 19.6582 15.9566 19.692ZM19.6481 12.5687C15.2637 12.707 12.0421 16.3999 10.6607 21.1017C10.6522 21.1285 10.6903 21.1511 10.7115 21.1356C16.7525 16.7075 16.4152 14.811 19.6848 12.7042C19.744 12.6661 19.7186 12.5687 19.6481 12.5687ZM70.207 67.3381C64.0475 70.1222 61.5738 68.5489 55.6922 69.6806C55.6555 69.6933 55.6372 69.6396 55.6711 69.6213C59.7704 67.4129 60.5408 63.8287 61.9632 61.4877C61.9929 61.4439 61.9407 61.3875 61.8927 61.4143C57.3813 63.61 55.9039 68.6716 50.5007 69.9811C50.4457 69.9924 50.4457 70.0672 50.5007 70.0827C52.774 70.6147 54.4928 71.6124 56.8635 71.8156C63.4477 72.3687 68.2582 70.3593 70.2804 67.42C70.3142 67.3706 70.2578 67.3141 70.207 67.3381ZM76.8759 56.8324C74.6915 59.8762 69.7808 61.0093 65.0042 64.7699C64.9746 64.7911 64.9365 64.7586 64.9633 64.7233C67.3805 61.5032 67.118 57.109 68.0028 53.2397C68.0141 53.1875 67.9464 53.1537 67.9111 53.1946C63.2812 58.4481 63.8626 64.1871 61.8151 66.8767C61.7883 66.9106 61.8108 66.9585 61.856 66.9585C68.8622 66.9472 76.4286 60.8061 76.9691 56.8649C76.9761 56.8127 76.9098 56.7901 76.8759 56.8324ZM79.9903 45.5943C79.9874 45.5266 79.8901 45.5083 79.8604 45.5718C77.772 49.7966 75.2644 50.7618 72.1106 55.3762C72.088 55.4072 72.0471 55.3874 72.0584 55.355C73.2988 51.6311 71.2512 46.7006 71.1736 43.3972C71.1736 43.3295 71.0762 43.314 71.0508 43.3775C68.5546 49.4269 71.1835 55.6513 68.9878 59.7294C68.9624 59.7774 69.0061 59.8282 69.0555 59.8042C72.1769 58.252 75.1276 55.9237 77.4206 52.9801C78.8529 50.8056 80.1243 48.4659 79.9903 45.5943ZM78.9235 33.2062C78.8981 33.1385 78.7979 33.1568 78.7979 33.2288C78.6793 37.8586 75.9658 41.4429 75.4211 44.6418C75.4126 44.6785 75.3689 44.6757 75.3689 44.6348C75.2729 40.4904 72.2799 37.9941 70.6021 34.8558C70.5696 34.7951 70.4807 34.8177 70.4807 34.8854C70.2281 40.8812 74.5589 44.6108 74.4164 49.6089C74.4164 49.6739 74.4954 49.7035 74.5321 49.6555C77.9456 44.9382 81.1573 39.2274 78.9235 33.2062ZM77.2541 29.7673C77.1455 26.7335 76.4879 23.9254 74.5391 21.5293C74.4996 21.4771 74.4164 21.5222 74.4319 21.59C75.7202 26.3186 74.3472 30.4503 74.8693 34.0077C74.8764 34.0599 74.8171 34.0726 74.7988 34.0261C73.4949 30.8511 69.929 29.2946 68.3443 27.0933C68.3062 27.0383 68.2215 27.0792 68.2371 27.1469C69.7032 33.4278 74.3867 35.4217 75.3209 38.7364C75.335 38.7956 75.4126 38.7999 75.4281 38.7406C76.0758 36.2133 77.3868 33.4941 77.2541 29.7673ZM68.755 14.7729C68.707 14.7362 68.6435 14.7955 68.6773 14.8477C69.7653 16.6102 70.1393 18.4968 70.5725 20.4653L71.5391 25.1036C71.5475 25.1333 71.5024 25.1558 71.4883 25.1262C70.6317 23.7038 66.6552 21.7353 64.0446 19.692C64.0037 19.6582 63.9445 19.7047 63.9628 19.7569C65.436 24.0636 70.1985 25.9094 73.1209 29.0773C73.1534 29.1112 73.2127 29.0886 73.2099 29.0406C72.9911 24.3868 73.7164 18.7028 68.755 14.7729ZM60.3517 12.5687C60.2812 12.5687 60.2586 12.6661 60.3151 12.7042C63.5846 14.811 63.2474 16.7075 69.2884 21.1356C69.3138 21.1511 69.3476 21.1285 69.3391 21.1017C67.9591 16.3999 64.7375 12.707 60.3517 12.5687Z"
      fill="#007DBC" />
  </g>
  <defs>
    <clipPath id="clip0_195_1576">
      <rect width="80" height="133" fill="white" />
    </clipPath>
  </defs>
</svg>